<?xml version="1.0" standalone="no"?><!DOCTYPE svg PUBLIC "-//W3C//DTD SVG 1.1//EN" "http://www.w3.org/Graphics/SVG/1.1/DTD/svg11.dtd"><svg class="icon" width="14px" height="14.00px" viewBox="0 0 1024 1024" version="1.1" xmlns="http://www.w3.org/2000/svg"><path d="M145.621959 0c-44.79888 0-79.998 36.81188-79.998 81.61076v860.77848c0 44.79888 35.19912 81.61076 79.998 81.61076h732.781681a81.969151 81.969151 0 0 0 81.61076-81.61076V324.80468L657.60916 0h-511.987201z" fill="#C0C0C0" /><path d="M657.60916 0v233.59416c0 25.59936 17.61236 92.79768 97.61036 92.79768h204.79488L657.60916 0z" fill="#FFFFFF" /><path d="M371.920302 593.59796c-10.137347 6.451039-14.745231 13.234869-15.359616 24.575386l-1.228769 23.653808h-8.601385l-1.535962-40.216594c-0.307192-10.444539 2.764731-17.20277 23.961001-31.333617 26.111347-17.509962 31.000825-42.981325 19.045924-62.334442-9.830154-15.641209-29.157671-19.941901-36.223094-12.902077-9.21577 9.21577-21.19627 7.679808-23.653809-1.843154-1.843154-6.758231 4.300692-15.359616 16.281193-15.359616 37.451864 0 69.707057 25.496963 69.707057 60.491288-0.025599 21.170671-10.162946 34.994325-42.39254 55.269018z m-19.353116 95.792805c-9.21577 0-16.895578-7.372616-16.895578-16.562786s7.679808-16.869978 16.895578-16.869978 16.895578 7.679808 16.895577 16.869978-7.679808 16.562786-16.895577 16.562786zM679.087023 593.59796c-10.111747 6.451039-14.719632 13.234869-15.359616 24.575386l-1.20317 23.653808h-8.601385l-1.535962-40.242194c-0.307192-10.444539 2.739132-17.20277 23.961001-31.333616 26.111347-17.509962 31.000825-42.981325 19.045924-62.334442-9.855754-15.641209-29.18327-19.941901-36.248694-12.902077-9.19017 9.21577-21.170671 7.679808-23.653808-1.843154-1.817555-6.758231 4.300692-15.359616 16.306792-15.359616 37.451864 0 69.707057 25.496963 69.707057 60.491287 0 21.19627-10.162946 35.019925-42.418139 55.294618z m-19.327517 95.792805c-9.21577 0-16.869978-7.372616-16.869978-16.562786s7.654209-16.869978 16.869978-16.869978 16.869978 7.679808 16.869978 16.869978-7.628609 16.562786-16.869978 16.562786z" fill="#FFFFFF" /></svg>