<?xml version="1.0" standalone="no"?><!DOCTYPE svg PUBLIC "-//W3C//DTD SVG 1.1//EN" "http://www.w3.org/Graphics/SVG/1.1/DTD/svg11.dtd"><svg class="icon" width="14px" height="14.00px" viewBox="0 0 1024 1024" version="1.1" xmlns="http://www.w3.org/2000/svg"><path d="M847.872 240.128v688c0 26.56-21.408 48-48 48h-576c-26.56 0-48-21.44-48-48v-832c0-26.592 21.44-48 48-48h432z" fill="#E9EDED" /><path d="M159.872 768.128v160c0 35.456 28.544 64 64 64h576c35.456 0 64-28.544 64-64v-160h-704z" fill="#4BBFEB" /><path d="M847.872 240.128h-144c-26.56 0-48-21.44-48-48v-144" fill="#4BBFEB" /><path d="M655.744 287.936a16 16 0 0 0-4.672 0.736l-254.08 52.16a16 16 0 0 0-12.736 14.528 16 16 0 0 0 0 0.128 16 16 0 0 0-0.256 3.072v103.808a16 16 0 0 0 0 8.064v114.624a62.944 62.944 0 0 0-32-8.96c-35.168 0-64 28.864-64 64 0 35.2 28.832 64 64 64 33.92 0 61.728-26.912 63.616-60.416a16 16 0 0 0 0.384-3.552v-160.704l224-45.984v87.616a62.944 62.944 0 0 0-32-8.96c-35.168 0-64 28.864-64 64 0 35.2 28.832 64 64 64 33.92 0 61.728-26.912 63.616-60.416a16 16 0 0 0 0.384-3.552v-272a16 16 0 0 0-16.256-16.192zM640 323.616v77.184l-224 46.016V369.6l224-46.016z m-32 220.48c17.856 0 32 14.176 32 32 0 17.92-14.144 32-32 32s-32-14.08-32-32c0-17.824 14.144-32 32-32z m-256 64c17.856 0 32 14.176 32 32 0 17.92-14.144 32-32 32s-32-14.08-32-32c0-17.824 14.144-32 32-32z" fill="#4BBFEB" /><path d="M336.128 800a16 16 0 0 0-14.432 8.864l-64 128a16 16 0 1 0 28.608 14.336l11.456-22.944h76.48l11.456 22.944a16 16 0 1 0 28.608-14.336l-64-128a16 16 0 0 0-14.176-8.864z m192 0a16 16 0 0 0-14.432 8.864l-64 128a16 16 0 1 0 28.608 14.336l11.456-22.944h76.48l11.456 22.944a16 16 0 1 0 28.608-14.336l-64-128a16 16 0 0 0-14.176-8.864z m190.112 0a16 16 0 0 0-3.36 0.672c-41.6 3.744-75.008 37.44-75.008 79.328 0 42.048 33.696 75.84 75.552 79.328a16 16 0 0 0 4.704 0.672h32a16 16 0 1 0 0-32h-29.76c-28.544 0-50.496-21.44-50.496-48s21.952-48 50.496-48h29.504a16 16 0 1 0 0-32h-32a16 16 0 0 0-1.6 0zM336 851.84l22.24 44.416h-44.48l22.24-44.448z m192 0l22.24 44.416h-44.48l22.24-44.448z" fill="#E9EDED" /></svg>