<?xml version="1.0" standalone="no"?><!DOCTYPE svg PUBLIC "-//W3C//DTD SVG 1.1//EN" "http://www.w3.org/Graphics/SVG/1.1/DTD/svg11.dtd"><svg class="icon" width="14px" height="14.00px" viewBox="0 0 1024 1024" version="1.1" xmlns="http://www.w3.org/2000/svg"><path d="M144.7936 0c-44.8 0-80 36.8128-80 81.6128v860.8c0 44.8 35.2 81.6128 80 81.6128h732.8a81.9712 81.9712 0 0 0 81.6128-81.6128V324.8128L656.7936 0h-512z" fill="#449FD9" /><path d="M656.768 0v233.6c0 25.6 17.6128 92.8 97.6128 92.8h204.8L656.768 0z" fill="#FFFFFF" /><path d="M417.8944 721.3056c-9.1904 0-17.2032-11.8016-24.0128-35.4048-2.6112-9.0112-5.8624-24.7552-9.7536-47.2576-10.1888 1.408-23.552 3.8912-40.0384 7.5008l-39.9104 8.2432c-4.992 13.1072-13.5424 32.256-25.6512 57.4464-3.2 5.6064-7.552 8.3968-13.056 8.3968-3.9936 0-7.5776-1.4592-10.7264-4.352s-4.736-6.5024-4.736-10.8032c0-4.8128 7.552-23.04 22.656-54.7584a16.2048 16.2048 0 0 1-2.56-9.0112c0-8.0896 4.8896-13.312 14.6944-15.5904a1238.656 1238.656 0 0 1 43.2128-73.8048c23.7056-37.888 38.4512-56.8576 44.2624-56.8576 7.9104 0 13.312 5.504 16.2048 16.512l9.4464 50.4064 22.3488 104.2432 8.5504 23.7056c2.8928 8.0896 4.352 13.4912 4.352 16.2048 0 4.3008-1.5616 7.9104-4.6592 10.8032s-6.6304 4.3776-10.624 4.3776z m-52.9408-171.4432L322.048 619.008a821.504 821.504 0 0 1 55.04-11.2384l-12.1344-57.9072zM517.0432 628.7616c-2.7904 0-8.9088-0.64-18.304-1.9456-0.7936 15.104-1.2032 41.5488-1.2032 79.36 0 3.9936-1.3056 7.3728-3.8912 10.1376s-5.8624 4.1216-9.7536 4.1216c-3.9936 0-7.296-1.3824-9.9072-4.1216s-3.8912-6.1184-3.8912-10.1376v-44.1088c0-14.6944 0.896-35.4048 2.688-62.1056 1.9968-28.9024 3.0976-49.6128 3.3024-62.1056v-20.7104c0-9.9072 0.5888-17.1008 1.792-21.6064 2.304-8.8064 7.1936-12.5952 14.6944-11.392 3.2-0.9984 7.7568-1.7408 13.6448-2.2528s13.1584-0.7424 21.76-0.7424c18.304 0 35.456 6.2464 51.456 18.7392 17.6128 13.7984 26.3936 30.4128 26.3936 49.792 0 24.8064-9.3952 44.544-28.2112 59.2384-16.768 13.2352-36.9664 19.84-60.5696 19.84z m7.5008-119.1168c-4.4032 0-8.32 0.1024-11.776 0.3072s-6.3744 0.512-8.7808 0.896l-0.3072 27.5968-3.1488 59.6992 16.512 1.9456c16.7936 0 30.9504-4.2496 42.4448-12.7488 12.5952-9.2928 18.8928-21.8624 18.8928-37.6576 0-11.2128-5.9904-20.8384-17.9968-28.9536a63.5392 63.5392 0 0 0-35.84-11.0848zM787.9424 722.944c-15.2064 0-36.8384-13.3376-64.9472-40.0384l-44.8512-45.1584v2.0992l-0.1536 78.592c0 9.9072-4.352 14.848-13.056 14.848a15.7696 15.7696 0 0 1-13.6448-7.5008 23.2448 23.2448 0 0 1-4.1984-13.3376c0-23.3984 0.6912-58.3936 2.0992-105.0112s2.0992-81.5616 2.0992-104.8576c0-4.3008 1.4336-7.9616 4.2752-10.9568s6.3744-4.5056 10.5728-4.5056c4.3008 0 7.8848 1.5104 10.7264 4.5056s4.2752 6.656 4.2752 10.9568c0 9.7024-0.5888 24.8064-1.792 45.312a693.888 693.888 0 0 0-1.6384 45.44 745.6 745.6 0 0 0 45.44-47.8464l43.0592-49.9456c3.4048-3.8912 7.1936-5.8624 11.392-5.8624 3.9936 0 7.552 1.5104 10.6496 4.5056s4.6592 6.656 4.6592 10.9568c0 6.6048-12.9024 24.192-38.7072 52.8128a1470.4896 1470.4896 0 0 1-55.1936 57.2928c12.0064 12.5952 30.7968 30.6944 56.3968 54.2976l15.744 13.2096c5.7088 4.4032 11.8528 7.7056 18.4576 9.9072 7.9104 2.6112 11.8528 7.552 11.8528 14.848 0 3.4048-1.0496 6.656-3.1488 9.7536a12.032 12.032 0 0 1-10.368 5.6832z" fill="#FFFFFF" /></svg>