<?xml version="1.0" standalone="no"?><!DOCTYPE svg PUBLIC "-//W3C//DTD SVG 1.1//EN" "http://www.w3.org/Graphics/SVG/1.1/DTD/svg11.dtd"><svg class="icon" width="14px" height="14.00px" viewBox="0 0 1024 1024" version="1.1" xmlns="http://www.w3.org/2000/svg"><path d="M144.7936 0c-44.8 0-80 36.8128-80 81.6128v860.8c0 44.8 35.2 81.6128 80 81.6128h732.8a81.9712 81.9712 0 0 0 81.6128-81.6128V324.8128L656.7936 0h-512z" fill="#F5A622" /><path d="M656.768 0v233.6c0 25.6 17.6128 92.8 97.6128 92.8h204.8L656.768 0z" fill="#FFFFFF" /><path d="M289.8944 721.3056c-9.1904 0-17.2032-11.8016-24.0128-35.4048-2.6112-9.0112-5.8624-24.7552-9.7536-47.2576-10.1888 1.408-23.552 3.8912-40.0384 7.5008l-39.9104 8.2432c-4.992 13.1072-13.5424 32.256-25.6512 57.4464-3.2 5.6064-7.552 8.3968-13.056 8.3968-3.9936 0-7.5776-1.4592-10.7264-4.352s-4.736-6.5024-4.736-10.8032c0-4.8128 7.552-23.04 22.656-54.7584a16.2048 16.2048 0 0 1-2.56-9.0112c0-8.0896 4.8896-13.312 14.6944-15.5904a1238.656 1238.656 0 0 1 43.2128-73.8048c23.7056-37.888 38.4512-56.8576 44.2624-56.8576 7.9104 0 13.312 5.504 16.2048 16.512l9.4464 50.4064 22.3488 104.2432 8.5504 23.7056c2.8928 8.0896 4.352 13.4912 4.352 16.2048 0 4.3008-1.5616 7.9104-4.6592 10.8032s-6.6304 4.3776-10.624 4.3776z m-52.9408-171.4432L194.048 619.008a821.504 821.504 0 0 1 55.04-11.2384l-12.1344-57.9072zM347.2128 679.4496c-0.1024-4.1984 1.3312-7.6288 4.2752-10.2656s6.5792-3.968 10.88-3.968c4.8896 0 9.1904 2.7904 12.9024 8.3968 5.0944 7.6032 9.6512 12.7488 13.6448 15.4624 8.4992 5.6064 20.8384 8.3968 37.0432 8.3968a94.72 94.72 0 0 0 43.2128-10.0608c16.9984-8.6016 25.4976-20.5568 25.4976-35.84 0-12.5952-7.1424-22.5536-21.4528-29.8496-12.1088-6.2976-27.0592-9.7024-44.8512-10.1888-15.7952-0.5888-29.2608-4.0448-40.3456-10.3424-14.208-8.0896-21.2992-19.712-21.2992-34.7904 0-17.792 10.112-34.048 30.3104-48.7424 19.3024-13.9008 39.2448-20.8384 59.8528-20.8384 9.7024 0 20.6592 1.6384 32.8448 4.9408 16.2048 4.3008 24.2944 9.8048 24.2944 16.512 0 8.8064-4.5056 13.2096-13.4912 13.2096-3.9936 0-11.008-1.0752-20.992-3.2256s-17.7408-3.1744-23.2448-3.072c-15.5904 0.2048-28.8512 4.0448-39.7568 11.5456-11.2128 7.7056-16.7936 17.0496-16.7936 28.0576 0 8.2944 7.3984 14.1568 22.1952 17.5616 5.504 1.3056 16.1536 2.5088 31.9488 3.6096 22.912 1.6896 40.8064 8.9088 53.7088 21.6064 11.8016 11.5968 17.6896 25.7536 17.6896 42.4448 0 23.808-11.008 42.8032-32.9984 57.0112-19.0976 12.288-41.2416 18.4576-66.4576 18.4576a118.8608 118.8608 0 0 1-50.2528-10.496c-18.6368-8.7296-28.0832-20.5312-28.3648-35.5328zM602.0608 628.7616c-2.7904 0-8.9088-0.64-18.304-1.9456-0.7936 15.104-1.2032 41.5488-1.2032 79.36 0 3.9936-1.3056 7.3728-3.8912 10.1376s-5.8624 4.1216-9.7536 4.1216c-3.9936 0-7.296-1.3824-9.9072-4.1216s-3.8912-6.1184-3.8912-10.1376v-44.1088c0-14.6944 0.896-35.4048 2.688-62.1056 1.9968-28.9024 3.0976-49.6128 3.3024-62.1056v-20.7104c0-9.9072 0.5888-17.1008 1.792-21.6064 2.304-8.8064 7.1936-12.5952 14.6944-11.392 3.2-0.9984 7.7568-1.7408 13.6448-2.2528s13.1584-0.7424 21.76-0.7424c18.304 0 35.456 6.2464 51.456 18.7392 17.6128 13.7984 26.3936 30.4128 26.3936 49.792 0 24.8064-9.3952 44.544-28.2112 59.2384-16.768 13.2352-36.992 19.84-60.5696 19.84z m7.5008-119.1168c-4.4032 0-8.32 0.1024-11.776 0.3072s-6.3744 0.512-8.7808 0.896l-0.3072 27.5968-3.1488 59.6992 16.512 1.9456c16.7936 0 30.9504-4.2496 42.4448-12.7488 12.5952-9.2928 18.8928-21.8624 18.8928-37.6576 0-11.2128-5.9904-20.8384-17.9968-28.9536a63.5904 63.5904 0 0 0-35.84-11.0848zM906.8544 514.4576a592.9728 592.9728 0 0 0-30.8992 40.0384l-18.7392 27.5968c-7.296 10.3936-14.1568 19.1488-20.5568 26.24l32.9984 48.3072c13.1072 19.0976 24.7552 34.688 34.944 46.7968a16.2304 16.2304 0 0 1 4.0448 10.3424c0 4.1984-1.536 7.8592-4.5824 10.9568s-6.6816 4.6592-10.88 4.6592a15.36 15.36 0 0 1-10.6496-4.6592c-7.3984-6.9888-15.104-16.512-23.0912-28.4928l-20.096-30.8992-23.552-33.7408-51.6096 59.6992-27.5968 30.8992a15.1552 15.1552 0 0 1-10.9568 4.9408c-4.096 0-7.7056-1.5616-10.8032-4.6592s-4.6592-6.7584-4.6592-10.9568c0-3.6096 1.3056-6.9888 3.8912-10.1888l27.008-30.1568 56.2432-65.2544c-11.008-14.6944-22.7072-29.44-35.0976-44.2624l-17.408-23.552c-6.9888-9.3952-13.4912-16.5888-19.5072-21.6064-4.1984-3.5072-6.2976-7.552-6.2976-12.16 0-4.096 1.4592-7.7568 4.352-10.9568s6.5024-4.8128 10.8032-4.8128c8.4992 0 19.3536 9.0624 32.5376 27.1616 4.096 6.0928 10.3424 14.7456 18.7392 25.9584 11.392 13.5936 22.2464 27.2384 32.5376 40.96l34.2016-47.6928c22.1952-30.8992 36.608-46.3616 43.2128-46.3616 4.096 0 7.7056 1.5616 10.8032 4.6592s4.6592 6.7584 4.6592 10.9568a15.744 15.744 0 0 1-3.9936 10.24z" fill="#FFFFFF" /></svg>