<?xml version="1.0" standalone="no"?><!DOCTYPE svg PUBLIC "-//W3C//DTD SVG 1.1//EN" "http://www.w3.org/Graphics/SVG/1.1/DTD/svg11.dtd"><svg class="icon" width="14px" height="14.00px" viewBox="0 0 1024 1024" version="1.1" xmlns="http://www.w3.org/2000/svg"><path d="M145.621959 0c-44.79888 0-79.998 36.81188-79.998 81.61076v860.77848c0 44.79888 35.19912 81.61076 79.998 81.61076h732.781681a81.969151 81.969151 0 0 0 81.61076-81.61076V324.80468L657.60916 0h-511.987201z" fill="#F45676" /><path d="M657.60916 0v233.59416c0 25.59936 17.61236 92.79768 97.61036 92.79768h204.79488L657.60916 0z" fill="#FFFFFF" /><path d="M244.717082 729.530562c0-2.892728 0.358391-6.374241 1.049574-10.41894s1.049574-9.062173 1.049574-15.078023c-3.302317 2.40634-6.937427 5.247869-10.956526 8.550186s-8.140596 6.451039-12.441289 9.446164-8.575786 5.529462-12.82528 7.577411-8.217395 3.071923-11.929302 3.071923c-2.995125 0-5.862253-0.460788-8.550186-1.356766s-4.991875-2.099148-6.911827-3.60951c-5.299068-4.172696-9.113372-8.370991-11.468513-12.569286s-3.532712-9.113372-3.532712-14.719632c0-2.508737 0.230394-5.094273 0.665583-7.807804s1.126372-5.811055 2.02235-9.292568c3.788705-15.794805 10.316542-30.41204 19.58351-43.877303s20.735482-24.933777 34.431139-34.431139c5.299068-3.711907 10.598135-6.067048 15.897203-7.116622s10.546936-1.58716 15.743606-1.587161c2.303942 0 4.863878 0.153596 7.731007 0.460789s5.427064 0.588785 7.731007 0.895977c2.303942-0.511987 4.172696-0.844779 5.631859-1.049573s2.969526-0.307192 4.582285-0.307193c2.995125 0 5.503862 0.40959 7.500613 1.20317s3.60951 1.868753 4.81268 3.225519 2.073548 2.892728 2.636734 4.659084 0.81918 3.58391 0.819179 5.478263c0 2.611135-0.40959 5.068673-1.20317 7.423814l-2.406339 7.116623-19.788306 79.050823c-0.40959 4.300692-0.742381 8.242994-1.049574 11.852504s-0.895978 6.937427-1.791955 10.060548l-1.126372 3.379116c-0.460788 1.356766-1.177571 2.662333-2.175945 3.891103s-2.252744 2.329542-3.737507 3.225519-3.455914 1.356766-5.862253 1.356766c-3.097523 0-5.58066-0.204795-7.423815-0.588785s-3.276718-0.972776-4.275093-1.715157-1.638359-1.638359-1.945551-2.687933-0.486388-2.303942-0.486388-3.711907z m-49.816355-45.285268c-0.40959 1.407965-0.81918 3.404715-1.279968 5.99025s-0.665583 5.19667-0.665583 7.807805c0 2.687933 0.40959 5.119872 1.20317 7.270218s2.559936 3.225519 5.247869 3.22552c4.198295 0 8.114997-0.921577 11.775705-2.764731s7.065423-4.070298 10.265344-6.681433c4.300692-3.507112 8.678183-7.423814 13.132472-11.775706s8.652584-8.934177 12.594885-13.721257 7.449414-9.727757 10.495737-14.770831a61.59206 61.59206 0 0 0 8.703783-25.138571c0.537587-3.814305 0.81918-7.19342 0.819179-10.188545 0-1.305567-0.307192-2.585535-0.895977-3.814305s-1.740756-1.868753-3.455914-1.868753c-4.889478 0-9.830154 0.947176-14.770831 2.841529s-9.727757 4.454289-14.335641 7.654208-8.985375 6.963026-13.132472 11.314917-7.935802 9.010975-11.314917 13.951652-6.323042 10.060548-8.780581 15.308417-4.300692 10.342141-5.60626 15.359616zM346.858529 602.480938c0.40959-1.61276 0.972776-2.969526 1.715157-4.121497a11.826904 11.826904 0 0 1 4.735881-4.275093 4.607885 4.607885 0 0 1 1.638359-0.460789c1.100772 0 2.40634 0.127997 3.891103 0.383991s2.943926 0.486388 4.351891 0.665583l4.659084 0.895978c2.611135 0.102397 4.479888 1.151971 5.631859 3.148721s1.715157 4.40309 1.715157 7.19342a20.607485 20.607485 0 0 1-0.895978 6.143847c-3.404715 12.492488-6.502237 23.372216-9.292567 32.613584l-7.116622 23.62821c-1.945551 6.502237-3.455914 11.801305-4.505488 15.897202s-1.58716 7.19342-1.58716 9.292568 0.281593 4.454289 0.81918 7.039824 1.382365 5.017475 2.483137 7.270218 2.508737 4.121497 4.198296 5.631859 3.737507 2.252744 6.143846 2.252744c4.198295 0 8.447789-1.305567 12.748481-3.891103s8.39659-5.785455 12.287693-9.522962 7.423814-7.756606 10.572536-12.0061 5.734257-8.0126 7.731006-11.314917l3.891103-6.758231c2.40634-4.198295 4.633484-9.036574 6.681433-14.463638s3.839904-10.930927 5.401465-16.434789 2.867128-10.674933 3.967901-15.513212 1.945551-8.729382 2.559936-11.62211l3.916702-19.916302c0.79358-3.788705 2.022349-6.425439 3.686308-7.884603s4.428689-2.175946 8.319792-2.175945c2.508737 0 4.761481 0.281593 6.758231 0.819179s3.711907 1.535962 5.094272 2.918327 2.457539 3.276718 3.148722 5.631859 1.049574 5.375866 1.049574 9.062174c0 4.300692-0.665583 9.574161-2.02235 15.820404s-2.81593 12.518087-4.428689 18.81553c-0.895978 3.711907-1.817555 7.628609-2.764731 11.775705s-1.791955 8.294193-2.559936 12.441289-1.356766 8.089398-1.791955 11.852504-0.665583 7.116622-0.665584 10.137347c0 5.094273 0.179196 10.188545 0.537587 15.308417s0.537587 10.495738 0.537586 16.204395c0 2.611135-0.076798 4.889478-0.230394 6.911827s-0.38399 3.507112-0.665583 4.505487c-1.100772 3.891103-2.534337 6.80943-4.275093 8.703783s-4.735882 2.841529-8.934177 2.841529c-2.892728 0-5.19667-0.332792-6.911827-0.972776s-3.020724-1.535962-3.967901-2.636734-1.58716-2.329542-1.868753-3.686308-0.511987-2.713532-0.588785-4.121497l-1.638359-28.338491-1.356767 0.460788c-3.302317 4.198295-6.911827 8.908577-10.80293 14.105248s-8.191795 10.060548-12.902077 14.540436-9.830154 8.268593-15.385215 11.314917-11.570911 4.582285-18.073148 4.582286c-1.305567 0-2.969526-0.332792-5.017475-0.972776a56.062598 56.062598 0 0 1-12.671683-5.862253 34.123947 34.123947 0 0 1-4.81268-3.532712c-5.503862-5.094273-9.394965-10.854129-11.698907-17.253969s-3.455914-12.902077-3.455914-19.506712c0-3.711907 0.307192-7.398215 0.895978-11.110122a159.20242 159.20242 0 0 1 4.735881-20.479488 147.708307 147.708307 0 0 0 2.329542-8.166196 2452.777081 2452.777081 0 0 1 9.062173-34.789531l2.918327-11.033324 2.073549-7.987zM489.344566 684.526887c1.305567-5.401465 3.020724-10.80293 5.171071-16.204395a109.078873 109.078873 0 0 1 34.866328-46.027649c3.9935-3.19992 8.217395-6.220644 12.671684-9.062174s8.985375-5.324667 13.56766-7.423814 9.21577-3.763106 13.874854-5.017475 9.21577-1.868753 13.721257-1.868753a37.682258 37.682258 0 0 1 16.050798 3.148721l8.0126-28.210495c4.326292-15.308417 9.676558-36.607085 15.974001-63.896002 1.100772-2.687933 2.662333-4.940676 4.659083-6.758231s4.40309-2.687933 7.19342-2.687933c1.99675 0 3.942301 0.179196 5.862254 0.537587s3.60951 1.049574 5.094272 2.099147 2.687933 2.483138 3.60951 4.275093 1.356766 4.147096 1.356766 7.039824l-30.156046 120.444989c-0.895978 3.404715-1.740756 7.987-2.559936 13.721257s-1.561561 11.826904-2.252744 18.226744-1.254369 12.722882-1.638359 18.969126-0.588785 11.622109-0.588785 16.127597c0 5.60626-0.639984 11.161321-1.945551 16.639584-0.588785 2.40634-1.228769 4.428689-1.868753 6.067048s-1.535962 2.995125-2.636735 4.044699-2.483138 1.791955-4.121497 2.252744-3.737507 0.665583-6.220644 0.665583c-2.892728 0-5.145471-0.307192-6.758231-0.895977s-2.79033-1.433564-3.60951-2.483138-1.279968-2.252744-1.433564-3.60951-0.255994-2.79033-0.307192-4.351891-0.153596-3.148721-0.307193-4.81268-0.563186-3.225519-1.279968-4.735882c-1.20317 0.79358-2.841529 1.843154-4.940676 3.148722l-6.374241 3.967901c-2.150346 1.331167-4.172696 2.611135-6.067048 3.737506l-4.198295 2.483138c-2.303942 1.305567-4.889478 2.662333-7.807805 4.121497s-6.01585 2.79033-9.369366 4.044699-6.860628 2.278343-10.495737 3.071923-7.321417 1.20317-11.033324 1.20317c-4.505487 0-8.882978-0.742381-13.132472-2.252744a32.434389 32.434389 0 0 1-19.404315-18.687532 42.930127 42.930127 0 0 1-2.995125-16.716383c0-2.303942 0.127997-4.582285 0.38399-6.835029s0.742381-4.684683 1.433564-7.500612z m25.957751-1.20317c-0.79358 2.995125-1.20317 5.887853-1.203169 8.703782 0 2.892728 0.255994 5.631859 0.742381 8.166196s1.433564 4.78708 2.764731 6.681433 3.148721 3.430314 5.401465 4.582286 5.171071 1.715157 8.78058 1.715157c1.99675 0 4.147096-0.358391 6.451039-1.049574s4.582285-1.58716 6.835029-2.636734 4.351891-2.150346 6.297443-3.302318a151.394615 151.394615 0 0 0 15.59001-10.418939c3.251119-2.40634 6.169446-4.991875 8.78058-7.807805s4.863878-5.913452 6.83503-9.369366 3.532712-7.423814 4.735881-11.929301c0.998375-3.9935 1.868753-7.654209 2.636734-10.956527s1.433564-6.527837 2.02235-9.676558 1.151971-6.374241 1.638359-9.676558 0.998375-6.937427 1.510362-10.956526c-0.511987-0.588785-1.177571-1.177571-2.022349-1.715157s-2.124747-0.81918-3.814305-0.819179c-3.9935 0-8.39659 0.665583-13.20927 2.022349s-9.727757 3.276718-14.770831 5.785455-10.00935 5.555061-14.847628 9.138972-9.343766 7.628609-13.490863 12.082898-7.782205 9.318167-10.879728 14.617234-5.375866 10.930927-6.783831 16.81878zM658.40274 708.539087c1.510362-5.811055 3.302317-12.543686 5.401465-20.249094l6.681433-24.447389c2.355141-8.601385 4.735882-17.407565 7.116622-26.39294s4.659084-17.740356 6.758231-26.239344a12.825279 12.825279 0 0 1 3.60951-4.863879 15.359616 15.359616 0 0 1 10.188545-3.532711c1.689558 0 3.353516 0.179196 4.940677 0.537586s3.020724 0.870378 4.275093 1.587161 2.252744 1.61276 2.995125 2.76473 1.126372 2.483138 1.126372 3.967901v0.972776a2.969526 2.969526 0 0 1-0.153597 0.972776l-4.198295 15.897202c-4.710282 17.791555-9.471763 35.659909-14.335641 53.553861s-9.574161 35.839104-14.182046 53.861054c-0.204795 0.588785-0.511987 1.356766-0.895977 2.252743s-0.947176 1.791955-1.638359 2.687933-1.561561 1.638359-2.559936 2.252744-2.201545 0.895978-3.60951 0.895978c-2.611135 0-4.889478-0.537587-6.911827-1.587161a17.151571 17.151571 0 0 1-9.292568-14.617234v-1.356766c0-0.40959 0.102397-0.844779 0.307192-1.356767l4.377491-17.56116z m39.141421-155.260119c0.511987-2.099148 1.407965-4.659084 2.687933-7.654209s3.60951-5.708657 6.911827-8.089397a34.78953 34.78953 0 0 1 10.80293-3.60951c0.998375 0 2.022349 0.358391 3.071924 1.049574s1.971151 1.459164 2.76473 2.252743c0.998375 0.998375 1.945551 2.099148 2.841529 3.302318 2.508737 0.204795 4.121497 1.100772 4.863879 2.687933s1.126372 3.507112 1.126372 5.708657c0 1.61276-0.153596 3.046324-0.460789 4.351891l-0.742381 3.148721c-0.588785 2.099148-1.740756 4.0191-3.455914 5.785456s-3.660708 3.251119-5.862253 4.505487-4.505487 2.227144-6.911828 2.918327-4.505487 1.049574-6.297442 1.049574c-2.303942 0-4.070298-0.40959-5.324667-1.20317s-2.81593-2.508737-4.735882-5.094273c-1.100772-1.510362-1.715157-2.662333-1.868753-3.532711a12.850879 12.850879 0 0 1 0-5.094273c0.153596-0.844779 0.38399-1.663958 0.588785-2.483138zM737.888753 678.536637c1.510362-6.092648 3.814305-12.569286 6.963026-19.429915s7.270218-13.772456 12.364491-20.78668 11.21252-13.849254 18.38034-20.556286 15.436414-12.953276 24.831379-18.738732c1.510362-0.895978 3.788705-1.868753 6.911828-2.918327s6.297443-1.663958 9.59976-1.868753c3.891103-4.198295 9.138972-6.297443 15.743606-6.297443 7.807805 0 14.38684 1.971151 19.737106 5.913453s9.778956 9.318167 13.286068 16.127596c1.100772 2.201545 2.124747 4.351891 3.071924 6.451039s1.740756 4.326292 2.406339 6.681433 1.177571 4.863878 1.587161 7.577411 0.588785 5.759856 0.588785 9.138971c0 7.910202-1.254369 15.948401-3.737507 24.140197s-6.041449 16.204395-10.649333 24.012199-10.162946 15.282818-16.716382 22.42504-13.823654 13.567661-21.836255 19.276318c-5.401465 3.891103-11.366116 6.937427-17.919552 9.062173s-13.874853 3.225519-21.96425 3.22552c-7.705407 0-14.38684-1.023974-20.0187-3.071923s-10.342141-4.966276-14.105247-8.780581-6.553436-8.345391-8.39659-13.644459-2.764731-11.21252-2.764731-17.689158c-0.051199-6.297443 0.844779-13.055674 2.636734-20.249093z m24.908177 1.945551a53.169871 53.169871 0 0 0-1.663958 12.441289c0 3.302317 0.435189 6.374241 1.279968 9.21577a18.38034 18.38034 0 0 0 11.238119 12.159696c2.841529 1.151971 6.323042 1.715157 10.418939 1.715157 7.60301 0 14.668433-1.919952 21.22187-5.785456s12.364491-8.678183 17.484363-14.463638 9.369366-12.031699 12.825279-18.661934 5.862253-12.774081 7.270218-18.38034c0.895978-3.507112 1.663958-6.80943 2.329542-9.906952s0.972776-5.939052 0.972776-8.550187-0.486388-5.017475-1.433565-7.270218-2.175946-4.78708-3.686307-7.57741c-0.895978-1.689558-1.791955-3.481513-2.687933-5.324667s-1.689558-3.686308-2.40634-5.478263c-0.79358 1.407965-1.638359 2.636734-2.559936 3.686307s-2.252744 1.99675-4.044699 2.841529-4.249494 1.61276-7.347016 2.329542-7.142221 1.305567-12.159696 1.791955c-3.302317 1.100772-6.655834 2.79033-10.060549 5.094273s-6.732632 4.991875-9.98375 8.089398a109.20687 109.20687 0 0 0-17.253969 21.093872c-2.355141 3.763106-4.40309 7.423814-6.143846 11.033325s-2.918327 6.911827-3.60951 9.906952z" fill="#FFFFFF" /></svg>