<?xml version="1.0" standalone="no"?><!DOCTYPE svg PUBLIC "-//W3C//DTD SVG 1.1//EN" "http://www.w3.org/Graphics/SVG/1.1/DTD/svg11.dtd"><svg class="icon" width="14px" height="14.00px" viewBox="0 0 1024 1024" version="1.1" xmlns="http://www.w3.org/2000/svg"><path d="M144.7936 0c-44.8 0-80 36.8128-80 81.6128v860.8c0 44.8 35.2 81.6128 80 81.6128h732.8a81.9712 81.9712 0 0 0 81.6128-81.6128V324.8128L656.7936 0h-512z" fill="#75BB2A" /><path d="M656.768 0v233.6c0 25.6 17.6128 92.8 97.6128 92.8h204.8L656.768 0z" fill="#FFFFFF" /><path d="M417.8944 721.3056c-9.1904 0-17.2032-11.8016-24.0128-35.4048-2.6112-9.0112-5.8624-24.7552-9.7536-47.2576-10.1888 1.408-23.552 3.8912-40.0384 7.5008l-39.9104 8.2432c-4.992 13.1072-13.5424 32.256-25.6512 57.4464-3.2 5.6064-7.552 8.3968-13.056 8.3968-3.9936 0-7.5776-1.4592-10.7264-4.352s-4.736-6.5024-4.736-10.8032c0-4.8128 7.552-23.04 22.656-54.7584a16.2048 16.2048 0 0 1-2.56-9.0112c0-8.0896 4.8896-13.312 14.6944-15.5904a1238.656 1238.656 0 0 1 43.2128-73.8048c23.7056-37.888 38.4512-56.8576 44.2624-56.8576 7.9104 0 13.312 5.504 16.2048 16.512l9.4464 50.4064 22.3488 104.2432 8.5504 23.7056c2.8928 8.0896 4.352 13.4912 4.352 16.2048 0 4.3008-1.5616 7.9104-4.6592 10.8032s-6.6304 4.3776-10.624 4.3776z m-52.9408-171.4432L322.048 619.008a821.504 821.504 0 0 1 55.04-11.2384l-12.1344-57.9072zM651.008 511.1552a148.3776 148.3776 0 0 0-15.1552 29.2608l-11.392 32.8448-40.3456 109.056c-4.7104 12.8-10.1888 25.2928-16.512 37.504-3.2 5.9904-7.7056 9.0112-13.4912 9.0112-7.7056 0-13.1072-3.8912-16.2048-11.6992-12.1088-30.4128-25.5488-74.1376-40.3456-131.2512l-11.8528-41.2416c-5.888-20.8128-8.8576-34.4064-8.8576-40.8064 0-4.5056 1.6128-8.192 4.8128-11.1104a14.8992 14.8992 0 0 1 10.496-4.0448c7.6032 0 12.4928 4.096 14.6944 12.288l5.5552 26.112 14.4128 50.9952c9.6 37.1968 18.944 69.248 28.0576 96.1536l0.896-2.4064 40.192-108.9024 12.7488-36.7616c5.7088-14.7968 11.7504-26.0096 18.1504-33.6128a14.7712 14.7712 0 0 1 11.6992-5.9904c3.9936 0 7.5776 1.536 10.7264 4.5824s4.736 6.7328 4.736 11.0336a16.4096 16.4096 0 0 1-3.0208 8.9856zM798.3104 529.8944c-6.4 0-14.4384-0.64-24.1408-1.9456l-24.1664-3.1488a1058.5088 1058.5088 0 0 0-3.456 83.4048c0 6.9888 0.2048 15.6416 0.5888 25.9584s0.5888 18.944 0.5888 25.9584c0 9.3952-0.3584 17.9456-1.0496 25.6512l47.2576-0.5888c4.1984 0 7.7312 1.4848 10.5728 4.4288s4.2752 6.5792 4.2752 10.88c0 4.4032-1.4336 8.064-4.2752 11.0336s-6.3744 4.4288-10.5728 4.4288c-5.6064 0-14.0032 0.128-25.1904 0.384s-19.6096 0.384-25.1904 0.384c-6.6048 0-16.4864 0.9216-29.6192 2.7648s-23.0656 2.7648-29.7728 2.7648c-4.1984 0-7.7312-1.4848-10.5728-4.4288s-4.2752-6.5792-4.2752-10.88 1.4336-7.9616 4.2752-10.9568 6.3744-4.5056 10.5728-4.5056c6.5024 0 17.2544-1.0496 32.256-3.1488 0.9984-8.0896 1.5104-17.3568 1.5104-27.7504 0-6.912-0.3328-15.3344-0.9728-25.2672s-0.9728-18.3296-0.9728-25.1136c0-23.0912 1.408-51.9424 4.1984-86.5536l-19.5072 0.5888-19.5072 0.4608c-4.3008 0-7.9104-1.4592-10.8032-4.352s-4.352-6.6048-4.352-11.1104c0-9.2928 4.7104-14.4128 14.1056-15.3088 8.0896-0.7936 23.2448-1.2032 45.44-1.2032 19.8912 0 44.8512 2.1504 74.8544 6.4512 8.9088 1.3056 13.3376 6.656 13.3376 16.0512 0 4.7104-1.6896 8.448-5.0944 11.2384a16.64 16.64 0 0 1-10.3424 3.4304z" fill="#FFFFFF" /></svg>