<?xml version="1.0" standalone="no"?><!DOCTYPE svg PUBLIC "-//W3C//DTD SVG 1.1//EN" "http://www.w3.org/Graphics/SVG/1.1/DTD/svg11.dtd"><svg class="icon" width="14px" height="14.00px" viewBox="0 0 1024 1024" version="1.1" xmlns="http://www.w3.org/2000/svg"><path d="M144.7936 0c-44.8 0-80 36.8128-80 81.6128v860.8c0 44.8 35.2 81.6128 80 81.6128h732.8a81.9712 81.9712 0 0 0 81.6128-81.6128V324.8128L656.7936 0h-512z" fill="#A65DA2" /><path d="M656.768 0v233.6c0 25.6 17.6128 92.8 97.6128 92.8h204.8L656.768 0z" fill="#FFFFFF" /><path d="M337.6896 710.8096c-22.5024 8.8064-51.2512 13.2096-86.2464 13.2096-4.3008 0-8.3712-2.0224-12.2368-6.0672s-5.7856-8.2176-5.7856-12.5184V661.76c0-14.3104 0.896-34.688 2.688-61.2096a1306.624 1306.624 0 0 0 3.3024-62.1056c-0.1024-9.1904 0.4608-22.912 1.6384-41.088 0.6912-4.992 2.3552-8.2944 4.9408-9.9072 13.5936-4.1984 29.056-6.2976 46.3616-6.2976 17.6128 0 34.5088 5.9904 50.688 17.9968 18.688 13.7984 28.0576 30.848 28.0576 51.1488 0 25.7024-10.0096 45.952-30.0032 60.7488 15.0016 6.4 26.2144 13.4912 33.664 21.2992s11.1872 16.3072 11.1872 25.4976c0 12.1088-6.5536 23.808-19.6608 35.0976a95.6672 95.6672 0 0 1-28.5952 17.8688z m-28.4928-78.8992l-15.8976-2.56c-1.3056 0-3.2768 0.0768-5.9136 0.2304s-4.6848 0.2304-6.0672 0.2304a119.04 119.04 0 0 1-17.2544-1.3568c-0.5888 12.5952-0.896 23.8592-0.896 33.7408v31.0528c26.1888-0.896 47.5392-4.608 64.0512-11.1104 6.9888-2.688 13.696-6.912 20.096-12.5952 6.0928-5.1968 9.1392-9.088 9.1392-11.6992 0-4.7104-6.4-10.0096-19.2-15.8976a147.8144 147.8144 0 0 0-28.0576-10.0352z m-16.7936-120.1664c-10.9056 0-18.56 0.3584-22.9376 1.0496l-0.3072 26.24-2.9952 58.0608c14.208 1.2032 21.8112 1.7408 22.8096 1.6384 15.104-1.2032 27.4432-5.888 37.0432-14.1056 10.2912-8.9088 15.4624-20.352 15.4624-34.3552 0-9.4976-5.248-18.304-15.744-26.3936s-21.632-12.1344-33.3312-12.1344zM585.9584 721.3056c-9.1904 0-17.2032-11.8016-24.0128-35.4048-2.6112-9.0112-5.8624-24.7552-9.7536-47.2576-10.1888 1.408-23.552 3.8912-40.0384 7.5008l-39.9104 8.2432c-4.992 13.1072-13.5424 32.256-25.6512 57.4464-3.2 5.6064-7.552 8.3968-13.056 8.3968-3.9936 0-7.5776-1.4592-10.7264-4.352s-4.736-6.5024-4.736-10.8032c0-4.8128 7.552-23.04 22.656-54.7584a16.2048 16.2048 0 0 1-2.56-9.0112c0-8.0896 4.8896-13.312 14.6944-15.5904a1238.656 1238.656 0 0 1 43.2128-73.8048c23.7056-37.888 38.4512-56.8576 44.2624-56.8576 7.9104 0 13.312 5.504 16.2048 16.512l9.4464 50.4064 22.3488 104.2432 8.5504 23.7056c2.8928 8.0896 4.352 13.4912 4.352 16.2048 0 4.3008-1.5616 7.9104-4.6592 10.8032s-6.6304 4.3776-10.624 4.3776z m-52.9664-171.4432l-42.9056 69.1456a821.504 821.504 0 0 1 55.04-11.2384l-12.1344-57.9072zM827.4432 527.36c-7.3984 0-18.7904-0.5888-34.2016-1.792a430.6688 430.6688 0 0 0-34.2016-1.5104h-10.6496c0.3072 13.7984 1.6384 36.1984 4.0448 67.2 2.2016 28.9024 3.3024 51.3536 3.3024 67.3536 0 3.5072 0.3584 8.8064 1.0496 15.8976s1.0496 12.4416 1.0496 16.0512c0 6.8096-1.1008 12.6464-3.3024 17.5616-2.7904 6.6048-7.1424 9.9072-13.056 9.9072-3.9936 0-7.6032-1.408-10.8032-4.1984s-4.8128-6.4-4.8128-10.8032c0-1.5104 0.256-3.7376 0.7424-6.7584s0.7424-5.248 0.7424-6.7584c0-4.8896-0.3328-12.2624-0.9728-22.0416s-0.9728-17.2032-0.9728-22.1952c0-14.3104-1.152-34.4064-3.456-60.288a1129.6256 1129.6256 0 0 1-4.0448-60.288l-13.5936 0.1024c-21.888 0-39.0912-1.6128-51.6096-4.8128-8.0896-2.0992-12.16-7.04-12.16-14.848a16.384 16.384 0 0 1 3.8912-10.8032 13.3632 13.3632 0 0 1 11.5456-4.8128c3.5072 0.2048 11.4944 1.1008 24.0128 2.688 10.0096 1.2032 18.0992 1.792 24.2944 1.792 5.9904 0 15.104-0.128 27.2896-0.384s21.2992-0.384 27.2896-0.384c7.7056 0 19.1232 0.5376 34.2784 1.6384s26.5728 1.6384 34.2784 1.6384c4.3008 0 7.9104 1.4848 10.8032 4.4288s4.352 6.6304 4.352 11.0336c0 4.3008-1.4592 7.936-4.352 10.88s-6.4768 4.5056-10.7776 4.5056z" fill="#FFFFFF" /></svg>