<?xml version="1.0" standalone="no"?><!DOCTYPE svg PUBLIC "-//W3C//DTD SVG 1.1//EN" "http://www.w3.org/Graphics/SVG/1.1/DTD/svg11.dtd"><svg class="icon" width="14px" height="14.00px" viewBox="0 0 1024 1024" version="1.1" xmlns="http://www.w3.org/2000/svg"><path d="M847.872 240.128v688c0 26.56-21.408 48-48 48h-576c-26.56 0-48-21.44-48-48v-832c0-26.592 21.44-48 48-48h432z" fill="#E9EDED" /><path d="M160 768.128v160c0 35.456 28.544 64 64 64h576c35.456 0 64-28.544 64-64v-160H160z" fill="#25B39E" /><path d="M847.872 240.128h-144c-26.56 0-48-21.44-48-48v-144" fill="#25B39E" /><path d="M571.424 313.888a16 16 0 0 0-11.104 4.672l-180.192 180.16-0.8 0.832a16 16 0 0 0-0.96 1.088 16 16 0 0 0-0.192 0.16 16 16 0 0 0-0.224 0.32 16 16 0 0 0-0.64 0.96 16 16 0 0 0-0.8 1.344 16 16 0 0 0-0.704 1.44 16 16 0 0 0-0.384 1.024 16 16 0 0 0-0.16 0.64 16 16 0 0 0-0.32 1.216 16 16 0 0 0 0 0.192l-22.624 112.96a16 16 0 0 0 18.816 18.784l111.872-22.368 1.248-0.256a16 16 0 0 0 0.32-0.064 16 16 0 0 0 2.56-0.8 16 16 0 0 0 0.192-0.064 16 16 0 0 0 0.224-0.128 16 16 0 0 0 2.56-1.44 16 16 0 0 0 2.336-1.888l0.128-0.16 180.928-180.8a16 16 0 0 0 0-22.656l-90.56-90.496a16 16 0 0 0-11.52-4.672z m0.192 38.624l22.624 22.624-158.368 158.368-22.624-22.624 158.4-158.4z m45.248 45.248l22.72 22.624-158.464 158.368-22.624-22.624 158.4-158.4z m-216.416 145.568l48.224 48.224-60.288 12.064 12.064-60.288z" fill="#25B39E" /><path d="M432 799.552a16 16 0 0 0-15.744 16.256v126.816a16 16 0 0 0 0.256 4.32 16 16 0 0 0 0 0.064 16 16 0 0 0 0.352 1.44 16 16 0 0 0 0 0.064 16 16 0 0 0 0.128 0.416 16 16 0 0 0 0.448 1.12 16 16 0 0 0 0.864 1.824 16 16 0 0 0 0.64 0.992 16 16 0 0 0 0.192 0.32 16 16 0 0 0 0.736 0.96 16 16 0 0 0 0.8 0.864 16 16 0 0 0 0.384 0.416 16 16 0 0 0 0.192 0.192 16 16 0 0 0 1.056 0.896 16 16 0 0 0 0.384 0.32 16 16 0 0 0 1.12 0.736 16 16 0 0 0 2.432 1.248 16 16 0 0 0 0.896 0.32 16 16 0 0 0 5.376 0.864h31.936a16 16 0 0 0 4.736-0.672c41.888-3.52 75.52-37.28 75.52-79.328 0-41.92-33.472-75.68-75.2-79.328a16 16 0 0 0-4.8-0.672h-28.704a16 16 0 0 0-4-0.448z m158.816 0a16 16 0 0 0-1.568 0.256 16 16 0 0 0-0.192 0.064 16 16 0 0 0-12.608 18.24v59.136a16 16 0 0 0 0 5.12v61.44a16 16 0 1 0 32 0v-48h5.664l27.648 55.2a16 16 0 1 0 28.608-14.336l-23.488-47.104a48 48 0 0 0 25.376-42.016c0-25.024-19.68-45.632-44.256-47.616a16 16 0 0 0-3.552-0.384h-32a16 16 0 0 0-1.632 0zM334.368 800a16 16 0 0 0-3.36 0.672C289.376 804.384 256 838.112 256 880c0 42.08 33.696 75.904 75.616 79.328a16 16 0 0 0 4.64 0.672h32a16 16 0 1 0 0-32h-29.824C309.888 928 288 906.56 288 880s21.888-48 50.432-48h29.568a16 16 0 1 0 0-32h-32a16 16 0 0 0-1.6 0z m274.08 31.552h16a15.616 15.616 0 0 1 15.808 16c0 9.152-6.88 16-16 16v0.064a16 16 0 0 0-1.568 0.064 16 16 0 0 0-1.056 0.128h-13.184v-32.256zM448.256 832h13.984c28.576 0 50.432 21.44 50.432 48s-21.856 48-50.432 48h-13.984v-96z" fill="#E9EDED" /></svg>