<?xml version="1.0" standalone="no"?><!DOCTYPE svg PUBLIC "-//W3C//DTD SVG 1.1//EN" "http://www.w3.org/Graphics/SVG/1.1/DTD/svg11.dtd"><svg class="icon" width="14px" height="14.00px" viewBox="0 0 1024 1024" version="1.1" xmlns="http://www.w3.org/2000/svg"><path d="M901.63125 926.725c0 12.8-5.125 25.0875-14.3375 34.3-9.225 9.2125-21.5 14.3375-34.3125 14.3375H170.49375c-12.8 0-25.6-5.125-34.3-14.3375-9.2125-9.225-14.3375-21.5-14.3375-34.3V48.6375c0-12.8 5.1125-25.6 14.3375-34.3C144.89375 5.125 157.70625 0 170.49375 0H589.31875c12.8 0 25.6 5.125 34.8125 14.3375l263.675 263.6875c9.2125 9.2125 14.3375 21.5 14.3375 34.8125v613.8875h-0.5125z" fill="#EBECF0" /><path d="M901.63125 926.725v48.6375c0 12.8-5.125 25.6-14.3375 34.3-9.225 9.225-21.5 14.3375-34.3125 14.3375H170.49375c-27.1375 0-48.6375-22.0125-48.6375-48.6375v-48.6375c0 12.8 5.1125 25.0875 14.3375 34.3 9.2125 9.2125 21.5 14.3375 34.3 14.3375h682.5c27.1375 0 48.6375-22.0125 48.6375-48.6375z" fill="#C1C7D0" /><path d="M121.85625 536.575v-97.8L24.06875 536.575h97.7875z m779.775 0l1.025-97.8 97.275 97.8h-98.3z" fill="#005C9B" /><path d="M901.63125 312.8375v6.65H637.94375c-27.1375 0-48.6375-22.0125-48.6375-48.6375V0c12.8 0 25.6 5.125 34.8125 14.3375L888.31875 278.025c8.7 9.2125 13.825 21.5 13.3125 34.8125z" fill="#C1C7D0" /><path d="M738.19375 657.9625c5.95-4.475 8.925-11.6 8.925-21.3625s-2.675-16.375-8.0125-20.75c-5.3375-4.375-13.7125-6.5625-25.1-6.5625h-25.025v55.3875h22.7375c11.7 0 20.525-2.2375 26.475-6.7125zM717.05625 697.475h-28.075v58.75h28.075c28.5875 0 42.875-9.7125 42.875-29.15s-14.2875-29.6-42.875-29.6z" fill="#2081D1" /><path d="M24.58125 536.575v243.2c0 13.3125 5.1125 25.6 14.3375 34.8125 8.7 9.225 21.5 14.3375 34.3 14.3375h877.575c26.625 0 48.6375-21.5 48.6375-48.6375V536.575H24.58125z m384.7 236.8875c-23.1875 12.4125-50.4125 18.6125-81.6375 18.6125-24.1125 0-45.0875-4.775-62.9375-14.3375-17.85-9.5625-31.5125-22.6375-40.975-39.2125-9.4625-16.575-14.1875-35.15-14.1875-55.7 0-22.075 5.1125-41.4 15.3375-57.9875 10.225-16.575 24.3875-29.3 42.5-38.15 18.1-8.85 38.5-13.275 61.1875-13.275 26.25 0 52.7375 5.4875 79.5 16.475v49.4375c-12.3125-7.725-24.0875-13.475-35.325-17.2375-11.2375-3.7625-22.9125-5.65-35.025-5.65-15.4625 0-28.7125 3.075-39.75 9.2375-11.0375 6.15-19.35 14.3375-24.95 24.5625-5.6 10.225-8.3875 21.3875-8.3875 33.4875s2.85 22.8375 8.55 32.8125c5.7 9.975 13.9625 17.875 24.8 23.725s23.675 8.775 38.525 8.775c24.925 0 49.1875-7.8375 72.7875-23.5v47.9125z m186.7625 15.875H447.73125V576.175h145.875v38.15H501.44375v46.85h88.0375v38.15H501.44375v51.875h94.6v38.15z m194.775-13.425c-15.4125 8.95-36.45 13.425-63.1 13.425h-92.4625V576.175h90.4875c22.5875 0 40.3375 4.65 53.25 13.9625 12.9125 9.3125 19.375 21.85 19.375 37.6125 0 10.475-2.775 19.8625-8.3125 28.15s-13 14.325-22.35 18.075c15.5625 4.7875 27.1625 11.975 34.7875 21.5875 7.625 9.6125 11.45 20.975 11.45 34.1 0 21.875-7.7125 37.2875-23.1125 46.2375z" fill="#2081D1" /><path d="M297.96875 740.275c-10.8375-5.85-19.1-13.75-24.8-23.725-5.7-9.9625-8.55-20.9-8.55-32.8125s2.8-23.275 8.3875-33.4875c5.5875-10.225 13.9125-18.4125 24.95-24.5625 11.0375-6.15 24.2875-9.2375 39.75-9.2375 12.1 0 23.775 1.8875 35.025 5.65 11.2375 3.7625 23.0125 9.5125 35.325 17.2375v-49.4375c-26.75-10.9875-53.25-16.475-79.5-16.475-22.6875 0-43.0875 4.425-61.1875 13.275-18.1125 8.85-32.275 21.5625-42.5 38.15s-15.3375 35.9125-15.3375 57.9875c0 20.55 4.725 39.1125 14.1875 55.7 9.4625 16.5875 23.1125 29.65 40.975 39.2125 17.85 9.5625 38.8375 14.3375 62.9375 14.3375 31.225 0 58.4375-6.2 81.6375-18.6125v-47.9125c-23.6 15.6625-47.8625 23.5-72.7875 23.5-14.85 0-27.7-2.925-38.525-8.775zM501.44375 699.3125h88.05v-38.15H501.44375v-46.85h92.175v-38.1375h-145.875v213.1625h148.3125v-38.15H501.44375v-51.875zM767.71875 673.975c9.3625-3.7625 16.8125-9.7875 22.35-18.075s8.3125-17.675 8.3125-28.15c0-15.7625-6.4625-28.3-19.375-37.6125-12.925-9.3125-30.675-13.9625-53.25-13.9625h-90.4875v213.1625h92.4625c26.65 0 47.6875-4.475 63.1-13.425 15.4125-8.95 23.1125-24.3625 23.1125-46.2375 0-13.125-3.8125-24.4875-11.45-34.1-7.625-9.6125-19.225-16.8125-34.7875-21.5875z m-78.7375-64.7h25.025c11.3875 0 19.7625 2.1875 25.1 6.5625 5.3375 4.375 8.0125 11.2875 8.0125 20.75s-2.975 16.8875-8.925 21.3625-14.775 6.7125-26.475 6.7125h-22.7375v-55.3875z m28.075 146.9375h-28.075v-58.75h28.075c28.5875 0 42.875 9.8625 42.875 29.6s-14.2875 29.15-42.875 29.15z" fill="#FFFFFF" /></svg>