<?xml version="1.0" standalone="no"?><!DOCTYPE svg PUBLIC "-//W3C//DTD SVG 1.1//EN" "http://www.w3.org/Graphics/SVG/1.1/DTD/svg11.dtd"><svg class="icon" width="14px" height="14.00px" viewBox="0 0 1024 1024" version="1.1" xmlns="http://www.w3.org/2000/svg"><path d="M901.63125 926.725c0 12.8-5.125 25.0875-14.3375 34.3-9.225 9.2125-21.5 14.3375-34.3125 14.3375H170.49375c-12.8 0-25.6-5.125-34.3-14.3375-9.2125-9.225-14.3375-21.5-14.3375-34.3V48.6375c0-12.8 5.1125-25.6 14.3375-34.3C144.89375 5.125 157.70625 0 170.49375 0H589.31875c12.8 0 25.6 5.125 34.8125 14.3375l263.675 263.6875c9.2125 9.2125 14.3375 21.5 14.3375 34.8125v613.8875h-0.5125z" fill="#EBECF0" /><path d="M901.63125 926.725v48.6375c0 12.8-5.125 25.6-14.3375 34.3-9.225 9.225-21.5 14.3375-34.3125 14.3375H170.49375c-27.1375 0-48.6375-22.0125-48.6375-48.6375v-48.6375c0 12.8 5.1125 25.0875 14.3375 34.3 9.2125 9.2125 21.5 14.3375 34.3 14.3375h682.5c27.1375 0 48.6375-22.0125 48.6375-48.6375z" fill="#C1C7D0" /><path d="M121.85625 536.575v-97.8L24.06875 536.575h97.7875z m779.775 0l1.025-97.8 97.275 97.8h-98.3z" fill="#49758E" /><path d="M901.63125 312.8375v6.65H637.94375c-27.1375 0-48.6375-22.0125-48.6375-48.6375V0c12.8 0 25.6 5.125 34.8125 14.3375L888.31875 278.025c8.7 9.2125 13.825 21.5 13.3125 34.8125z" fill="#C1C7D0" /><path d="M596.75625 660.45c5.35-4.025 8.025-10.425 8.025-19.2125s-2.4-14.725-7.2-18.6625c-4.8-3.9375-12.325-5.9-22.575-5.9h-22.5v49.8125h20.45c10.525 0 18.4625-2.0125 23.8125-6.0375z" fill="#66A3CC" /><path d="M24.58125 536.575v243.2c0 13.3125 5.1125 25.6 14.3375 34.8125 8.7 9.225 21.5 14.3375 34.3 14.3375h877.575c26.625 0 48.6375-21.5 48.6375-48.6375V536.575H24.58125z m276.4 227.75c-20.8625 11.1625-45.325 16.7375-73.4125 16.7375-21.675 0-40.55-4.3-56.6-12.9-16.05-8.6-28.3375-20.35-36.85-35.2625-8.5125-14.9125-12.7625-31.6-12.7625-50.0875 0-19.85 4.6-37.2375 13.7875-52.15 9.2-14.9125 21.9375-26.35 38.2125-34.3 16.2875-7.9625 34.625-11.9375 55.025-11.9375 23.6 0 47.4375 4.9375 71.4875 14.825v44.4625c-11.075-6.95-21.6625-12.125-31.7625-15.5-10.1125-3.3875-20.6125-5.075-31.4875-5.075-13.9125 0-25.825 2.7625-35.75 8.3-9.925 5.5375-17.4 12.9-22.4375 22.0875-5.0375 9.2-7.55 19.2375-7.55 30.125s2.5625 20.5375 7.6875 29.5c5.125 8.9625 12.55 16.075 22.3 21.3375 9.7375 5.2625 21.2875 7.8875 34.65 7.8875 22.4125 0 44.225-7.0375 65.45-21.1375v43.0875z m167.9625 14.275H335.56875V586.9h131.1875v34.3h-82.8875v42.125h79.175v34.3h-79.175v46.65h85.075v34.3z m175.1625-12.075c-13.8625 8.05-32.775 12.075-56.7375 12.075h-83.1625V586.9h81.375c20.3125 0 36.275 4.1875 47.8875 12.55 11.6125 8.375 17.425 19.65 17.425 33.825 0 9.425-2.4875 17.8625-7.475 25.3125-4.9875 7.45-11.6875 12.875-20.1 16.2625 14 4.3 24.425 10.775 31.2875 19.4125 6.8625 8.65 10.2875 18.8625 10.2875 30.6625 0 19.675-6.925 33.525-20.7875 41.575z m196.4375 12.075l-52.2875-63.5375c-8.05 10.7-24.975 31.8875-50.775 63.5375H676.69375l81.2375-99.4875-76.7125-92.2125h61.2l9.6 11.8c12.9 16.1 24.975 31.375 36.225 45.8375 9.6-13.2625 24.7-32.475 45.2875-57.6375h60.1l-74.375 92.2125 82.8875 99.4875h-61.6125z" fill="#66A3CC" /><path d="M577.75625 696h-25.25v52.825h25.25c25.7 0 38.5625-8.7375 38.5625-26.2125s-12.85-26.625-38.5625-26.625z" fill="#66A3CC" /><path d="M200.86875 734.4875c-9.7375-5.2625-17.175-12.375-22.3-21.3375s-7.6875-18.8-7.6875-29.5 2.5125-20.925 7.55-30.125c5.025-9.1875 12.5125-16.5625 22.4375-22.0875 9.925-5.5375 21.8375-8.3 35.75-8.3 10.8875 0 21.3875 1.7 31.4875 5.075 10.1125 3.3875 20.7 8.55 31.7625 15.5V599.25c-24.0625-9.875-47.8875-14.825-71.4875-14.825-20.4 0-38.7375 3.975-55.025 11.9375-16.2875 7.9625-29.025 19.4-38.2125 34.3-9.2 14.9125-13.7875 32.3-13.7875 52.15 0 18.475 4.25 35.175 12.7625 50.0875 8.5125 14.9125 20.7875 26.6625 36.85 35.2625 16.05 8.6 34.925 12.9 56.6 12.9 28.0875 0 52.55-5.575 73.4125-16.7375v-43.0875c-21.225 14.0875-43.0375 21.1375-65.45 21.1375-13.3625 0-24.9-2.625-34.65-7.8875zM383.85625 697.6375h79.175v-34.3h-79.175v-42.125h82.8875v-34.3125H335.55625v191.7h133.375v-34.3h-85.075v-46.6625zM623.30625 674.8625c8.4125-3.3875 15.1125-8.8 20.1-16.2625 4.9875-7.45 7.475-15.9 7.475-25.3125 0-14.175-5.8125-25.45-17.425-33.825-11.625-8.375-27.5875-12.55-47.8875-12.55h-81.375v191.7h83.1625c23.9625 0 42.875-4.025 56.7375-12.075 13.8625-8.05 20.7875-21.9125 20.7875-41.575 0-11.8-3.425-22.025-10.2875-30.6625-6.8625-8.65-17.2875-15.1125-31.2875-19.4125z m-70.8125-58.1875h22.5c10.25 0 17.775 1.9625 22.575 5.9 4.8 3.9375 7.2 10.15 7.2 18.6625s-2.675 15.1875-8.025 19.2125c-5.35 4.025-13.2875 6.0375-23.8125 6.0375h-20.45v-49.8125z m25.25 132.15h-25.25V696h25.25c25.7 0 38.5625 8.875 38.5625 26.625s-12.85 26.2125-38.5625 26.2125zM893.63125 586.9h-60.1c-20.5875 25.1625-35.675 44.375-45.2875 57.6375-11.25-14.45-23.325-29.725-36.225-45.8375l-9.6-11.8h-61.2l76.7125 92.2125-81.2375 99.4875h60.7875c25.8-31.65 42.725-52.825 50.775-63.5375l52.2875 63.5375h61.6125l-82.8875-99.4875 74.375-92.2125z" fill="#FFFFFF" /></svg>