<?xml version="1.0" standalone="no"?><!DOCTYPE svg PUBLIC "-//W3C//DTD SVG 1.1//EN" "http://www.w3.org/Graphics/SVG/1.1/DTD/svg11.dtd"><svg class="icon" width="14px" height="14.00px" viewBox="0 0 1024 1024" version="1.1" xmlns="http://www.w3.org/2000/svg"><path d="M144.7936 0c-44.8 0-80 36.8128-80 81.6128v860.8c0 44.8 35.2 81.6128 80 81.6128h732.8a81.9712 81.9712 0 0 0 81.6128-81.6128V324.8128L656.7936 0h-512z" fill="#EE7F67" /><path d="M656.768 0v233.6c0 25.6 17.6128 92.8 97.6128 92.8h204.8L656.768 0z" fill="#FFFFFF" /><path d="M370.4064 548.5056c-6.4 0-11.2128-3.7376-14.4128-11.2384-2.7904-6.4-5.4016-10.2912-7.808-11.6992-2.0992-1.1008-7.296-1.6384-15.5904-1.6384-14.4896 0-30.592 11.1104-48.3072 33.3056-24.0128 29.7984-35.9936 58.0608-35.9936 84.7616 0 12.9024 4.1472 24.0128 12.4416 33.3056 8.4992 9.6 18.7392 14.4128 30.7456 14.4128 10.2912 0 20.6592-2.6624 31.0528-7.9616 5.8112-2.9952 14.6944-8.9088 26.7008-17.6896 5.7088-4.1984 10.0096-6.2976 12.9024-6.2976 4.3008 0 7.9104 1.6128 10.8032 4.864s4.352 6.8864 4.352 10.88c0 4.5056-1.8944 8.448-5.7088 11.8528-26.3936 23.3984-53.0944 35.0976-80.1024 35.0976-20.7104 0-38.1952-7.9616-52.5056-23.8592a79.1808 79.1808 0 0 1-20.7104-54.6048c0-33.8944 14.208-68.6592 42.5984-104.2432 23.7056-29.696 47.5904-44.544 71.7056-44.544 4.8896 0 9.2928 0.2304 13.2096 0.6656s7.3472 1.1776 10.3424 2.176c3.5072-5.0944 8.0384-7.6544 13.6448-7.6544 6.912 0 11.2384 4.5568 13.056 13.6448 1.6128 8.0896 2.4064 18.048 2.4064 29.8496a18.176 18.176 0 0 1-3.3024 10.8032 13.2096 13.2096 0 0 1-11.52 5.8112zM410.0096 679.4496c-0.1024-4.1984 1.3312-7.6288 4.2752-10.2656s6.5792-3.968 10.88-3.968c4.8896 0 9.1904 2.7904 12.9024 8.3968 5.0944 7.6032 9.6512 12.7488 13.6448 15.4624 8.4992 5.6064 20.8384 8.3968 37.0432 8.3968a94.72 94.72 0 0 0 43.2128-10.0608c16.9984-8.6016 25.4976-20.5568 25.4976-35.84 0-12.5952-7.1424-22.5536-21.4528-29.8496-12.1088-6.2976-27.0592-9.7024-44.8512-10.1888-15.7952-0.5888-29.2608-4.0448-40.3456-10.3424-14.208-8.0896-21.2992-19.712-21.2992-34.7904 0-17.792 10.112-34.048 30.3104-48.7424 19.3024-13.9008 39.2448-20.8384 59.8528-20.8384 9.7024 0 20.6592 1.6384 32.8448 4.9408 16.2048 4.3008 24.2944 9.8048 24.2944 16.512 0 8.8064-4.5056 13.2096-13.4912 13.2096-3.9936 0-11.008-1.0752-20.992-3.2256s-17.7408-3.1744-23.2448-3.072c-15.5904 0.2048-28.8512 4.0448-39.7568 11.5456-11.2128 7.7056-16.7936 17.0496-16.7936 28.0576 0 8.2944 7.3984 14.1568 22.1952 17.5616 5.504 1.3056 16.1536 2.5088 31.9488 3.6096 22.912 1.6896 40.8064 8.9088 53.7088 21.6064 11.8016 11.5968 17.6896 25.7536 17.6896 42.4448 0 23.808-11.008 42.8032-32.9984 57.0112-19.0976 12.288-41.2416 18.4576-66.4576 18.4576a118.8608 118.8608 0 0 1-50.2528-10.496c-18.6368-8.7296-28.0832-20.5312-28.3648-35.5328zM798.7968 511.1552a148.3776 148.3776 0 0 0-15.1552 29.2608l-11.392 32.8448-40.3456 109.056c-4.7104 12.8-10.1888 25.2928-16.512 37.504-3.2 5.9904-7.7056 9.0112-13.4912 9.0112-7.7056 0-13.1072-3.8912-16.2048-11.6992-12.1088-30.4128-25.5488-74.1376-40.3456-131.2512l-11.8528-41.2416c-5.888-20.8128-8.8576-34.4064-8.8576-40.8064 0-4.5056 1.6128-8.192 4.8128-11.1104a14.8992 14.8992 0 0 1 10.496-4.0448c7.6032 0 12.4928 4.096 14.6944 12.288l5.5552 26.112 14.4128 50.9952c9.6 37.1968 18.944 69.248 28.0576 96.1536l0.896-2.4064 40.192-108.9024 12.7488-36.7616c5.7088-14.7968 11.7504-26.0096 18.1504-33.6128a14.7712 14.7712 0 0 1 11.6992-5.9904c3.9936 0 7.5776 1.536 10.7264 4.5824s4.736 6.7328 4.736 11.0336a16.4096 16.4096 0 0 1-3.0208 8.9856z" fill="#FFFFFF" /></svg>