<?xml version="1.0" standalone="no"?><!DOCTYPE svg PUBLIC "-//W3C//DTD SVG 1.1//EN" "http://www.w3.org/Graphics/SVG/1.1/DTD/svg11.dtd"><svg class="icon" width="14px" height="14.00px" viewBox="0 0 1024 1024" version="1.1" xmlns="http://www.w3.org/2000/svg"><path d="M901.632 926.72c0 12.8-5.12 25.088-14.336 34.304-9.216 9.216-21.504 14.336-34.304 14.336H170.496c-12.8 0-25.6-5.12-34.304-14.336-9.216-9.216-14.336-21.504-14.336-34.304V48.64c0-12.8 5.12-25.6 14.336-34.304C144.896 5.12 157.696 0 170.496 0h418.816c12.8 0 25.6 5.12 34.816 14.336l263.68 263.68c9.216 9.216 14.336 21.504 14.336 34.816V926.72z" fill="#EBECF0" /><path d="M901.632 926.72v48.64c0 12.8-5.12 25.6-14.336 34.304-9.216 9.216-21.504 14.336-34.304 14.336H170.496c-27.136 0-48.64-22.016-48.64-48.64V926.72c0 12.8 5.12 25.088 14.336 34.304 9.216 9.216 21.504 14.336 34.304 14.336h682.496c27.136 0 48.64-22.016 48.64-48.64z" fill="#C1C7D0" /><path d="M24.064 536.576h975.36v243.712c0 27.136-22.016 48.64-48.64 48.64H73.216c-12.8 0-25.6-5.12-34.304-14.336-9.216-9.216-14.336-21.504-14.336-34.816v-243.2z" fill="#003771" /><path d="M121.856 536.576V438.784L24.064 536.576h97.792z m779.776 0l1.024-97.792 97.28 97.792h-98.304z" fill="#00213F" /><path d="M901.632 312.832v6.656h-263.68c-27.136 0-48.64-22.016-48.64-48.64V0c12.8 0 25.6 5.12 34.816 14.336l264.192 263.68c8.704 9.216 13.824 21.504 13.312 34.816z" fill="#C1C7D0" /><path d="M296.448 769.536H215.552v-188.928h83.456c65.024 0.512 97.792 30.72 98.816 90.624-0.512 65.024-33.792 98.304-101.376 98.304zM276.992 624.64v100.864h13.312c29.696 0 44.032-16.896 44.032-51.2 2.048-35.84-12.8-52.224-45.056-49.152h-12.288zM511.488 574.976c62.464 2.56 95.744 35.84 99.84 98.816-2.56 62.976-35.84 95.744-99.84 98.816-63.488-2.048-96.768-35.328-98.816-99.84 3.584-61.44 36.352-94.208 98.816-97.792z m0 46.592c-23.552 0.512-35.84 17.92-36.864 52.224 1.536 35.84 13.824 53.76 36.864 54.272 24.576-0.512 37.376-18.944 37.888-54.272-1.024-34.816-13.824-52.224-37.888-52.224zM816.64 652.288h-58.368c-2.56-19.968-13.824-30.208-33.792-30.72-22.528 0.512-34.304 18.944-34.816 55.296 0 34.304 12.288 51.2 36.864 51.2 18.432 0 29.184-10.752 31.744-31.744h59.392c-6.656 48.64-36.864 74.24-90.624 76.288-64.512-2.048-97.792-34.816-99.84-97.792 3.584-62.464 34.816-95.744 94.72-99.84 57.344 1.024 88.576 26.624 94.72 77.312z" fill="#FFFFFF" /></svg>