<?xml version="1.0" standalone="no"?><!DOCTYPE svg PUBLIC "-//W3C//DTD SVG 1.1//EN" "http://www.w3.org/Graphics/SVG/1.1/DTD/svg11.dtd"><svg class="icon" width="14px" height="14.00px" viewBox="0 0 1024 1024" version="1.1" xmlns="http://www.w3.org/2000/svg"><path d="M901.625 926.725c0 12.8-5.125 25.0875-14.3375 34.3-9.225 9.2125-21.5 14.3375-34.3125 14.3375H170.4875c-12.8 0-25.6-5.125-34.3-14.3375-9.2125-9.225-14.3375-21.5-14.3375-34.3V48.6375c0-12.8 5.1125-25.6 14.3375-34.3C144.8875 5.125 157.7 0 170.4875 0H589.3125c12.8 0 25.6 5.125 34.8125 14.3375l263.675 263.6875c9.2125 9.2125 14.3375 21.5 14.3375 34.8125v613.8875h-0.5125z" fill="#EBECF0" /><path d="M901.625 926.725v48.6375c0 12.8-5.125 25.6-14.3375 34.3-9.225 9.225-21.5 14.3375-34.3125 14.3375H170.4875c-27.1375 0-48.6375-22.0125-48.6375-48.6375v-48.6375c0 12.8 5.1125 25.0875 14.3375 34.3 9.2125 9.2125 21.5 14.3375 34.3 14.3375h682.5c27.1375 0 48.6375-22.0125 48.6375-48.6375z" fill="#C1C7D0" /><path d="M24.0625 536.575h975.3625v243.7125c0 27.1375-22.0125 48.6375-48.6375 48.6375H73.2125c-12.8 0-25.6-5.1125-34.3-14.3375C29.6875 805.375 24.575 793.0875 24.575 779.775V536.575H24.0625z" fill="#6CB6FF" /><path d="M121.85 536.575v-97.8L24.0625 536.575h97.7875z m779.775 0l1.025-97.8 97.275 97.8h-98.3z" fill="#43A0ED" /><path d="M901.625 312.8375v6.65H637.9375c-27.1375 0-48.6375-22.0125-48.6375-48.6375V0c12.8 0 25.6 5.125 34.8125 14.3375L888.3125 278.025c8.7 9.2125 13.825 21.5 13.3125 34.8125z" fill="#C1C7D0" /><path d="M223.525 791.1V586.4625h94.2625c14.775 0 28.2625 2.3 40.4875 6.9125 12.225 4.6125 22.7625 11.35 31.625 20.2125s15.7125 19.65 20.55 32.3625c4.8375 12.7125 7.25 27.175 7.25 43.375s-2.35 30.75-7.05 43.375-11.475 23.275-20.3375 31.9625c-8.8625 8.6875-19.6 15.2625-32.225 19.7375-12.625 4.475-26.85 6.7125-42.7 6.7125h-91.85z m59.8875-49.55h26.9875c9.225 0 17.325-1.95 24.3-5.8375s12.4625-9.7125 16.45-17.45c3.9875-7.7375 5.975-17.3875 5.975-28.9375s-1.9-20.9-5.7125-28.875c-3.8-7.9625-9.2-14.0375-16.175-18.2s-15.2625-6.25-24.8375-6.25h-26.9875v105.5375zM536.525 795c-15.9375 0-30.2625-2.6375-42.975-7.925-12.7125-5.275-23.5875-12.7125-32.625-22.2875-9.0375-9.575-15.9625-20.8125-20.75-33.7-4.7875-12.8875-7.1875-26.9375-7.1875-42.1625s2.4-29.2875 7.1875-42.225c4.7875-12.9375 11.7-24.1875 20.75-33.775 9.0375-9.575 19.9125-17.0125 32.625-22.2875 12.7125-5.275 27.0375-7.925 42.975-7.925s30.1875 2.6375 43.0375 7.925c12.85 5.2875 23.8125 12.7125 32.9 22.2875 9.0875 9.575 16.0625 20.8375 20.95 33.775 4.875 12.9375 7.3125 27.0125 7.3125 42.225s-2.4375 29.275-7.3125 42.1625c-4.875 12.8875-11.8625 24.125-20.95 33.7-9.0875 9.575-20.05 17.0125-32.9 22.2875-12.85 5.275-27.1875 7.925-43.0375 7.925z m0.2625-47.5375c7.1625 0 13.425-1.475 18.8-4.425s9.875-7.0875 13.5-12.425c3.625-5.325 6.3375-11.525 8.125-18.6 1.7875-7.075 2.6875-14.775 2.6875-23.1s-0.9-16.05-2.6875-23.1625c-1.7875-7.1125-4.5-13.3125-8.125-18.6-3.625-5.275-8.125-9.4-13.5-12.35s-11.6375-4.425-18.8-4.425-13.425 1.475-18.8 4.425-9.875 7.075-13.5 12.35c-3.625 5.2875-6.3625 11.475-8.1875 18.6-1.8375 7.1125-2.75 14.8375-2.75 23.1625s0.9125 16.025 2.75 23.1c1.8375 7.075 4.5625 13.275 8.1875 18.6 3.625 5.325 8.125 9.4625 13.5 12.425s11.6375 4.425 18.8 4.425zM706.3875 791.1V637.625h-57.7375v-51.1625H824.6875v51.1625h-58.55v153.475h-59.75z" fill="#FFFFFF" /></svg>