<?xml version="1.0" standalone="no"?><!DOCTYPE svg PUBLIC "-//W3C//DTD SVG 1.1//EN" "http://www.w3.org/Graphics/SVG/1.1/DTD/svg11.dtd"><svg class="icon" width="14px" height="14.00px" viewBox="0 0 1024 1024" version="1.1" xmlns="http://www.w3.org/2000/svg"><path d="M847.872 240.128v688c0 26.56-21.408 48-48 48h-576c-26.56 0-48-21.44-48-48v-832c0-26.592 21.44-48 48-48h432z" fill="#E9EDED" /><path d="M160 768.128v160c0 35.456 28.544 64 64 64h576c35.456 0 64-28.544 64-64v-160H160z" fill="#F17F53" /><path d="M847.872 240.128h-144c-26.56 0-48-21.44-48-48v-144" fill="#F17F53" /><path d="M432 352.128v64h-83.008c-6.656-18.56-24.32-32-44.992-32-26.336 0-48 21.664-48 48 0 26.304 21.664 48 48 48 20.672 0 38.304-13.504 44.992-32h44.448C328.544 485.824 288 552 288 624.128v16h32v-16c0-62.432 35.968-120.384 95.488-152.128 5.376-2.88 10.944-5.152 16.512-7.488v47.616h160v-47.616c5.568 2.336 11.136 4.64 16.512 7.488 59.52 31.744 95.488 89.696 95.488 152.128v16h32v-16c0-72.096-40.544-138.304-105.44-176h44.448c6.688 18.496 24.32 32 44.992 32 26.336 0 48-21.696 48-48 0-26.336-21.664-48-48-48-20.704 0-38.336 13.44-44.992 32H592v-64h-160z m32 32h96v32h-96v-32z m-160 32c9.024 0 16 6.976 16 16 0 9.024-6.976 16-16 16a15.776 15.776 0 0 1-16-16c0-9.024 6.976-16 16-16z m416 0c9.024 0 16 6.976 16 16 0 9.024-6.976 16-16 16a15.776 15.776 0 0 1-16-16c0-9.024 6.976-16 16-16zM512 448.192c16.128 0 32.288 1.92 48 5.632v26.304h-96v-26.304a209.376 209.376 0 0 1 48-5.632z" fill="#F17F53" /><path d="M270.496 800a16 16 0 0 0-1.568 0.256 16 16 0 0 0-0.064 0 16 16 0 0 0-0.864 0.192 16 16 0 0 0-0.64 0.192 16 16 0 0 0-0.32 0.096 16 16 0 0 0-11.04 17.088v60.416a16 16 0 0 0 0 3.584v60.416a16 16 0 0 0 4.448 12.896 16 16 0 0 0 0.32 0.32 16 16 0 0 0 0.64 0.608 16 16 0 0 0 0.48 0.384 16 16 0 0 0 0.224 0.192 16 16 0 0 0 1.088 0.8 16 16 0 0 0 0.224 0.128 16 16 0 0 0 2.816 1.376 16 16 0 0 0 0.064 0.064 16 16 0 0 0 0.064 0 16 16 0 0 0 6.624 0.992h94.752a16 16 0 1 0 0-32H288v-32h47.744a16 16 0 1 0 0-32H288v-32h79.744a16 16 0 1 0 0-32H273.376a16 16 0 0 0-1.28 0 16 16 0 0 0-0.32 0 16 16 0 0 0-1.28 0z m193.504 0c-24.896 0-45.376 19.456-47.552 43.84a16 16 0 0 0-0.448 3.968v96a16 16 0 1 0 32 0v-50.816c5.024 1.824 10.368 3.008 16 3.008 26.336 0 48-21.664 48-48s-21.664-48-48-48z m126.56 0a16 16 0 0 0-1.984 0.384c-24.64 1.92-44.384 22.528-44.384 47.616 0 25.28 20.064 46.08 44.992 47.68a16 16 0 0 0 3.008 0.32h32c9.152 0 16 6.848 16 16 0 9.152-6.848 16-16 16h-64a16 16 0 1 0 0 32h64a16 16 0 0 0 3.296-0.384 48.096 48.096 0 0 0 44.704-47.616c0-25.152-19.84-45.856-44.576-47.68a16 16 0 0 0-3.424-0.32h-30.88a16 16 0 0 0-1.12 0 15.616 15.616 0 0 1-16-16c0-9.152 6.848-16 16-16h64a16 16 0 1 0 0-32H593.28a16 16 0 0 0-1.12 0 16 16 0 0 0-1.6 0zM464 832c9.024 0 16 6.976 16 16 0 9.024-6.976 16-16 16a15.776 15.776 0 0 1-16-16v-0.192a15.776 15.776 0 0 1 16-15.808z" fill="#E9EDED" /></svg>