<?xml version="1.0" standalone="no"?><!DOCTYPE svg PUBLIC "-//W3C//DTD SVG 1.1//EN" "http://www.w3.org/Graphics/SVG/1.1/DTD/svg11.dtd"><svg class="icon" width="14px" height="14.00px" viewBox="0 0 1024 1024" version="1.1" xmlns="http://www.w3.org/2000/svg"><path d="M145.621959 0c-44.79888 0-79.998 36.81188-79.998 81.61076v860.77848c0 44.79888 35.19912 81.61076 79.998 81.61076h732.781681a81.969151 81.969151 0 0 0 81.61076-81.61076V324.80468L657.60916 0h-511.987201z" fill="#556B2F" /><path d="M657.60916 0v233.59416c0 25.59936 17.61236 92.79768 97.61036 92.79768h204.79488L657.60916 0z" fill="#FFFFFF" /><path d="M315.294518 649.276568c0-4.300692 1.151971-7.961401 3.455913-10.956526s5.350266-4.991875 9.138972-5.99025a138.287743 138.287743 0 0 1 13.644459-21.170671c3.404715-4.40309 7.270218-8.831779 11.622109-13.286068s9.138972-8.498988 14.41244-12.159696 10.905327-6.630234 16.946776-8.934176 12.466888-3.455914 19.276318-3.455914c5.811055 0 10.854129 0.691183 15.154821 2.099147s7.859004 3.353516 10.649334 5.862254 4.889478 5.478263 6.297443 8.934177 2.099148 7.167821 2.099147 11.18692c0 3.404715-0.460788 6.655834-1.356766 9.753356-1.407965 5.60626-3.9935 10.495738-7.807805 14.694033s-8.268593 7.884603-13.414064 11.033324-10.751731 5.785455-16.793181 7.884603-12.108497 3.839904-18.149946 5.247869-11.878103 2.483138-17.484363 3.225519-10.444539 1.331167-14.540436 1.715157c-0.895978 1.791955-1.663958 4.070298-2.329542 6.835029s-0.972776 5.427064-0.972776 8.0126c0 5.811055 2.303942 10.290943 6.911828 13.490863s10.956526 4.81268 19.045923 4.812679c4.710282 0 9.19017-0.537587 13.490863-1.58716s8.370991-2.40634 12.236494-4.044699 7.475013-3.455914 10.879728-5.401465 6.502237-3.865503 9.292568-5.785455c3.60951-2.40634 7.014225-4.428689 10.265343-6.067049s6.118247-2.483138 8.626985-2.483138 4.095898 0.614385 4.812679 1.868754 1.049574 2.585535 1.049574 3.967901a34.251944 34.251944 0 0 1-0.307192 4.198295 25.804155 25.804155 0 0 1-8.703783 14.566035c-10.39334 8.191795-21.068273 14.054049-32.024799 17.561161s-22.629834 5.247869-35.019924 5.247869c-2.40634 0-5.222269-0.153596-8.473389-0.460788s-6.630234-0.895978-10.137346-1.791955-6.937427-2.201545-10.342142-3.891103a31.538412 31.538412 0 0 1-15.513212-17.100373 40.037399 40.037399 0 0 1-2.483138-14.847628c0-4.710282 0.639984-9.958151 1.945552-15.743607-1.305567-0.204795-2.534337-0.870378-3.686308-2.022349s-1.715157-2.81593-1.715157-5.017475z m93.898452-41.547761c0.204795-0.511987 0.307192-0.947176 0.307192-1.356766v-1.356766c0-2.687933-0.998375-4.735882-2.995125-6.067049s-4.40309-2.022349-7.19342-2.022349c-4.40309 0-8.729382 1.151971-12.978875 3.455913s-8.242994 5.171071-12.0061 8.626985-7.065423 7.142221-9.983751 11.110122-5.145471 7.526212-6.758231 10.726132c7.19342-0.588785 13.798055-1.58716 19.788306-2.918327s11.21252-3.046324 15.666808-5.094273 8.038199-4.351891 10.80293-6.911827 4.556686-5.273468 5.350266-8.191795zM464.845979 701.19207a14.489238 14.489238 0 0 1-13.721257 1.638359c-1.356766-0.691183-2.508737-1.61276-3.455914-2.764731a12.902077 12.902077 0 0 1-2.918327-8.319792c0-2.099148 0.435189-3.865503 1.279968-5.324667s1.894353-2.687933 3.148722-3.737506 2.611135-1.919952 4.044698-2.636734 2.764731-1.305567 3.967901-1.791955c3.9935-2.611135 8.498988-5.811055 13.490863-9.59976s10.137347-7.884603 15.462013-12.236494 10.572536-8.78058 15.820405-13.286068l14.924427-12.902078 6.758231-5.99025a121.59696 121.59696 0 0 0-13.59326-31.128822l-5.017475-8.166196-3.686308-5.99025a7.782205 7.782205 0 0 1-1.279968-4.198295 14.258844 14.258844 0 0 1 7.116622-11.340516 11.417315 11.417315 0 0 1 5.785456-1.433565c3.19992 0 6.01585 0.665583 8.473388 2.02235s4.633484 3.071923 6.527837 5.171071 3.558311 4.377491 4.940676 6.835029 2.662333 4.78708 3.737507 6.963026c0.588785 1.20317 1.254369 2.79033 1.945551 4.812679s1.382365 4.121497 2.022349 6.374241l1.868754 6.604635 1.510362 5.631859c4.40309-4.198295 8.678183-8.601385 12.825279-13.20927a587.556511 587.556511 0 0 0 18.892328-22.194645c1.740756-2.201545 3.58391-4.223894 5.478263-6.067048s3.839904-3.379116 5.862254-4.582286 4.147096-1.791955 6.451038-1.791955c3.891103 0 6.681433 0.998375 8.319792 2.995125s2.483138 4.607885 2.483138 7.807805c0 3.404715-0.614385 6.527837-1.868753 9.369366s-2.867128 5.068673-4.863878 6.681433c-2.892728 2.303942-6.067048 5.068673-9.522962 8.319792s-6.937427 6.681433-10.495738 10.265343l-10.572536 10.649334c-3.507112 3.507112-6.707032 6.655834-9.59976 9.446164-1.20317 1.100772-2.227144 2.201545-3.071923 3.302317s-1.279968 2.508737-1.279968 4.198295c0 0.998375 0.281593 2.252744 0.81918 3.737507s1.254369 3.097523 2.099147 4.81268l2.559936 5.17107c0.870378 1.740756 1.58716 3.327917 2.175946 4.735882 1.20317 2.687933 2.867128 5.887853 5.017474 9.59976s4.300692 7.577411 6.451039 11.622109 4.0191 8.166196 5.631859 12.364491 2.40634 8.191795 2.40634 12.0061a20.761081 20.761081 0 0 1-3.737506 12.082898c-1.075173 1.561561-2.329542 2.764731-3.686308 3.686308s-2.636734 1.356766-3.814305 1.356766c-2.611135 0-4.684683-0.307192-6.220644-0.895978s-2.867128-1.510362-3.967901-2.687932-2.022349-2.662333-2.764731-4.42869-1.58716-3.763106-2.483138-6.067048c-1.305567-3.711907-2.995125-7.961401-5.094273-12.748481s-4.275093-9.548561-6.527837-14.258844-4.377491-9.062173-6.37424-13.132472-3.558311-7.116622-4.659084-9.215769l-8.626984 6.835029-11.468513 9.062173-17.919552 14.105248c-7.244619 5.708657-16.588385 12.953276-28.0057 21.861853zM616.496588 649.276568c0-4.300692 1.151971-7.961401 3.455913-10.956526s5.350266-4.991875 9.138972-5.99025a138.287743 138.287743 0 0 1 13.644459-21.170671c3.404715-4.40309 7.270218-8.831779 11.622109-13.286068s9.138972-8.498988 14.41244-12.159696 10.905327-6.630234 16.946776-8.934176 12.466888-3.455914 19.276318-3.455914c5.811055 0 10.854129 0.691183 15.154821 2.099147s7.859004 3.353516 10.649334 5.862254 4.889478 5.478263 6.297443 8.934177 2.099148 7.167821 2.099147 11.18692c0 3.404715-0.460788 6.655834-1.356766 9.753356-1.407965 5.60626-3.9935 10.495738-7.807805 14.694033s-8.268593 7.884603-13.414064 11.033324-10.751731 5.785455-16.793181 7.884603-12.108497 3.839904-18.149946 5.247869-11.878103 2.483138-17.484363 3.225519-10.444539 1.331167-14.540436 1.715157c-0.895978 1.791955-1.663958 4.070298-2.329542 6.835029s-0.972776 5.427064-0.972776 8.0126c0 5.811055 2.303942 10.290943 6.911828 13.490863s10.956526 4.81268 19.045923 4.812679c4.710282 0 9.19017-0.537587 13.490863-1.58716s8.370991-2.40634 12.236494-4.044699 7.475013-3.455914 10.879728-5.401465 6.502237-3.865503 9.292568-5.785455c3.60951-2.40634 7.014225-4.428689 10.265343-6.067049s6.118247-2.483138 8.626985-2.483138 4.095898 0.614385 4.812679 1.868754 1.049574 2.585535 1.049574 3.967901a34.251944 34.251944 0 0 1-0.307192 4.198295 25.804155 25.804155 0 0 1-8.703783 14.566035c-10.39334 8.191795-21.068273 14.054049-32.024799 17.561161s-22.629834 5.247869-35.019925 5.247869c-2.40634 0-5.222269-0.153596-8.473388-0.460788s-6.630234-0.895978-10.137346-1.791955-6.937427-2.201545-10.342142-3.891103a31.538412 31.538412 0 0 1-15.513212-17.100373 40.037399 40.037399 0 0 1-2.483138-14.847628c0-4.710282 0.639984-9.958151 1.945552-15.743607-1.305567-0.204795-2.534337-0.870378-3.686308-2.022349s-1.715157-2.81593-1.715157-5.017475z m93.898452-41.547761c0.204795-0.511987 0.307192-0.947176 0.307192-1.356766v-1.356766c0-2.687933-0.998375-4.735882-2.995125-6.067049s-4.40309-2.022349-7.19342-2.022349c-4.40309 0-8.729382 1.151971-12.978875 3.455913s-8.242994 5.171071-12.0061 8.626985-7.065423 7.142221-9.983751 11.110122-5.145471 7.526212-6.758231 10.726132c7.19342-0.588785 13.798055-1.58716 19.788306-2.918327s11.21252-3.046324 15.666808-5.094273 8.038199-4.351891 10.80293-6.911827 4.556686-5.273468 5.350266-8.191795z" fill="#FFFFFF" /></svg>