<?xml version="1.0" standalone="no"?><!DOCTYPE svg PUBLIC "-//W3C//DTD SVG 1.1//EN" "http://www.w3.org/Graphics/SVG/1.1/DTD/svg11.dtd"><svg class="icon" width="14px" height="14.00px" viewBox="0 0 1024 1024" version="1.1" xmlns="http://www.w3.org/2000/svg"><path d="M847.936 240.128v688c0 26.56-21.408 48-48 48h-576c-26.56 0-48-21.44-48-48v-832c0-26.592 21.44-48 48-48h432z" fill="#E9EDED" /><path d="M159.936 768.128v160c0 35.456 28.544 64 64 64h576c35.456 0 64-28.544 64-64v-160h-704z" fill="#34485C" /><path d="M847.84 240.128h-144c-26.592 0-48-21.44-48-48v-144" fill="#34485C" /><path d="M487.936 319.936V320a16 16 0 0 0-15.872 14.24l-3.008 26.432a133.248 133.248 0 0 0-11.2 4.64l-20.8-16.576a16 16 0 0 0-21.248 1.216l-33.92 33.856a16 16 0 0 0-1.28 21.312l16.64 20.8a128.864 128.864 0 0 0-4.608 11.2l-26.528 3.008a16 16 0 0 0-14.176 15.872v48a16 16 0 0 0 14.176 15.936l26.528 2.944c1.344 3.808 2.88 7.52 4.608 11.2l-16.64 20.8a16 16 0 0 0 1.28 21.312l33.92 33.92a16 16 0 0 0 21.248 1.216l20.8-16.576c3.68 1.728 7.392 3.2 11.2 4.576l3.008 26.496a16 16 0 0 0 15.872 14.176h48a16 16 0 0 0 15.872-14.176l3.008-26.464c3.808-1.376 7.52-2.944 11.2-4.672l20.8 16.64a16 16 0 0 0 21.312-1.216l33.92-33.92a16 16 0 0 0 1.216-21.312l-16.64-20.864c1.696-3.648 3.264-7.296 4.64-11.072l26.496-3.008a16 16 0 0 0 14.176-15.936v-48a16 16 0 0 0-14.176-15.872l-26.496-3.072a127.872 127.872 0 0 0-4.64-11.104l16.64-20.896a16 16 0 0 0-1.216-21.248l-33.92-33.92a16 16 0 0 0-21.312-1.152l-20.8 16.512a122.464 122.464 0 0 0-11.2-4.48l-3.008-26.56a16 16 0 0 0-15.872-14.272h-48zM502.24 352h19.392l2.432 21.504a16 16 0 0 0 11.872 13.696c8.64 2.24 16.96 5.696 24.64 10.24a16 16 0 0 0 18.112-1.312l16.864-13.44 13.76 13.696-13.504 16.928a16 16 0 0 0-1.248 18.112c4.544 7.68 8 15.936 10.24 24.576a16 16 0 0 0 13.696 11.872l21.44 2.368v19.456l-21.504 2.432a16 16 0 0 0-13.696 11.872 96 96 0 0 1-10.176 24.64 16 16 0 0 0 1.28 18.048l13.472 16.96-13.76 13.664-16.864-13.44a16 16 0 0 0-18.112-1.248 96 96 0 0 1-24.64 10.176 16 16 0 0 0-11.872 13.696l-2.432 21.44h-19.392l-2.432-21.44a16 16 0 0 0-11.872-13.696c-8.64-2.24-16.96-5.696-24.64-10.24a16 16 0 0 0-18.048 1.312l-16.96 13.44-13.728-13.696 13.504-16.928a16 16 0 0 0 1.248-18.112 95.712 95.712 0 0 1-10.24-24.576 16 16 0 0 0-13.696-11.872l-21.44-2.432v-19.392l21.504-2.432a16 16 0 0 0 13.696-11.872 96 96 0 0 1 10.176-24.64 16 16 0 0 0-1.248-18.048l-13.504-16.96 13.76-13.664 16.96 13.44a16 16 0 0 0 18.048 1.248 96 96 0 0 1 24.608-10.176 16 16 0 0 0 11.872-13.696l2.432-21.504z m9.696 64c-35.168 0-64 28.832-64 64s28.832 64 64 64 64-28.832 64-64-28.832-64-64-64z m0 32c17.856 0 32 14.144 32 32s-14.144 32-32 32-32-14.144-32-32 14.144-32 32-32z" fill="#34485C" /><path d="M271.488 799.552a16 16 0 0 0-15.808 16.256v128a16 16 0 0 0 0 0.192 16 16 0 0 0 0.064 0.64 16 16 0 0 0 0 0.736 16 16 0 0 0 0.064 0.448 16 16 0 0 0 0.256 1.536 16 16 0 0 0 0.448 1.6 16 16 0 0 0 0.544 1.472 16 16 0 0 0 0.768 1.44 16 16 0 0 0 0.8 1.312 16 16 0 0 0 0.992 1.28 16 16 0 0 0 1.12 1.152 16 16 0 0 0 1.216 1.024 16 16 0 0 0 1.28 0.928 16 16 0 0 0 2.464 1.248 16 16 0 0 0 0.192 0.064 16 16 0 0 0 0.48 0.192 16 16 0 0 0 4.448 0.864 16 16 0 0 0 1.12 0.064h32a16 16 0 0 0 4.736-0.672c41.888-3.52 75.52-37.28 75.52-79.328 0-41.92-33.472-75.68-75.2-79.328a16 16 0 0 0-4.8-0.672h-28.8a16 16 0 0 0-3.904-0.448z m160.192 0.384a16 16 0 0 0-15.744 16.256v127.616a16 16 0 0 0 0 0.192 16 16 0 0 0 0.064 0.64 16 16 0 0 0 0 0.736 16 16 0 0 0 0.064 0.448 16 16 0 0 0 10.048 13.056 16 16 0 0 0 0.512 0.192 16 16 0 0 0 4.448 0.864 16 16 0 0 0 1.12 0.064h63.616a16 16 0 1 0 0-32h-47.872v-111.808a16 16 0 0 0-16.256-16.256z m128 0a16 16 0 0 0-15.744 16.256v127.616a16 16 0 0 0 0 0.192 16 16 0 0 0 0.064 0.64 16 16 0 0 0 0 0.736 16 16 0 0 0 0.064 0.448 16 16 0 0 0 10.048 13.056 16 16 0 0 0 0.512 0.192 16 16 0 0 0 4.448 0.864 16 16 0 0 0 1.12 0.064h63.616a16 16 0 1 0 0-32h-47.872v-111.808a16 16 0 0 0-16.256-16.256zM287.68 832h14.08c28.544 0 50.432 21.44 50.432 48S330.304 928 301.76 928h-14.08v-96z" fill="#E9EDED" /></svg>