<?xml version="1.0" standalone="no"?><!DOCTYPE svg PUBLIC "-//W3C//DTD SVG 1.1//EN" "http://www.w3.org/Graphics/SVG/1.1/DTD/svg11.dtd"><svg class="icon" width="14px" height="14.00px" viewBox="0 0 1024 1024" version="1.1" xmlns="http://www.w3.org/2000/svg"><path d="M901.63125 926.725c0 12.8-5.125 25.0875-14.3375 34.3-9.225 9.2125-21.5 14.3375-34.3125 14.3375H170.49375c-12.8 0-25.6-5.125-34.3-14.3375-9.2125-9.225-14.3375-21.5-14.3375-34.3V48.6375c0-12.8 5.1125-25.6 14.3375-34.3C144.89375 5.125 157.70625 0 170.49375 0H589.31875c12.8 0 25.6 5.125 34.8125 14.3375l263.675 263.6875c9.2125 9.2125 14.3375 21.5 14.3375 34.8125v613.8875h-0.5125z" fill="#EBECF0" /><path d="M901.63125 926.725v48.6375c0 12.8-5.125 25.6-14.3375 34.3-9.225 9.225-21.5 14.3375-34.3125 14.3375H170.49375c-27.1375 0-48.6375-22.0125-48.6375-48.6375v-48.6375c0 12.8 5.1125 25.0875 14.3375 34.3 9.2125 9.2125 21.5 14.3375 34.3 14.3375h682.5c27.1375 0 48.6375-22.0125 48.6375-48.6375z" fill="#C1C7D0" /><path d="M121.85625 536.575v-97.8L24.06875 536.575h97.7875z m779.775 0l1.025-97.8 97.275 97.8h-98.3z" fill="#444444" /><path d="M901.63125 312.8375v6.65H637.94375c-27.1375 0-48.6375-22.0125-48.6375-48.6375V0c12.8 0 25.6 5.125 34.8125 14.3375L888.31875 278.025c8.7 9.2125 13.825 21.5 13.3125 34.8125z" fill="#C1C7D0" /><path d="M24.58125 536.575v243.2c0 13.3125 5.1125 25.6 14.3375 34.8125 8.7 9.225 21.5 14.3375 34.3 14.3375h877.575c26.625 0 48.6375-21.5 48.6375-48.6375V536.575H24.58125zM384.64375 774.375c-15.4625 6.2-30.3625 10.7125-44.7125 13.5-14.3375 2.8-29.15 4.2-44.4 4.2-23.9 0-44.8375-4.625-62.7875-13.8875-17.95-9.25-31.7125-22.1-41.275-38.525-9.5625-16.425-14.3375-35.175-14.3375-56.225s4.625-38.4 13.8875-55.0875c9.25-16.6875 23.0125-30.0125 41.275-39.975 18.2625-9.9625 40.1-14.95 65.5375-14.95 14.75 0 28.325 1.2 40.7375 3.5875 12.4125 2.3875 26.4 6.5875 41.9625 12.5875v44.4c-11.4-6.6125-22.9375-11.5-34.6375-14.65-11.7-3.15-24.1125-4.725-37.2375-4.725-17.3 0-31.6625 3.3875-43.1 10.15s-19.8625 15.4125-25.25 25.9375c-5.3875 10.525-8.0875 21.4375-8.0875 32.725 0 12.3125 2.9 23.5 8.7 33.575s14.1125 18.025 24.95 23.875c10.8375 5.85 23.575 8.775 38.225 8.775 6 0 11.2375-0.3 15.7125-0.9125s10.075-1.9875 16.7875-4.125v-30.975h-32.5v-38h80.5625v98.725z m99.3375 14.95h-53.7125V576.1625h53.7125v213.1625z m185.55-175.0125H583.31875v46.5375h86.2125v38.45H583.31875v90.025h-53.7125V576.1625h139.925v38.15z m176.85 0h-86.2125v46.5375h86.2125v38.45h-86.2125v90.025h-53.7125V576.1625h139.925v38.15z" fill="#7A7A7A" /><path d="M304.08125 713.65h32.5v30.975c-6.7125 2.1375-12.3125 3.5125-16.7875 4.125-4.475 0.6125-9.7125 0.9125-15.7125 0.9125-14.65 0-27.3875-2.925-38.225-8.775-10.8375-5.85-19.15-13.8125-24.95-23.875s-8.7-21.2625-8.7-33.575c0-11.2875 2.7-22.2 8.0875-32.725 5.3875-10.525 13.8125-19.175 25.25-25.9375s25.8125-10.15 43.1-10.15c13.125 0 25.5375 1.575 37.2375 4.725 11.7 3.15 23.2375 8.0375 34.6375 14.65v-44.4c-15.5625-6-29.55-10.2-41.9625-12.5875-12.4125-2.3875-25.9875-3.5875-40.7375-3.5875-25.4375 0-47.275 4.9875-65.5375 14.95-18.2625 9.975-32.025 23.3-41.275 39.975-9.2625 16.6875-13.8875 35.05-13.8875 55.0875 0 21.0625 4.775 39.8 14.3375 56.225 9.5625 16.425 23.325 29.275 41.275 38.525 17.95 9.2625 38.8875 13.8875 62.7875 13.8875 15.2625 0 30.0625-1.4 44.4-4.2 14.3375-2.8 29.25-7.3 44.7125-13.5v-98.725H304.06875v38zM430.26875 576.175h53.7125v213.1625h-53.7125zM529.60625 789.3375h53.7125v-90.025h86.2125v-38.45H583.31875v-46.5375h86.2125v-38.15H529.60625v213.1625zM706.45625 789.3375h53.7125v-90.025h86.2v-38.45h-86.2v-46.5375h86.2v-38.15H706.45625v213.1625z" fill="#FFFFFF" /></svg>