<?xml version="1.0" standalone="no"?><!DOCTYPE svg PUBLIC "-//W3C//DTD SVG 1.1//EN" "http://www.w3.org/Graphics/SVG/1.1/DTD/svg11.dtd"><svg class="icon" width="14px" height="14.00px" viewBox="0 0 1024 1024" version="1.1" xmlns="http://www.w3.org/2000/svg"><path d="M145.621959 0c-44.79888 0-79.998 36.81188-79.998 81.61076v860.77848c0 44.79888 35.19912 81.61076 79.998 81.61076h732.781681a81.969151 81.969151 0 0 0 81.61076-81.61076V324.80468L657.60916 0h-511.987201z" fill="#F7622C" /><path d="M959.9888 326.39184v15.9996h-204.79488s-100.81028-20.81228-99.19752-108.79728c0 0 4.81268 92.79768 97.61036 92.79768H959.9888z" fill="#F54921" /><path d="M657.60916 0v233.59416c0 25.59936 17.61236 92.79768 97.61036 92.79768h204.79488L657.60916 0z" fill="#FFFFFF" /><path d="M292.895078 726.919427c-6.195045 0-10.444539-1.356766-12.748482-4.044699s-3.455914-6.39984-3.455913-11.110122c0-2.508737 0.255994-5.19667 0.742381-8.089398s1.151971-5.887853 1.945552-9.010975c1.407965-5.299068 2.969526-10.572536 4.735881-15.820404s3.507112-10.546936 5.247869-15.897203 3.455914-10.700532 5.094273-16.050798 3.123122-10.726132 4.428689-16.127597a10.137347 10.137347 0 0 0 0.153596-1.945552c0-1.407965-0.358391-2.508737-1.049574-3.302317s-1.740756-1.20317-3.148721-1.20317c-2.201545 0-4.582285 0.460788-7.116622 1.356766s-4.684683 1.894353-6.374241 2.995125c-6.707032 4.505487-12.569286 8.959776-17.612359 13.337267s-9.676558 9.010975-13.874854 13.798055-8.191795 9.958151-11.929301 15.410815-7.679808 11.417315-11.775706 17.919552c-3.507112 6.502237-6.092648 12.031699-7.807805 16.562786s-3.276718 8.217395-4.735881 11.033324-3.071923 4.81268-4.863879 6.067048-4.505487 1.868753-8.089398 1.868753c-3.9935 0-6.835029-1.151971-8.473388-3.455913s-2.483138-5.273468-2.483138-8.985376c0-2.892728 0.460788-6.143846 1.356766-9.753356l49.509163-198.292642c0.307192-1.20317 0.79358-2.508737 1.510362-3.891103a15.61561 15.61561 0 0 1 7.116622-6.886228 12.79968 12.79968 0 0 1 5.631859-1.20317c1.61276 0 3.302317 0.076798 5.094273 0.230394s3.430314 0.460788 4.863878 0.895978 2.662333 1.177571 3.60951 2.175945 1.433564 2.303942 1.433564 3.891103c0 0.40959-0.102397 1.228769-0.307192 2.483138s-0.511987 2.662333-0.895978 4.275093c-5.401465 21.708257-11.18692 44.286893-17.330766 67.787106l-18.661934 71.243018c6.092648-7.500612 12.441289-14.38684 19.045924-20.633084s13.362866-11.622109 20.325892-16.127596 14.156446-8.0126 21.60586-10.572536 15.18042-3.814305 23.167421-3.814305c5.094273 0 9.062173 1.61276 11.852503 4.863879s4.172696 7.398215 4.172696 12.39009c0 2.303942-0.307192 4.556686-0.895978 6.758231-1.20317 4.607885-2.559936 9.113372-4.044699 13.567661s-3.046324 8.934177-4.659083 13.414064-3.19992 9.062173-4.81268 13.721257-2.995125 9.420564-4.198295 14.335642c-1.61276 6.297443-2.687933 12.262093-3.302317 17.919552s-0.998375 10.162946-1.20317 13.567661c-0.204795 2.892728-0.639984 5.708657-1.356766 8.39659s-1.715157 5.068673-3.071923 7.116622-3.046324 3.711907-5.094273 4.940676-4.454289 1.894353-7.270218 1.894353zM379.753706 671.727207c0-8.39659 0.947176-17.125972 2.841529-26.162546s3.891103-17.714757 5.99025-26.034549c-2.611135-0.102397-5.247869-0.511987-7.961401-1.20317s-5.145471-1.638359-7.347016-2.841529-3.9935-2.662333-5.401465-4.428689-2.099148-3.763106-2.099147-6.067049a19.020324 19.020324 0 0 1 2.303942-7.57741c0.742381-1.356766 1.715157-2.508737 2.918327-3.455914s2.559936-1.433564 4.044699-1.433564h20.095498c1.894353 0 3.19992-0.81918 3.891102-2.483138s1.254369-3.276718 1.638359-4.863878c1.305567-5.811055 2.534337-10.828529 3.686308-15.078023l2.918327-10.80293c0.79358-2.943926 1.433564-5.350266 1.868753-7.193421a20.581885 20.581885 0 0 0 0.511988-8.166195c-0.102397-1.177571-0.051199-2.841529-0.051199-4.940677v-1.510362c0-0.79358 0.076798-1.843154 0.230394-3.148721s0.614385-3.148721 1.433564-5.555062c0.588785-1.894353 1.689558-3.711907 3.302318-5.401464s3.942301-2.559936 7.039824-2.559936c2.687933 0 4.991875 0.537587 6.911827 1.638359s3.455914 2.559936 4.659084 4.351891 2.099148 3.839904 2.687932 6.143846 0.895978 4.607885 0.895978 6.911827c0 2.508737-0.255994 4.761481-0.742382 6.758231l-10.956526 42.00855c5.401465-0.895978 10.188545-1.740756 14.41244-2.559936l12.594885-2.40634c4.607885-0.895978 8.575786-1.740756 11.929302-2.559936s6.220644-1.484763 8.626984-2.022349l6.067049-1.356766a19.967501 19.967501 0 0 1 4.121497-0.537587c1.61276 0 3.225519 0.127997 4.863878 0.383991s3.097523 0.665583 4.351891 1.279968 2.278343 1.459164 3.071923 2.559936 1.20317 2.559936 1.20317 4.351891c0 2.40634-0.486388 4.531087-1.433564 6.374241s-2.175946 3.455914-3.686308 4.812679-3.19992 2.457539-5.094272 3.302318-3.788705 1.484763-5.708658 1.868753c-1.61276 0.307192-3.686308 0.742381-6.220644 1.356766s-5.350266 1.254369-8.39659 1.945551-6.220644 1.459164-9.522962 2.252744-6.502237 1.61276-9.59976 2.40634c-4.607885 1.20317-8.524587 2.201545-11.775706 2.995125s-6.01585 1.407965-8.319792 1.791955-4.172696 0.691183-5.631859 0.895978-2.636734 0.307192-3.532712 0.307192c-1.894353 5.708657-3.558311 11.289318-4.940676 16.79318s-2.585535 10.623734-3.532712 15.385216-1.638359 9.010975-2.099147 12.748481-0.665583 6.681433-0.665584 8.78058c0 2.687933 0.255994 5.273468 0.742382 7.731007s1.356766 4.582285 2.559936 6.374241 2.81593 3.225519 4.863878 4.275093 4.633484 1.58716 7.731007 1.58716c5.299068 0 10.495738-1.459164 15.59001-4.351891s9.98375-6.579036 14.617235-11.033324 9.062173-9.318167 13.209269-14.617235 7.987-10.342141 11.468514-15.154821c1.20317-1.791955 2.739132-2.687933 4.659083-2.687933a9.574161 9.574161 0 0 1 4.659084 1.356766c0.81918 0.511987 1.484763 1.151971 2.022349 1.945552s0.81918 1.740756 0.81918 2.841529a7.679808 7.679808 0 0 1-0.153596 1.791955c-1.61276 6.195045-4.070298 12.41569-7.423815 18.661933s-6.78383 12.518087-10.265343 18.81553c-1.20317 2.201545-2.764731 4.351891-4.735882 6.451039s-4.070298 4.121497-6.37424 6.067048-4.710282 3.788705-7.193421 5.555061-4.838279 3.327917-7.039824 4.735882c-3.788705 2.40634-7.961401 4.044699-12.441289 4.940676s-8.857379 1.356766-13.055673 1.356766c-6.502237 0-12.262093-1.177571-17.330767-3.532711s-9.292568-5.555061-12.748481-9.59976-6.067048-8.78058-7.884603-14.182046-2.687933-11.18692-2.687933-17.381965zM520.601385 708.487888c2.995125-11.698908 5.887853-22.604235 8.703782-32.690383s5.529462-19.762706 8.166196-29.029674l7.731007-26.930527c2.508737-8.703782 4.889478-17.561161 7.19342-26.546536 0.895978-3.507112 1.433564-6.886228 1.58716-10.137347s0.614385-6.630234 1.433565-10.137346c0.40959-1.20317 1.126372-2.278343 2.175945-3.22552a18.585135 18.585135 0 0 1 11.775706-4.710282c2.79033 0 5.119872 0.332792 6.963026 0.972776s3.353516 1.535962 4.505487 2.636734 1.945551 2.431939 2.40634 3.967901 0.665583 3.276718 0.665583 5.17107c0 3.404715-0.537587 6.835029-1.638359 10.265344s-2.457539 7.21902-4.044699 11.314917c4.710282-3.711907 9.522962-7.19342 14.463639-10.495738s10.060548-6.195045 15.308417-8.703782 10.623734-4.505487 16.127597-5.99025 11.21252-2.252744 17.100372-2.252744c2.687933 0 5.401465 0.435189 8.089398 1.279968s5.119872 2.175946 7.270218 3.967901 3.942301 4.147096 5.401465 7.039824 2.278343 6.451039 2.483138 10.649333c4.300692-2.892728 8.754981-5.836654 13.337267-8.78058s9.266968-5.60626 14.028449-7.961401 9.497363-4.249494 14.258844-5.708657 9.369366-2.175946 13.874853-2.175946c6.707032 0 12.236494 0.870378 16.562786 2.636734s7.807805 4.095898 10.342141 7.039824 4.351891 6.374241 5.401465 10.265344 1.58716 8.038199 1.58716 12.441288c0 4.81268-0.460788 9.753356-1.356766 14.847629s-1.894353 9.958151-2.995125 14.540437c-2.892728 11.59651-6.143846 22.578636-9.753356 32.920777s-7.500612 20.81228-11.698907 31.436014l-3.148722 7.961401c-1.100772 2.81593-2.38074 5.375866-3.814304 7.731007s-3.148721 4.300692-5.094273 5.862253-4.223894 2.329542-6.835029 2.329542c-5.887853 0-9.958151-0.998375-12.159696-2.995125s-3.302317-4.838279-3.302318-8.550187c0-0.998375 0.051199-2.150346 0.153597-3.455913s0.358391-2.559936 0.742381-3.737507c0.40959-1.510362 1.305567-3.686308 2.687933-6.527837s2.918327-5.913452 4.582285-9.215769 3.276718-6.630234 4.863879-9.983751 2.79033-6.271843 3.609509-8.78058c1.305567-4.300692 2.81593-9.266968 4.582286-14.924427s3.430314-11.340516 5.017474-17.100372 2.918327-11.21252 3.967901-16.357991 1.58716-9.318167 1.587161-12.518088c0-1.510362-0.153596-2.995125-0.460789-4.505487s-0.81918-2.79033-1.58716-3.891103-1.791955-1.99675-3.148722-2.687932-3.071923-1.049574-5.17107-1.049574c-2.995125 0-6.579036 0.844779-10.726132 2.559936s-8.447789 3.916702-12.902078 6.681433-8.78058 5.862253-12.978875 9.292567-7.807805 6.886228-10.80293 10.265344c-2.099148 2.40634-4.095898 4.351891-5.99025 5.862253s-3.788705 2.662333-5.708658 3.455914c-0.204795 0.40959-0.691183 1.715157-1.510362 3.967901s-1.740756 4.940676-2.841529 8.089397-2.252744 6.553436-3.455913 10.188546l-3.379116 10.188545-2.636734 7.961401c-0.716782 2.150346-1.049574 3.327917-1.049574 3.532712-0.691183 2.79033-1.305567 5.683058-1.791955 8.626984l-1.356766 8.473388c-0.40959 2.687933-0.767981 5.58066-1.126372 8.626984s-1.049574 5.887853-2.099147 8.550187-2.662333 4.81268-4.81268 6.527837-5.171071 2.559936-9.062173 2.559936c-1.99675 0-3.814305-0.511987-5.478264-1.510363s-3.071923-2.278343-4.275093-3.814304-2.150346-3.302317-2.841529-5.247869-1.100772-3.916702-1.20317-5.913452c2.303942-9.010975 4.556686-17.100372 6.758232-24.293793s4.40309-14.105247 6.604634-20.709882 4.326292-13.234869 6.374241-19.865104 4.070298-13.977251 6.067048-21.96425c0.511987-1.894353 0.895978-3.763106 1.20317-5.63186s0.460788-3.481513 0.460789-4.863878c0-2.40634-0.511987-4.377491-1.510362-5.913452s-2.739132-2.329542-5.247869-2.329542c-4.095898 0-8.166196 0.81918-12.236494 2.483138s-8.422189 4.223894-13.132472 7.731007-9.932552 7.961401-15.666808 13.337266-12.364491 11.852504-19.865104 19.353116c-0.79358 1.510362-1.843154 4.300692-3.148721 8.39659s-2.636734 8.447789-3.967901 13.055674-2.585535 8.882978-3.686308 12.825279-1.791955 6.579036-2.099147 7.884603c-1.100772 4.198295-1.843154 7.731007-2.252744 10.572536l-1.049574 7.731007c-0.204795 1.20317-0.511987 3.174321-0.895977 5.913452s-1.126372 5.529462-2.175946 8.319792-2.534337 5.273468-4.428689 7.423814-4.40309 3.225519-7.500613 3.22552c-4.607885 0-8.370991-1.254369-11.314917-3.737507a11.878103 11.878103 0 0 1-4.275093-11.391715 18.687533 18.687533 0 0 1 0.486388-1.99675zM830.046449 512.729582c0.511987-3.9935 1.305567-7.705407 2.40634-11.110122s2.585535-6.220644 4.428689-8.473389 4.223894-3.379116 7.116622-3.379115c1.61276 0 3.379116 0.307192 5.324667 0.895977s3.788705 1.433564 5.555061 2.483138 3.225519 2.329542 4.428689 3.814305 1.791955 3.148721 1.791956 4.940676c0 0.79358-0.153596 1.715157-0.460789 2.764731s-0.537587 2.073548-0.742381 3.071924l-37.503063 150.293842c-1.510362 5.99025-2.739132 11.724507-3.737506 17.177171s-1.740756 9.932552-2.252744 13.414064v3.60951c0 2.995125-0.204795 6.271843-0.588785 9.830154s-1.151971 6.860628-2.252744 9.906953-2.636734 5.60626-4.582285 7.654208-4.479888 3.071923-7.577411 3.071924c-2.687933 0-5.043074-0.563186-7.039824-1.715158s-3.660708-2.636734-4.940677-4.428689-2.252744-3.737507-2.841528-5.785455-0.895978-3.967901-0.895978-5.785456c0-1.61276 0.153596-3.58391 0.460788-5.913452s0.665583-4.81268 1.126372-7.347016 0.921577-5.094273 1.433564-7.654209 0.998375-4.78708 1.510363-6.681433l38.706232-153.59616a193.275168 193.275168 0 0 1 1.126372-11.058923z" fill="#FFFFFF" /></svg>