<?xml version="1.0" standalone="no"?><!DOCTYPE svg PUBLIC "-//W3C//DTD SVG 1.1//EN" "http://www.w3.org/Graphics/SVG/1.1/DTD/svg11.dtd"><svg class="icon" width="14px" height="14.00px" viewBox="0 0 1024 1024" version="1.1" xmlns="http://www.w3.org/2000/svg"><path d="M901.632 926.72c0 12.8-5.12 25.088-14.336 34.304-9.216 9.216-21.504 14.336-34.304 14.336H170.496c-12.8 0-25.6-5.12-34.304-14.336-9.216-9.216-14.336-21.504-14.336-34.304V48.64c0-12.8 5.12-25.6 14.336-34.304C144.896 5.12 157.696 0 170.496 0h418.816c12.8 0 25.6 5.12 34.816 14.336l263.68 263.68c9.216 9.216 14.336 21.504 14.336 34.816V926.72z" fill="#EBECF0" /><path d="M901.632 926.72v48.64c0 12.8-5.12 25.6-14.336 34.304-9.216 9.216-21.504 14.336-34.304 14.336H170.496c-27.136 0-48.64-22.016-48.64-48.64V926.72c0 12.8 5.12 25.088 14.336 34.304 9.216 9.216 21.504 14.336 34.304 14.336h682.496c27.136 0 48.64-22.016 48.64-48.64z" fill="#C1C7D0" /><path d="M24.064 536.576h975.36v243.712c0 27.136-22.016 48.64-48.64 48.64H73.216c-12.8 0-25.6-5.12-34.304-14.336-9.216-9.216-14.336-21.504-14.336-34.816v-243.2z" fill="#10D6E5" /><path d="M121.856 536.576V438.784L24.064 536.576h97.792z m779.776 0l1.024-97.792 97.28 97.792h-98.304z" fill="#00B3C6" /><path d="M901.632 312.832v6.656h-263.68c-27.136 0-48.64-22.016-48.64-48.64V0c12.8 0 25.6 5.12 34.816 14.336l264.192 263.68c8.704 9.216 13.824 21.504 13.312 34.816z" fill="#C1C7D0" /><path d="M196.608 761.856h-49.664v-148.992h49.664v148.992zM268.8 761.856h-44.544v-148.992h59.392l26.624 93.184 26.112-93.184h59.392v148.992h-43.52v-45.568l1.024-23.552 2.56-26.624h-1.024l-26.624 95.744h-33.792l-27.648-95.744 1.536 22.016 1.536 23.552v50.176zM457.728 761.856H409.6l53.248-148.992h49.664l53.248 148.992H517.12l-5.12-19.456h-48.64l-5.632 19.456z m46.08-51.2l-16.384-53.248-15.36 53.248h31.744zM727.552 679.936v81.92h-31.744l-1.536-14.336c-9.728 11.264-25.088 16.896-45.568 16.896-46.592-2.048-70.656-27.136-72.192-75.264 2.56-51.2 28.672-77.824 77.824-80.384 39.936 1.024 64 19.456 71.168 55.296h-47.104c-3.072-12.288-11.776-18.432-25.088-18.432-18.432 0.512-27.648 15.36-28.16 43.52 0.512 27.136 11.264 40.448 31.744 40.448 12.8-1.536 21.504-7.168 25.088-16.896h-22.016v-32.256h67.584zM881.152 761.856h-124.928v-148.992h122.368v34.816h-72.704v20.992h61.44v34.816h-61.44v23.552h75.264v34.816z" fill="#FFFFFF" /></svg>