<?xml version="1.0" standalone="no"?><!DOCTYPE svg PUBLIC "-//W3C//DTD SVG 1.1//EN" "http://www.w3.org/Graphics/SVG/1.1/DTD/svg11.dtd"><svg class="icon" width="14px" height="14.00px" viewBox="0 0 1024 1024" version="1.1" xmlns="http://www.w3.org/2000/svg"><path d="M847.872 240.128v688c0 26.56-21.408 48-48 48h-576c-26.56 0-48-21.44-48-48v-832c0-26.592 21.44-48 48-48h432z" fill="#E9EDED" /><path d="M160 768.128v160c0 35.456 28.544 64 64 64h576c35.456 0 64-28.544 64-64v-160H160z" fill="#F8B84E" /><path d="M847.872 240.128h-144c-26.56 0-48-21.44-48-48v-144" fill="#F8B84E" /><path d="M511.872 288c-105.856 0-192 86.144-192 192s86.144 192 192 192 192-86.144 192-192-86.144-192-192-192z m0 32c88.544 0 160 71.456 160 160s-71.456 160-160 160-160-71.456-160-160 71.456-160 160-160z m0 96c-35.168 0-64 28.832-64 64s28.832 64 64 64 64-28.832 64-64-28.832-64-64-64z m0 32c17.856 0 32 14.144 32 32s-14.144 32-32 32-32-14.144-32-32 14.144-32 32-32z" fill="#F8B84E" /><path d="M271.424 799.808a16 16 0 0 0-15.744 16.192v127.808a16 16 0 1 0 32 0V816a16 16 0 0 0-16.256-16.192zM366.08 800a16 16 0 0 0-1.984 0.384c-24.64 1.92-44.384 22.528-44.384 47.616 0 25.28 20.096 46.08 44.992 47.68a16 16 0 0 0 3.008 0.32h32c9.152 0 16 6.848 16 16 0 9.152-6.848 16-16 16h-64a16 16 0 1 0 0 32h64a16 16 0 0 0 3.328-0.384A48.096 48.096 0 0 0 447.68 912c0-25.152-19.84-45.856-44.544-47.68a16 16 0 0 0-3.456-0.32h-30.88a16 16 0 0 0-1.12 0 15.616 15.616 0 0 1-16-16c0-9.152 6.88-16 16-16h64a16 16 0 1 0 0-32h-62.88a16 16 0 0 0-1.12 0 16 16 0 0 0-1.6 0z m193.632 0a80.256 80.256 0 0 0-80 80c0 44 36 80 80 80s80-36 80-80-36-80-80-80z m0 32c26.72 0 48 21.312 48 48s-21.28 48-48 48c-26.688 0-48-21.312-48-48s21.312-48 48-48z" fill="#E9EDED" /></svg>