<?xml version="1.0" standalone="no"?><!DOCTYPE svg PUBLIC "-//W3C//DTD SVG 1.1//EN" "http://www.w3.org/Graphics/SVG/1.1/DTD/svg11.dtd"><svg class="icon" width="14px" height="14.00px" viewBox="0 0 1024 1024" version="1.1" xmlns="http://www.w3.org/2000/svg"><path d="M847.872 240.128v688c0 26.56-21.408 48-48 48h-576c-26.56 0-48-21.44-48-48v-832c0-26.592 21.44-48 48-48h432z" fill="#E9EDED" /><path d="M160 768.128v160c0 35.456 28.544 64 64 64h576c35.456 0 64-28.544 64-64v-160H160z" fill="#F17F53" /><path d="M847.872 240.128h-144c-26.56 0-48-21.44-48-48v-144" fill="#F17F53" /><path d="M367.744 191.808A16 16 0 0 0 352 208v64a16 16 0 1 0 32 0v-64a16 16 0 0 0-16.256-16.192z m128 0A16 16 0 0 0 480 208v64a16 16 0 1 0 32 0v-64a16 16 0 0 0-16.256-16.192zM432 224a16 16 0 0 0-16 16 16 16 0 0 0 16 16 16 16 0 0 0 16-16 16 16 0 0 0-16-16z m-0.256 63.552a16 16 0 0 0-15.744 16.256v32a16 16 0 1 0 32 0v-32a16 16 0 0 0-16.256-16.256zM368 320a16 16 0 0 0-16 16 16 16 0 0 0 16 16 16 16 0 0 0 16-16 16 16 0 0 0-16-16z m128 0a16 16 0 0 0-16 16 16 16 0 0 0 16 16 16 16 0 0 0 16-16 16 16 0 0 0-16-16z m-160 64a16 16 0 0 0-16 16v46.88A16 16 0 0 0 320 448v160c0 35.2 28.8 64 64 64h160c35.2 0 64-28.8 64-64h32c35.2 0 64-28.8 64-64v-32c0-35.2-28.8-64-64-64h-32v-48a16 16 0 0 0-16-16h-256z m16 32h224v192c0 18.016-13.984 32-32 32h-160c-18.016 0-32-13.984-32-32v-40.96a16 16 0 0 0 0-1.024V416z m256 64h32c18.016 0 32 13.984 32 32v32c0 18.016-13.984 32-32 32h-32v-8.96a16 16 0 0 0 0-1.024V480z" fill="#F17F53" /><path d="M590.72 799.552a16 16 0 0 0-0.224 0.064 16 16 0 0 0-1.568 0.256 16 16 0 0 0-12.544 18.24v59.136a16 16 0 0 0 0 5.12v61.44a16 16 0 1 0 32 0v-48h5.6l27.648 55.2a16 16 0 1 0 28.608-14.336L646.72 889.6a48 48 0 0 0 25.44-42.016c0-24.96-19.616-45.568-44.128-47.616a16 16 0 0 0-3.616-0.384h-32a16 16 0 0 0-0.256 0 16 16 0 0 0-1.376 0z m-126.592 0.256a16 16 0 0 0-14.4 8.864l-64 128a16 16 0 1 0 28.64 14.336l11.52-23.008h76.352l11.52 23.008a16 16 0 1 0 28.608-14.336l-64-128a16 16 0 0 0-14.24-8.864zM335.872 800a16 16 0 0 0-15.744 16.256V912c0 9.152-6.848 16-16 16a15.616 15.616 0 0 1-16-16 16 16 0 0 0-16.256-16.192 16 16 0 0 0-15.744 16.192c0 26.304 21.696 48 48 48 24.768 0 45.12-19.296 47.488-43.52a16 16 0 0 0 0.512-4.224v-96a16 16 0 0 0-16.256-16.256z m272.512 31.552h15.744c9.152 0 16 6.88 16 16 0 9.152-6.848 16-16 16v0.064a16 16 0 0 0-1.504 0.064 16 16 0 0 0-1.056 0.128h-13.184v-32.256z m-144.32 20.064L486.24 896H441.92l22.176-44.384z" fill="#E9EDED" /></svg>