<?xml version="1.0" standalone="no"?><!DOCTYPE svg PUBLIC "-//W3C//DTD SVG 1.1//EN" "http://www.w3.org/Graphics/SVG/1.1/DTD/svg11.dtd"><svg class="icon" width="14px" height="14.00px" viewBox="0 0 1024 1024" version="1.1" xmlns="http://www.w3.org/2000/svg"><path d="M901.63125 926.725c0 12.8-5.125 25.0875-14.3375 34.3-9.225 9.2125-21.5 14.3375-34.3125 14.3375H170.49375c-12.8 0-25.6-5.125-34.3-14.3375-9.2125-9.225-14.3375-21.5-14.3375-34.3V48.6375c0-12.8 5.1125-25.6 14.3375-34.3C144.89375 5.125 157.70625 0 170.49375 0H589.31875c12.8 0 25.6 5.125 34.8125 14.3375l263.675 263.6875c9.2125 9.2125 14.3375 21.5 14.3375 34.8125v613.8875h-0.5125z" fill="#EBECF0" /><path d="M901.63125 926.725v48.6375c0 12.8-5.125 25.6-14.3375 34.3-9.225 9.225-21.5 14.3375-34.3125 14.3375H170.49375c-27.1375 0-48.6375-22.0125-48.6375-48.6375v-48.6375c0 12.8 5.1125 25.0875 14.3375 34.3 9.2125 9.2125 21.5 14.3375 34.3 14.3375h682.5c27.1375 0 48.6375-22.0125 48.6375-48.6375z" fill="#C1C7D0" /><path d="M24.06875 536.575h975.3625v243.7125c0 27.1375-22.0125 48.6375-48.6375 48.6375H73.21875c-12.8 0-25.6-5.1125-34.3-14.3375C29.69375 805.375 24.58125 793.0875 24.58125 779.775V536.575H24.06875z" fill="#2473FF" /><path d="M121.85625 536.575v-97.8L24.06875 536.575h97.7875z m779.775 0l1.025-97.8 97.275 97.8h-98.3z" fill="#0A62E2" /><path d="M901.63125 312.8375v6.65H637.94375c-27.1375 0-48.6375-22.0125-48.6375-48.6375V0c12.8 0 25.6 5.125 34.8125 14.3375L888.31875 278.025c8.7 9.2125 13.825 21.5 13.3125 34.8125z" fill="#C1C7D0" /><path d="M141.21875 704.7625c0 41.2-18.475 55.925-53.9375 55.925-7.3375 0-14.5625-0.475-21.35-1.525v-28.2375c4.1875 0.675 10.5875 0.9625 15.45 0.9625 15.3 0 23.75-6.05 23.75-25.2125v-97.025h36.075v95.1zM205.94375 724l-12.9125 33.5625h-36.9125l59.575-147.9h46.025l62.625 147.9h-38.8125l-13.75-33.5625h-65.825z m55.8-28.7625c-13.7625-33.9-20.4625-51.175-24.0125-62.475h-0.2125c-3.3125 11.0625-11.1625 33.5625-22.2875 62.475h46.5zM369.65625 713.25c4.2375 12.7625 14.45 21.15 39 21.15 22.9875 0 29.6375-7.025 29.6375-16.5625 0-10.2-6.8125-15.9375-37.975-21.225-51.325-8.775-60.6625-25.45-60.6625-45.2875 0-29.5375 28.4375-44.625 63.4-44.625 50.7625 0 64.5375 26.1 66.225 43.2875h-35.9375c-2.0875-7.325-7.0125-17.1375-31.4125-17.1375-17.1 0-25.7625 5.4375-25.7625 15 0 8.55 6.0875 12.85 33.8625 17.825 56.2 10.0875 64.9875 27.05 64.9875 48.5 0 25.6375-20.1125 46.35-69.725 46.35-46.275 0-67.1125-20.65-71.6-47.2875h35.9625zM504.10625 609.6625h76.525c34.3875 0 57.25 17.3875 57.25 46.4875s-21.5375 48.35-57.825 48.35h-39.8875v53.0625h-36.075V609.6625z m36.075 66.975h37.1c15.2 0 24.8125-5.2125 24.8125-19.9 0-11.975-7.3625-19.3875-24.8125-19.3875h-37.1v39.2875zM781.29375 695.1625h-82.5375v33.6625h91.7875l-4.1375 28.7375h-123.5375V609.6625h122.9v28.7375h-87v28.0125h82.5375v28.7375zM852.91875 700.575v57h-35.525V609.675h80.55c34.1 0 53.625 16.825 53.625 42.25 0 19.1-11.1 30.3375-25.7375 34.9875 6.05 2.3875 21.925 8.2 21.925 34.7625v7.3875c0 10.15-0.1875 21.525 1.8625 28.5125h-36.8375c-2.475-6.5125-2.7625-15.25-2.7625-30.95v-4.85c0-14.95-5.4875-21.1875-27.0375-21.1875h-30.0625z m0-26.925h36.9875c17.425 0 24.975-6.2875 24.975-18.75 0-11.6875-7.7375-18.3125-24.6625-18.3125h-37.3v37.075z" fill="#FFFFFF" /></svg>