<?xml version="1.0" standalone="no"?><!DOCTYPE svg PUBLIC "-//W3C//DTD SVG 1.1//EN" "http://www.w3.org/Graphics/SVG/1.1/DTD/svg11.dtd"><svg class="icon" width="14px" height="14.00px" viewBox="0 0 1024 1024" version="1.1" xmlns="http://www.w3.org/2000/svg"><path d="M144.7936 0c-44.8 0-80 36.8128-80 81.6128v860.8c0 44.8 35.2 81.6128 80 81.6128h732.8a81.9712 81.9712 0 0 0 81.6128-81.6128V324.8128L656.7936 0h-512z" fill="#E67C53" /><path d="M656.768 0v233.6c0 25.6 17.6128 92.8 97.6128 92.8h204.8L656.768 0z" fill="#FFFFFF" /><path d="M256.3584 522.7008c-1.792 0-4.864-0.384-9.216-1.1264s-7.7312-1.1264-10.1376-1.1264c-4.8896 0-10.6496 0.1536-17.2544 0.4608l0.7424 17.8432c0 74.3936-4.9408 128.5376-14.848 162.4576-6.6048 22.4-18.1504 33.6128-34.6624 33.6128-17.408 0-34.6624-6.2976-51.7376-18.8928-18.8928-14.0032-28.3392-30.0544-28.3392-48.1536 0-12.288 5.0432-18.4576 15.1552-18.4576s15.1552 6.0416 15.1552 18.1504c0 8.2944 5.888 16.5376 17.6896 24.7552 11.2896 7.808 21.9904 11.6992 32.1024 11.6992 8.192 0 13.9008-25.1392 17.1008-75.4432 1.5104-23.808 2.2528-53.7088 2.2528-89.7024 0-2.7904-0.256-8.192-0.7424-16.2048l-9.1392 0.1536c-3.8912 0-9.7792-0.128-17.6128-0.384s-13.7728-0.384-17.7664-0.384c-4.4032 0-8.0896-1.408-11.1104-4.1984s-4.5056-6.6048-4.5056-11.392c0-10.2912 6.9376-15.4624 20.8384-15.4624 3.4048 0 8.448 0.1536 15.1552 0.4608s11.6992 0.4608 15.0016 0.4608c6.2976 0 15.7184-0.384 28.2624-1.1264s21.9648-1.1264 28.2624-1.1264c22.8096 0 34.2016 5.8112 34.2016 17.408a15.8208 15.8208 0 0 1-4.0448 10.6496 13.696 13.696 0 0 1-10.8032 5.0688zM468.608 721.3056c-9.1904 0-17.2032-11.8016-24.0128-35.4048-2.6112-9.0112-5.8624-24.7552-9.7536-47.2576-10.1888 1.408-23.552 3.8912-40.0384 7.5008l-39.9104 8.2432c-4.992 13.1072-13.5424 32.256-25.6512 57.4464-3.2 5.6064-7.552 8.3968-13.056 8.3968-3.9936 0-7.5776-1.4592-10.7264-4.352s-4.736-6.5024-4.736-10.8032c0-4.8128 7.552-23.04 22.656-54.7584a16.2048 16.2048 0 0 1-2.56-9.0112c0-8.0896 4.8896-13.312 14.6944-15.5904a1238.656 1238.656 0 0 1 43.2128-73.8048c23.7056-37.888 38.4512-56.8576 44.2624-56.8576 7.9104 0 13.312 5.504 16.2048 16.512l9.4464 50.4064 22.3488 104.2432 8.5504 23.7056c2.8928 8.0896 4.352 13.4912 4.352 16.2048 0 4.3008-1.5616 7.9104-4.6592 10.8032s-6.6304 4.3776-10.624 4.3776z m-52.9664-171.4432L372.736 619.008a821.504 821.504 0 0 1 55.04-11.2384l-12.1344-57.9072zM701.696 511.1552a148.3776 148.3776 0 0 0-15.1552 29.2608l-11.392 32.8448-40.3456 109.056c-4.7104 12.8-10.1888 25.2928-16.512 37.504-3.2 5.9904-7.7056 9.0112-13.4912 9.0112-7.7056 0-13.1072-3.8912-16.2048-11.6992-12.1088-30.4128-25.5488-74.1376-40.3456-131.2512l-11.8528-41.2416c-5.888-20.8128-8.8576-34.4064-8.8576-40.8064 0-4.5056 1.6128-8.192 4.8128-11.1104a14.8992 14.8992 0 0 1 10.496-4.0448c7.6032 0 12.4928 4.096 14.6944 12.288l5.5552 26.112 14.4128 50.9952c9.6 37.1968 18.944 69.248 28.0576 96.1536l0.896-2.4064 40.192-108.9024 12.7488-36.7616c5.7088-14.7968 11.7504-26.0096 18.1504-33.6128a14.7712 14.7712 0 0 1 11.6992-5.9904c3.9936 0 7.5776 1.536 10.7264 4.5824s4.736 6.7328 4.736 11.0336a16.4096 16.4096 0 0 1-3.0208 8.9856zM892.9536 721.3056c-9.1904 0-17.2032-11.8016-24.0128-35.4048-2.6112-9.0112-5.8624-24.7552-9.7536-47.2576-10.1888 1.408-23.552 3.8912-40.0384 7.5008l-39.9104 8.2432c-4.992 13.1072-13.5424 32.256-25.6512 57.4464-3.2 5.6064-7.552 8.3968-13.056 8.3968-3.9936 0-7.5776-1.4592-10.7264-4.352s-4.736-6.5024-4.736-10.8032c0-4.8128 7.552-23.04 22.656-54.7584a16.2048 16.2048 0 0 1-2.56-9.0112c0-8.0896 4.8896-13.312 14.6944-15.5904a1238.656 1238.656 0 0 1 43.2128-73.8048c23.7056-37.888 38.4512-56.8576 44.2624-56.8576 7.9104 0 13.312 5.504 16.2048 16.512l9.4464 50.4064 22.3488 104.2432 8.5504 23.7056c2.8928 8.0896 4.352 13.4912 4.352 16.2048 0 4.3008-1.5616 7.9104-4.6592 10.8032s-6.6304 4.3776-10.624 4.3776z m-52.9408-171.4432l-42.9056 69.1456a821.504 821.504 0 0 1 55.04-11.2384l-12.1344-57.9072z" fill="#FFFFFF" /></svg>