<?xml version="1.0" standalone="no"?><!DOCTYPE svg PUBLIC "-//W3C//DTD SVG 1.1//EN" "http://www.w3.org/Graphics/SVG/1.1/DTD/svg11.dtd"><svg class="icon" width="14px" height="14.00px" viewBox="0 0 1024 1024" version="1.1" xmlns="http://www.w3.org/2000/svg"><path d="M901.632 926.72c0 12.8-5.12 25.088-14.336 34.304-9.216 9.216-21.504 14.336-34.304 14.336H170.496c-12.8 0-25.6-5.12-34.304-14.336-9.216-9.216-14.336-21.504-14.336-34.304V48.64c0-12.8 5.12-25.6 14.336-34.304C144.896 5.12 157.696 0 170.496 0h418.816c12.8 0 25.6 5.12 34.816 14.336l263.68 263.68c9.216 9.216 14.336 21.504 14.336 34.816V926.72z" fill="#EBECF0" /><path d="M901.632 926.72v48.64c0 12.8-5.12 25.6-14.336 34.304-9.216 9.216-21.504 14.336-34.304 14.336H170.496c-27.136 0-48.64-22.016-48.64-48.64V926.72c0 12.8 5.12 25.088 14.336 34.304 9.216 9.216 21.504 14.336 34.304 14.336h682.496c27.136 0 48.64-22.016 48.64-48.64z" fill="#C1C7D0" /><path d="M24.064 536.576h975.36v243.712c0 27.136-22.016 48.64-48.64 48.64H73.216c-12.8 0-25.6-5.12-34.304-14.336-9.216-9.216-14.336-21.504-14.336-34.816v-243.2z" fill="#26B99A" /><path d="M121.856 536.576V438.784L24.064 536.576h97.792z m779.776 0l1.024-97.792 97.28 97.792h-98.304z" fill="#109978" /><path d="M901.632 312.832v6.656h-263.68c-27.136 0-48.64-22.016-48.64-48.64V0c12.8 0 25.6 5.12 34.816 14.336l264.192 263.68c8.704 9.216 13.824 21.504 13.312 34.816z" fill="#C1C7D0" /><path d="M133.12 697.344h55.296c-1.536 28.16 4.096 41.984 16.384 40.96 10.24-0.512 15.36-8.704 15.36-23.552v-124.416h61.44V706.56c0 50.688-24.576 76.288-74.24 76.288-53.76-1.024-78.848-29.184-74.24-85.504zM377.856 779.776h-61.44v-188.928h90.624c52.736 0.512 79.872 22.016 81.408 63.488-0.512 44.032-27.136 66.048-79.36 66.56h-30.72v58.88z m0-102.912h25.6c16.384 0 24.576-7.68 24.576-22.528 0-12.8-10.752-19.456-32.768-19.456h-17.408v41.984zM667.648 779.776H509.44v-188.928h155.136v44.032h-92.672v26.624H650.24v44.032h-78.336v29.696h95.744v44.544zM880.64 675.84v103.936h-39.936l-2.048-18.432c-12.288 14.336-31.744 21.504-57.344 21.504-58.88-2.56-89.6-34.816-91.648-95.744 3.584-65.024 36.352-98.816 98.816-101.888 50.688 1.536 80.896 24.576 90.624 69.632h-59.392c-4.096-15.872-14.848-23.552-31.744-23.552-23.552 0.512-35.328 18.944-35.84 55.296 0.512 34.304 13.824 51.2 39.936 51.2 16.384-2.048 27.136-9.216 31.744-21.504h-27.648v-40.96H880.64z" fill="#FFFFFF" /></svg>