<?xml version="1.0" standalone="no"?><!DOCTYPE svg PUBLIC "-//W3C//DTD SVG 1.1//EN" "http://www.w3.org/Graphics/SVG/1.1/DTD/svg11.dtd"><svg class="icon" width="14px" height="14.00px" viewBox="0 0 1024 1024" version="1.1" xmlns="http://www.w3.org/2000/svg"><path d="M901.851653 926.484607a48.255937 48.255937 0 0 1-14.274541 34.442195 48.844737 48.844737 0 0 1-34.457555 14.279661H170.419644a48.220097 48.220097 0 0 1-34.457555-14.279661 48.844737 48.844737 0 0 1-14.279662-34.442195V48.846068a48.317377 48.317377 0 0 1 14.279662-34.467795A48.844737 48.844737 0 0 1 170.419644 0.001331h418.800096a48.742337 48.742337 0 0 1 34.662355 14.131182l263.858857 263.910057a48.844737 48.844737 0 0 1 14.110701 34.667475z" fill="#EBECF0" /><path d="M901.851653 926.484607v48.767936a48.317377 48.317377 0 0 1-14.274541 34.467796 48.844737 48.844737 0 0 1-34.457555 14.279661H170.419644a48.844737 48.844737 0 0 1-48.788417-48.844737v-48.721856a48.204737 48.204737 0 0 0 14.279662 34.442195 48.844737 48.844737 0 0 0 34.457555 14.279661h682.648713a48.844737 48.844737 0 0 0 48.773056-48.783296z" fill="#C1C7D0" /><path d="M24.167034 536.423034h975.153932v243.849923a48.921536 48.921536 0 0 1-48.721856 48.844736H73.011771a48.342977 48.342977 0 0 1-34.467796-14.274541 48.844737 48.844737 0 0 1-14.376941-34.570195z" fill="#26B99A" /><path d="M121.733627 536.412794V438.856441L24.167034 536.412794z m780.118026 0l0.926719-97.556353 97.039234 97.556353z" fill="#0C8C73" /><path d="M901.851653 312.628125v6.860791h-263.833257a48.844737 48.844737 0 0 1-48.844736-48.844737V0.001331a48.732097 48.732097 0 0 1 34.662355 14.115822l264.268456 263.751337a49.459136 49.459136 0 0 1 13.701102 34.754515z" fill="#C1C7D0" /><path d="M239.959394 701.414819h53.130171q-1.981437 40.355788 15.738859 39.357389 14.760941-0.972799 14.760941-22.63037V599.091752h59.033523v111.175536q0 72.821665-70.840228 72.806305-78.725018-0.993279-71.823266-81.663894zM474.117169 780.124477h-59.033523v-181.027605h86.579087q75.760542 0.988159 77.736859 60.999601-0.988159 62.970798-75.760541 63.948717H474.112049z m0-98.385792h24.601568q23.608289 0 23.61341-21.642212 0-18.687976-31.487959-18.698216h-16.727019zM774.205099 680.755646v99.368831h-38.37435l-1.966077-17.710057q-17.704937 20.664293-55.091129 20.659173-84.63349-3.937275-87.567246-91.494281 4.915194-93.460359 94.448517-97.402753 72.796065 1.981437 86.579088 66.897833h-57.062326q-5.903352-22.620131-30.4998-22.625251-33.459157 0.993279-34.437076 53.125051 0.972799 49.218496 38.36923 49.198016 23.618529-2.949116 30.499801-20.659173h-26.562526v-39.357389z" fill="#FFFFFF" /></svg>