<?xml version="1.0" standalone="no"?><!DOCTYPE svg PUBLIC "-//W3C//DTD SVG 1.1//EN" "http://www.w3.org/Graphics/SVG/1.1/DTD/svg11.dtd"><svg class="icon" width="14px" height="14.00px" viewBox="0 0 1024 1024" version="1.1" xmlns="http://www.w3.org/2000/svg"><path d="M144.7936 0c-44.8 0-80 36.8128-80 81.6128v860.8c0 44.8 35.2 81.6128 80 81.6128h732.8a81.9712 81.9712 0 0 0 81.6128-81.6128V324.8128L656.7936 0h-512z" fill="#82B4E1" /><path d="M656.768 0v233.6c0 25.6 17.6128 92.8 97.6128 92.8h204.8L656.768 0z" fill="#FFFFFF" /><path d="M409.9584 522.7008c-1.792 0-4.864-0.384-9.216-1.1264s-7.7312-1.1264-10.1376-1.1264c-4.8896 0-10.6496 0.1536-17.2544 0.4608l0.7424 17.8432c0 74.3936-4.9408 128.5376-14.848 162.4576-6.6048 22.4-18.1504 33.6128-34.6624 33.6128-17.408 0-34.6624-6.2976-51.7376-18.8928-18.8928-14.0032-28.3392-30.0544-28.3392-48.1536 0-12.288 5.0432-18.4576 15.1552-18.4576s15.1552 6.0416 15.1552 18.1504c0 8.2944 5.888 16.5376 17.6896 24.7552 11.2896 7.808 21.9904 11.6992 32.1024 11.6992 8.192 0 13.9008-25.1392 17.1008-75.4432 1.5104-23.808 2.2528-53.7088 2.2528-89.7024 0-2.7904-0.256-8.192-0.7424-16.2048l-9.1392 0.1536c-3.8912 0-9.7792-0.128-17.6128-0.384s-13.7728-0.384-17.7664-0.384c-4.4032 0-8.0896-1.408-11.1104-4.1984s-4.5056-6.6048-4.5056-11.392c0-10.2912 6.9376-15.4624 20.8384-15.4624 3.4048 0 8.448 0.1536 15.1552 0.4608s11.6992 0.4608 15.0016 0.4608c6.2976 0 15.7184-0.384 28.2624-1.1264s21.9648-1.1264 28.2624-1.1264c22.8096 0 34.2016 5.8112 34.2016 17.408a15.8208 15.8208 0 0 1-4.0448 10.6496 13.696 13.696 0 0 1-10.8032 5.0688zM454.8096 679.4496c-0.1024-4.1984 1.3312-7.6288 4.2752-10.2656s6.5792-3.968 10.88-3.968c4.8896 0 9.1904 2.7904 12.9024 8.3968 5.0944 7.6032 9.6512 12.7488 13.6448 15.4624 8.4992 5.6064 20.8384 8.3968 37.0432 8.3968a94.72 94.72 0 0 0 43.2128-10.0608c16.9984-8.6016 25.4976-20.5568 25.4976-35.84 0-12.5952-7.1424-22.5536-21.4528-29.8496-12.1088-6.2976-27.0592-9.7024-44.8512-10.1888-15.7952-0.5888-29.2608-4.0448-40.3456-10.3424-14.208-8.0896-21.2992-19.712-21.2992-34.7904 0-17.792 10.112-34.048 30.3104-48.7424 19.3024-13.9008 39.2448-20.8384 59.8528-20.8384 9.7024 0 20.6592 1.6384 32.8448 4.9408 16.2048 4.3008 24.2944 9.8048 24.2944 16.512 0 8.8064-4.5056 13.2096-13.4912 13.2096-3.9936 0-11.008-1.0752-20.992-3.2256s-17.7408-3.1744-23.2448-3.072c-15.5904 0.2048-28.8512 4.0448-39.7568 11.5456-11.2128 7.7056-16.7936 17.0496-16.7936 28.0576 0 8.2944 7.3984 14.1568 22.1952 17.5616 5.504 1.3056 16.1536 2.5088 31.9488 3.6096 22.912 1.6896 40.8064 8.9088 53.7088 21.6064 11.8016 11.5968 17.6896 25.7536 17.6896 42.4448 0 23.808-11.008 42.8032-32.9984 57.0112-19.0976 12.288-41.2416 18.4576-66.4576 18.4576a118.8608 118.8608 0 0 1-50.2528-10.496c-18.6368-8.7296-28.0832-20.5312-28.3648-35.5328zM709.6576 628.7616c-2.7904 0-8.9088-0.64-18.304-1.9456-0.7936 15.104-1.2032 41.5488-1.2032 79.36 0 3.9936-1.3056 7.3728-3.8912 10.1376s-5.8624 4.1216-9.7536 4.1216c-3.9936 0-7.296-1.3824-9.9072-4.1216s-3.8912-6.1184-3.8912-10.1376v-44.1088c0-14.6944 0.896-35.4048 2.688-62.1056 1.9968-28.9024 3.0976-49.6128 3.3024-62.1056v-20.7104c0-9.9072 0.5888-17.1008 1.792-21.6064 2.304-8.8064 7.1936-12.5952 14.6944-11.392 3.2-0.9984 7.7568-1.7408 13.6448-2.2528s13.1584-0.7424 21.76-0.7424c18.304 0 35.456 6.2464 51.456 18.7392 17.6128 13.7984 26.3936 30.4128 26.3936 49.792 0 24.8064-9.3952 44.544-28.2112 59.2384-16.768 13.2352-36.9664 19.84-60.5696 19.84z m7.5008-119.1168c-4.4032 0-8.32 0.1024-11.776 0.3072s-6.3744 0.512-8.7808 0.896l-0.3072 27.5968-3.1488 59.6992 16.512 1.9456c16.7936 0 30.9504-4.2496 42.4448-12.7488 12.5952-9.2928 18.8928-21.8624 18.8928-37.6576 0-11.2128-5.9904-20.8384-17.9968-28.9536a63.5904 63.5904 0 0 0-35.84-11.0848z" fill="#FFFFFF" /></svg>