<?xml version="1.0" standalone="no"?><!DOCTYPE svg PUBLIC "-//W3C//DTD SVG 1.1//EN" "http://www.w3.org/Graphics/SVG/1.1/DTD/svg11.dtd"><svg class="icon" width="14px" height="14.00px" viewBox="0 0 1024 1024" version="1.1" xmlns="http://www.w3.org/2000/svg"><path d="M809.095977 693.991937 691.093423 693.991937 691.093423 196.509583c0-35.221176-13.675464-68.335365-38.502919-93.212962-24.816199-24.8909-57.830103-38.603203-92.952019-38.603203L278.588461 64.693418c-35.133172 0-68.147076 13.712303-92.963275 38.603203-24.829502 24.877597-38.490639 57.979506-38.490639 93.212962l0 630.696356c0 35.222199 13.661138 68.335365 38.490639 93.226265 24.816199 24.889877 57.830103 38.590923 92.963275 38.590923l281.049001 0c35.121915 0 68.13582-13.701047 92.952019-38.590923 24.827455-24.889877 38.502919-58.004065 38.502919-93.226265l0-0.312108 118.002554 0c36.583197 0 66.277496-29.769001 66.277496-66.450435C875.373473 724.07407 845.679174 693.991937 809.095977 693.991937zM648.870786 693.991937 395.820466 693.991937c-36.582173 0-66.277496 30.082132-66.277496 66.451458 0 36.681434 29.695323 66.450435 66.277496 66.450435l253.05032 0 0 0.312108c0 23.806195-9.30697 46.263673-26.211988 63.219857-16.906042 16.942881-39.288818 26.275433-63.020312 26.275433L278.588461 916.701229c-23.743774 0-46.12655-9.332553-63.032592-26.275433-16.906042-16.956184-26.214035-39.414685-26.214035-63.219857L189.341834 196.509583c0-23.805172 9.307993-46.251394 26.214035-63.206554 16.917298-16.956184 39.301098-26.301016 63.032592-26.301016l281.049001 0c23.718191 0 46.101991 9.344832 63.020312 26.301016 16.906042 16.942881 26.211988 39.389102 26.211988 63.206554L648.869762 693.991937zM405.513222 245.094114l165.989475 0c5.951549 0 10.632151-4.704139 10.632151-10.655687l0-39.500643c0-5.951549-4.679579-10.655687-10.632151-10.655687L405.513222 184.282097c-5.939269 0-10.630105 4.703115-10.630105 10.655687l0 39.500643C394.884141 240.389976 399.574976 245.094114 405.513222 245.094114zM292.338626 357.00902c-22.820752 0-41.260729 18.491143-41.260729 41.373293 0 22.895453 18.439978 41.385573 41.260729 41.385573 22.832008 0 41.273009-18.491143 41.273009-41.385573C333.611635 375.500163 315.169611 357.00902 292.338626 357.00902zM420.522054 355.438245c-22.832008 0-41.271986 18.814508-41.271986 41.684378 0 22.571065 18.441001 41.384549 41.271986 41.384549 22.807449 0 41.261753-18.814508 41.261753-41.384549C461.78483 374.251729 443.329503 355.438245 420.522054 355.438245zM550.256814 352.618013c-22.820752 0-41.585117 18.802228-41.585117 41.684378 0 22.88215 18.764366 41.398876 41.585117 41.398876 22.818705 0 41.259706-18.515702 41.259706-41.398876C591.51652 371.420241 573.074495 352.618013 550.256814 352.618013zM291.090193 493.679749c-22.818705 0-41.571814 18.814508-41.571814 41.696658 0 22.557762 18.753109 41.373293 41.571814 41.373293 22.50762 0 41.271986-18.815531 41.271986-41.373293C332.362178 512.494257 313.597813 493.679749 291.090193 493.679749zM419.262364 492.431316c-22.818705 0-41.570791 18.49012-41.570791 41.385573 0 22.881127 18.752086 41.37227 41.570791 41.37227 22.820752 0 41.273009-18.49012 41.273009-41.37227C460.535373 510.921435 442.083116 492.431316 419.262364 492.431316zM548.683992 489.612107c-22.808472 0-41.261753 18.49012-41.261753 41.373293 0 22.881127 18.453281 41.696658 41.261753 41.696658 22.818705 0 41.271986-18.815531 41.271986-41.696658C589.957001 508.10325 571.502697 489.612107 548.683992 489.612107z" fill="#8741E7" /></svg>