<?xml version="1.0" standalone="no"?><!DOCTYPE svg PUBLIC "-//W3C//DTD SVG 1.1//EN" "http://www.w3.org/Graphics/SVG/1.1/DTD/svg11.dtd"><svg class="icon" width="14px" height="14.00px" viewBox="0 0 1024 1024" version="1.1" xmlns="http://www.w3.org/2000/svg"><path d="M112 16h736v992H112z" fill="#AED796" /><path d="M320 640h320v256H320z" fill="#FFFFFF" /><path d="M320 544h320v96H320z" fill="#F48284" /><path d="M896 128h-32V32a32 32 0 0 0-32-32H128a32 32 0 0 0-32 32v960a32 32 0 0 0 32 32h704a32 32 0 0 0 32-32V416h32a32 32 0 0 0 32-32V160a32 32 0 0 0-32-32z m-64 0H448a32 32 0 0 0-32 32v224a32 32 0 0 0 32 32h384v576H128V32h704v96zM560 720H400a16 16 0 1 0 0 32h160a16 16 0 1 0 0-32zM336 912h288a32 32 0 0 0 32-32V560a32 32 0 0 0-32-32h-32v-16a16 16 0 1 0-32 0v16h-32v-16a16 16 0 1 0-32 0v16h-32v-16a16 16 0 1 0-32 0v16h-32v-16a16 16 0 1 0-32 0v16h-32a32 32 0 0 0-32 32v320a32 32 0 0 0 32 32z m0-352h32v16a16 16 0 1 0 32 0v-16h32v16a16 16 0 1 0 32 0v-16h32v16a16 16 0 1 0 32 0v-16h32v16a16 16 0 1 0 32 0v-16h32v64H336v-64z m0 96h288v224H336V656z m224 128H400a16 16 0 1 0 0 32h160a16 16 0 1 0 0-32z" fill="#2B3139" /><path d="M448 160h448v224H448z" fill="#FFFFFF" /><path d="M499.472 213.824h35.184v84.912h50.528V328h-85.712v-114.176zM654.8 211.104c34.704 0 57.888 24.944 57.888 59.792s-23.184 59.808-57.888 59.808-57.888-24.96-57.888-59.808 23.184-59.792 57.888-59.792z m0 91.152c8.96 0 22.704-5.904 22.704-31.344 0-25.424-13.744-31.344-22.704-31.344s-22.704 5.92-22.704 31.344 13.744 31.344 22.704 31.344zM811.264 316.336c-7.84 10.08-20 14.384-32.464 14.384-33.728 0-54.528-26.224-54.528-58.688 0-43.504 30.544-60.928 56.304-60.928 29.088 0 47.488 15.824 52.608 42.688h-33.744c-1.28-8.32-8.32-14.24-16.624-14.24-24.16 0-23.344 25.44-23.344 33.264 0 10.72 4.32 29.424 25.728 29.424 8.16 0 16.48-4.16 18.24-12.624h-15.52v-24.464h46.704V328h-22.24l-1.12-11.664z" fill="#2B3139" /></svg>