<?xml version="1.0" standalone="no"?><!DOCTYPE svg PUBLIC "-//W3C//DTD SVG 1.1//EN" "http://www.w3.org/Graphics/SVG/1.1/DTD/svg11.dtd"><svg class="icon" width="14px" height="14.00px" viewBox="0 0 1024 1024" version="1.1" xmlns="http://www.w3.org/2000/svg"><path d="M145.621959 0c-44.79888 0-79.998 36.81188-79.998 81.61076v860.77848c0 44.79888 35.19912 81.61076 79.998 81.61076h732.781681a81.969151 81.969151 0 0 0 81.61076-81.61076V324.80468L657.60916 0h-511.987201z" fill="#20B2AA" /><path d="M657.60916 0v233.59416c0 25.59936 17.61236 92.79768 97.61036 92.79768h204.79488L657.60916 0z" fill="#FFFFFF" /><path d="M317.547261 697.275368c2.995125-11.698908 5.887853-22.604235 8.703783-32.690383s5.529462-19.762706 8.166196-29.029674l7.731006-26.930527c2.508737-8.703782 4.889478-17.561161 7.19342-26.546536 0.895978-3.507112 1.433564-6.886228 1.587161-10.137347s0.614385-6.630234 1.433564-10.137346c0.40959-1.20317 1.126372-2.278343 2.175946-3.225519a18.585135 18.585135 0 0 1 11.775705-4.710283c2.79033 0 5.119872 0.332792 6.963026 0.972776s3.353516 1.535962 4.505487 2.636734 1.945551 2.431939 2.40634 3.967901 0.665583 3.276718 0.665584 5.171071c0 3.404715-0.537587 6.835029-1.638359 10.265343s-2.457539 7.21902-4.044699 11.314917c4.710282-3.711907 9.522962-7.19342 14.463638-10.495738s10.060548-6.195045 15.308417-8.703782 10.623734-4.505487 16.127597-5.99025 11.21252-2.252744 17.100373-2.252744c2.687933 0 5.401465 0.435189 8.089397 1.279968s5.119872 2.175946 7.270219 3.967901 3.942301 4.147096 5.401465 7.039824 2.278343 6.451039 2.483138 10.649334c4.300692-2.892728 8.754981-5.836654 13.337266-8.780581s9.266968-5.60626 14.028449-7.961401 9.497363-4.249494 14.258844-5.708657 9.369366-2.175946 13.874853-2.175946c6.707032 0 12.236494 0.870378 16.562786 2.636734s7.807805 4.095898 10.342141 7.039824 4.351891 6.374241 5.401465 10.265344 1.58716 8.038199 1.587161 12.441289c0 4.81268-0.460788 9.753356-1.356766 14.847629s-1.894353 9.958151-2.995125 14.540436c-2.892728 11.59651-6.143846 22.578636-9.753357 32.920777s-7.500612 20.81228-11.698907 31.436014l-3.148721 7.961401c-1.100772 2.81593-2.38074 5.375866-3.814305 7.731007s-3.148721 4.300692-5.094273 5.862253-4.223894 2.329542-6.835029 2.329542c-5.887853 0-9.958151-0.998375-12.159696-2.995125s-3.302317-4.838279-3.302317-8.550186c0-0.998375 0.051199-2.150346 0.153596-3.455914s0.358391-2.559936 0.742381-3.737506c0.40959-1.510362 1.305567-3.686308 2.687933-6.527837s2.918327-5.913452 4.582286-9.21577 3.276718-6.630234 4.863878-9.98375 2.79033-6.271843 3.60951-8.780581c1.305567-4.300692 2.81593-9.266968 4.582285-14.924427s3.430314-11.340516 5.017475-17.100372 2.918327-11.21252 3.967901-16.357991 1.58716-9.318167 1.58716-12.518087c0-1.510362-0.153596-2.995125-0.460789-4.505488s-0.81918-2.79033-1.58716-3.891102-1.791955-1.99675-3.148721-2.687933-3.071923-1.049574-5.171071-1.049574c-2.995125 0-6.579036 0.844779-10.726132 2.559936s-8.447789 3.916702-12.902077 6.681433-8.78058 5.862253-12.978876 9.292568-7.807805 6.886228-10.80293 10.265343c-2.099148 2.40634-4.095898 4.351891-5.99025 5.862254s-3.788705 2.662333-5.708657 3.455913c-0.204795 0.40959-0.691183 1.715157-1.510362 3.967901s-1.740756 4.940676-2.841529 8.089398-2.252744 6.553436-3.455914 10.188545l-3.379116 10.188545-2.636734 7.961401c-0.716782 2.150346-1.049574 3.327917-1.049573 3.532712-0.691183 2.79033-1.305567 5.683058-1.791956 8.626984l-1.356766 8.473388c-0.40959 2.687933-0.767981 5.58066-1.126371 8.626985s-1.049574 5.887853-2.099148 8.550186-2.662333 4.81268-4.81268 6.527837-5.171071 2.559936-9.062173 2.559936c-1.99675 0-3.814305-0.511987-5.478263-1.510362s-3.071923-2.278343-4.275093-3.814305-2.150346-3.302317-2.841529-5.247869-1.100772-3.916702-1.20317-5.913452c2.303942-9.010975 4.556686-17.100372 6.758231-24.293793s4.40309-14.105247 6.604635-20.709882 4.326292-13.234869 6.37424-19.865103 4.070298-13.977251 6.067049-21.964251c0.511987-1.894353 0.895978-3.763106 1.20317-5.631859s0.460788-3.481513 0.460788-4.863879c0-2.40634-0.511987-4.377491-1.510362-5.913452s-2.739132-2.329542-5.247869-2.329542c-4.095898 0-8.166196 0.81918-12.236494 2.483138s-8.422189 4.223894-13.132472 7.731007-9.932552 7.961401-15.666808 13.337267-12.364491 11.852504-19.865103 19.353116c-0.79358 1.510362-1.843154 4.300692-3.148722 8.39659s-2.636734 8.447789-3.9679 13.055673-2.585535 8.882978-3.686308 12.82528-1.791955 6.579036-2.099148 7.884603c-1.100772 4.198295-1.843154 7.731007-2.252744 10.572535l-1.049573 7.731007c-0.204795 1.20317-0.511987 3.174321-0.895978 5.913452s-1.126372 5.529462-2.175946 8.319792-2.534337 5.273468-4.428689 7.423815-4.40309 3.225519-7.500612 3.225519c-4.607885 0-8.370991-1.254369-11.314917-3.737507a11.878103 11.878103 0 0 1-4.275094-11.391715 20.300292 20.300292 0 0 1 0.486388-1.99675zM579.60791 655.727607c1.305567-5.401465 3.020724-10.80293 5.171071-16.204395a109.078873 109.078873 0 0 1 34.866328-46.027649c3.9935-3.19992 8.217395-6.220644 12.671683-9.062174s8.985375-5.324667 13.567661-7.423814 9.21577-3.763106 13.874853-5.017475 9.21577-1.868753 13.721257-1.868753a37.682258 37.682258 0 0 1 16.050799 3.148721l8.012599-28.210495c4.326292-15.308417 9.676558-36.607085 15.974001-63.896002 1.100772-2.687933 2.662333-4.940676 4.659084-6.758231s4.40309-2.687933 7.19342-2.687933c1.99675 0 3.942301 0.179196 5.862253 0.537587s3.60951 1.049574 5.094273 2.099147 2.687933 2.483138 3.60951 4.275093 1.356766 4.147096 1.356766 7.039824l-30.156046 120.444989c-0.895978 3.404715-1.740756 7.987-2.559936 13.721257s-1.561561 11.826904-2.252744 18.226744-1.254369 12.722882-1.638359 18.969126-0.588785 11.622109-0.588785 16.127597c0 5.60626-0.639984 11.161321-1.945552 16.639584-0.588785 2.40634-1.228769 4.428689-1.868753 6.067048s-1.535962 2.995125-2.636734 4.044699-2.483138 1.791955-4.121497 2.252744-3.737507 0.665583-6.220645 0.665583c-2.892728 0-5.145471-0.307192-6.758231-0.895977s-2.79033-1.433564-3.609509-2.483138-1.279968-2.252744-1.433565-3.60951-0.255994-2.79033-0.307192-4.351891-0.153596-3.148721-0.307192-4.81268-0.563186-3.225519-1.279968-4.735882c-1.20317 0.79358-2.841529 1.843154-4.940677 3.148722l-6.37424 3.967901c-2.150346 1.331167-4.172696 2.611135-6.067049 3.737506l-4.198295 2.483138c-2.303942 1.305567-4.889478 2.662333-7.807805 4.121497s-6.01585 2.79033-9.369365 4.044699-6.860628 2.278343-10.495738 3.071923-7.321417 1.20317-11.033324 1.20317c-4.505487 0-8.882978-0.742381-13.132472-2.252744a32.434389 32.434389 0 0 1-19.404315-18.687532 42.930127 42.930127 0 0 1-2.995125-16.716383 55.883403 55.883403 0 0 1 1.817555-14.335641z m25.932151-1.20317c-0.79358 2.995125-1.20317 5.887853-1.203169 8.703782 0 2.892728 0.255994 5.631859 0.742381 8.166196s1.433564 4.78708 2.764731 6.681433 3.148721 3.430314 5.401465 4.582286 5.171071 1.715157 8.78058 1.715157c1.99675 0 4.147096-0.358391 6.451039-1.049574s4.582285-1.58716 6.835029-2.636734 4.351891-2.150346 6.297443-3.302318a151.394615 151.394615 0 0 0 15.59001-10.418939c3.251119-2.40634 6.169446-4.991875 8.78058-7.807805s4.863878-5.913452 6.83503-9.369366 3.532712-7.423814 4.735881-11.929301c0.998375-3.9935 1.868753-7.654209 2.636734-10.956527s1.433564-6.527837 2.02235-9.676558 1.151971-6.374241 1.638359-9.676558 0.998375-6.937427 1.510362-10.956526c-0.511987-0.588785-1.177571-1.177571-2.022349-1.715157s-2.124747-0.81918-3.814305-0.819179c-3.9935 0-8.39659 0.665583-13.20927 2.022349s-9.727757 3.276718-14.770831 5.785455-10.00935 5.555061-14.847628 9.138972-9.343766 7.628609-13.490863 12.082898-7.782205 9.318167-10.879728 14.617234-5.375866 10.930927-6.783831 16.81878z" fill="#FFFFFF" /></svg>