<?xml version="1.0" standalone="no"?><!DOCTYPE svg PUBLIC "-//W3C//DTD SVG 1.1//EN" "http://www.w3.org/Graphics/SVG/1.1/DTD/svg11.dtd"><svg class="icon" width="14px" height="14.00px" viewBox="0 0 1024 1024" version="1.1" xmlns="http://www.w3.org/2000/svg"><path d="M847.936 240.128v688c0 26.56-21.408 48-48 48h-576c-26.56 0-48-21.44-48-48v-832c0-26.592 21.44-48 48-48h432z" fill="#E9EDED" /><path d="M159.936 768.128v160c0 35.456 28.544 64 64 64h576c35.456 0 64-28.544 64-64v-160h-704z" fill="#2B4255" /><path d="M847.84 240.128h-144c-26.592 0-48-21.44-48-48v-144" fill="#2B4255" /><path d="M511.936 240c-123.52 0-224 100.48-224 224s100.48 224 224 224 224-100.48 224-224-100.48-224-224-224z m0 32c106.24 0 192 85.76 192 192s-85.76 192-192 192-192-85.76-192-192 85.76-192 192-192z m-63.744 62.816v0.064a16 16 0 0 0-16.256 16v226.304a16 16 0 0 0 25.28 13.056l159.712-113.184a16 16 0 0 0 0-26.112l-159.744-113.12a16 16 0 0 0-8.992-3.008z m15.744 47.008l116.064 82.176-116.064 82.24v-164.416z" fill="#2B4255" /><path d="M366.88 799.616a16 16 0 0 0-11.744 6.624L320 853.12l-35.136-46.88-0.128 0.128a16 16 0 0 0-13.056-6.432 16 16 0 0 0-15.744 16.256v127.616a16 16 0 1 0 32 0v-80.064l19.264 25.696a16 16 0 0 0 25.6 0l19.264-25.696v80.064a16 16 0 1 0 32 0v-127.232a16 16 0 0 0-15.552-16.96 16 16 0 0 0-1.632 0z m255.872 0.192a16 16 0 0 0-13.696 21.824l48 128a16 16 0 0 0 30.016 0l48-128a16 16 0 0 0-30.016-11.2l-32.992 88-32.992-88a16 16 0 0 0-14.72-10.624 16 16 0 0 0-1.6 0zM496.064 800a80.256 80.256 0 0 0-80 80c0 44 36 80 80 80s80-36 80-80-36-80-80-80z m0 32c26.688 0 48 21.312 48 48s-21.312 48-48 48-48-21.312-48-48 21.312-48 48-48z" fill="#E9EDED" /></svg>