<?xml version="1.0" standalone="no"?><!DOCTYPE svg PUBLIC "-//W3C//DTD SVG 1.1//EN" "http://www.w3.org/Graphics/SVG/1.1/DTD/svg11.dtd"><svg class="icon" width="14px" height="14.00px" viewBox="0 0 1024 1024" version="1.1" xmlns="http://www.w3.org/2000/svg"><path d="M145.621959 0c-44.79888 0-79.998 36.81188-79.998 81.61076v860.77848c0 44.79888 35.19912 81.61076 79.998 81.61076h732.781681a81.969151 81.969151 0 0 0 81.61076-81.61076V324.80468L657.60916 0h-511.987201z" fill="#FF82AB" /><path d="M657.60916 0v233.59416c0 25.59936 17.61236 92.79768 97.61036 92.79768h204.79488L657.60916 0z" fill="#FFFFFF" /><path d="M188.603285 717.98525c1.894353-7.60301 4.556686-16.050799 7.961401-25.343366s7.321417-18.994725 11.775705-29.106472 9.343766-20.351491 14.694033-30.744832 10.905327-20.530687 16.639584-30.38644 11.647709-19.148321 17.689158-27.903303 12.031699-16.562786 17.919552-23.474613l6.374241-7.039824c2.559936-2.79033 5.401465-5.708657 8.550186-8.703782s6.451039-5.964651 9.906952-8.934177 6.937427-5.60626 10.41894-7.961401 6.911827-4.249494 10.188545-5.708657 6.348641-2.175946 9.138971-2.175946c3.788705 0 7.270218 0.639984 10.41894 1.945552s5.862253 3.148721 8.089398 5.555061 3.9935 5.273468 5.247869 8.626984 1.868753 7.014225 1.868753 11.033324c0 1.689558-0.127997 3.404715-0.383991 5.094273s-0.563186 3.455914-0.972775 5.247869l-16.639584 83.709907c1.510362-2.303942 3.60951-5.427064 6.297442-9.369366s5.759856-8.345391 9.138972-13.209269a2219.054924 2219.054924 0 0 1 31.359216-43.800505l7.347016-9.830155 2.687933-3.455913a272.249194 272.249194 0 0 1 25.21537-27.903303c3.507112-3.302317 7.039824-6.246244 10.649333-8.857378s7.142221-4.735882 10.649334-6.374241 6.860628-2.483138 10.060549-2.483138c2.40634 0 4.40309 0.537587 5.99025 1.638359s2.892728 2.585535 3.891103 4.42869 1.689558 4.0191 2.099147 6.527836 0.588785 5.094273 0.588785 7.807805c0 4.198295-0.358391 8.447789-1.049573 12.748481s-1.510362 8.191795-2.40634 11.698908c-0.511987 2.79033-1.177571 6.80943-2.02235 12.0061s-1.843154 11.18692-2.995125 17.919552l-3.686308 21.887453-3.9679 23.935401c-1.331167 8.114997-2.687933 16.101997-4.044699 24.0122s-2.611135 15.282818-3.737507 22.117847-2.201545 12.978876-3.148721 18.38034-1.715157 9.59976-2.329542 12.594886c-0.307192 1.407965-0.767981 3.302317-1.433564 5.708657s-1.61276 4.761481-2.841529 7.039824-2.892728 4.300692-4.940676 5.99025-4.582285 2.559936-7.577411 2.559936c-1.61276 0-3.123122-0.537587-4.582286-1.58716s-2.739132-2.38074-3.891102-3.967901-2.047949-3.327917-2.687933-5.171071-1.023974-3.532712-1.126372-5.017474l31.20562-148.194695c0.307192-1.407965 0.537587-2.662333 0.742381-3.737507s0.307192-2.150346 0.307193-3.148721c0-1.100772-0.127997-2.099148-0.383991-2.995125s-0.486388-1.740756-0.665583-2.559936a35.071123 35.071123 0 0 0-0.895978-2.40634c-4.505487 3.404715-9.318167 7.731007-14.463638 12.978875s-10.342141 11.110122-15.59001 17.561161-10.495738 13.311667-15.743607 20.556286-10.214145 14.514837-14.924427 21.836254c-3.711907 5.708657-7.679808 11.698908-11.929301 17.996351l-12.82528 18.969125c-4.300692 6.348641-8.473388 12.697283-12.518087 19.045924s-7.731007 12.41569-11.033324 18.226745c-1.61276 2.79033-3.251119 6.39984-4.940676 10.802929s-3.58391 8.703782-5.63186 12.902078-4.249494 7.807805-6.604634 10.80293-5.017475 4.505487-8.0126 4.505487c-2.303942 0-4.223894-0.358391-5.785456-1.049574a9.522962 9.522962 0 0 1-5.631859-6.809429 20.735482 20.735482 0 0 1-0.588785-5.017475c0-2.303942 0.230394-4.607885 0.665583-6.911827s0.921577-4.505487 1.433565-6.604635c2.099148-8.80618 4.300692-17.561161 6.604634-26.239344l7.116622-26.700133 7.577411-28.261693c2.431939-9.087773 5.247869-20.121097 7.961401-31.128822l2.40634-10.418939c0.895978-3.839904 1.740756-7.756606 2.559936-11.698908s1.459164-7.782205 1.945551-11.468513 0.742381-6.988625 0.742382-9.906952c0-2.611135-0.204795-4.684683-0.588786-6.220645s-1.151971-2.329542-2.252743-2.329542c-3.711907 0-7.60301 1.382365-11.698908 4.121497s-8.242994 6.374241-12.441289 10.879728-8.345391 9.650959-12.441289 15.462014-8.0126 11.775706-11.698907 17.919552-7.142221 12.236494-10.342142 18.226744-5.939052 11.391715-8.242994 16.204395l-2.175945 4.121497c-0.947176 1.740756-2.201545 4.198295-3.737507 7.347016s-3.455914 7.167821-5.708657 12.082898-4.889478 11.110122-7.961401 18.610735-6.579036 16.460388-10.572536 26.853729-8.498988 22.604235-13.490863 36.607084c-0.895978 2.40634-2.483138 4.351891-4.735881 5.862254s-4.607885 2.175946-6.988625 2.175945c-5.19667 0-9.036574-1.407965-11.468514-4.198295s-3.686308-6.246244-3.686308-10.342141c0-1.817555 0.255994-3.814305 0.742382-6.01585zM480.205595 724.129097c0.40959-1.791955 0.972776-3.507112 1.715157-5.094273l2.483138-5.401465a99.530312 99.530312 0 0 0 5.836654-17.381965l5.862253-24.0122a2497.98555 2497.98555 0 0 1 9.59976-38.245444c1.61276-6.092648 3.532712-12.466888 5.785456-19.122722l7.039824-20.633084 7.423814-21.887453c2.508737-7.475013 4.761481-15.257219 6.758231-23.244219a3.839904 3.839904 0 0 0 0.153596-1.20317c0-0.79358-0.255994-1.305567-0.742381-1.510362s-1.151971-0.307192-1.945551-0.307192c-2.508737 0-4.582285-0.38399-6.220645-1.126372a10.188545 10.188545 0 0 1-5.913452-7.039824 29.18327 29.18327 0 0 1 0.998375-15.436414c1.049574-2.636734 2.40634-4.710282 4.044699-6.143846s3.455914-2.508737 5.401465-3.148722 3.839904-1.177571 5.708657-1.58716 3.481513-0.81918 4.863879-1.279968 2.40634-1.279968 2.995125-2.483138c0.998375-2.099148 1.919952-4.326292 2.764731-6.681433s1.919952-4.531087 3.225519-6.527837 2.892728-3.660708 4.81268-4.940676 4.40309-1.945551 7.500612-1.945552c2.201545 0 4.147096 0.588785 5.862254 1.791956s3.174321 2.687933 4.428689 4.505487 2.329542 3.737507 3.225519 5.785455l2.40634 5.63186a310.00825 310.00825 0 0 1 43.800505 4.198295c7.500612 1.407965 15.026824 3.507112 22.578636 6.297442s14.361241 6.425439 20.402689 10.879728 11.007725 9.702157 14.847629 15.743607 5.785455 12.978876 5.785456 20.78668c0 3.9935-0.460788 8.140596-1.356766 12.441289l-1.049574 5.247869c-0.79358 4.198295-2.483138 8.089398-5.017475 11.698907s-5.427064 6.860628-8.626984 9.753356c-8.908577 8.191795-18.661933 15.078023-29.260069 20.633085s-21.657059 10.214145-33.151171 14.028449-23.244219 6.988625-35.250319 9.59976-23.858604 5.043074-35.557511 7.347016l-4.198295 0.588785c-2.303942 0.307192-3.660708 1.151971-4.044699 2.559936-1.99675 6.911827-3.58391 12.953276-4.735881 18.149947s-2.227144 10.162946-3.22552 14.924427l-2.995125 14.258843c-0.998375 4.761481-2.252744 10.034949-3.737506 15.820405-0.511987 1.894353-1.407965 4.147096-2.687933 6.758231s-2.841529 5.043074-4.659084 7.347016-3.865503 4.275093-6.220644 5.913452-4.81268 2.483138-7.423814 2.483138c-1.791955 0-3.353516-0.511987-4.659084-1.510362s-2.38074-2.278343-3.225519-3.814305-1.510362-3.225519-1.945552-5.017474-0.665583-3.507112-0.665583-5.094273v-1.715157c0-0.537587 0-1.126372 0.204795-1.638359z m59.544111-110.845229l-0.819179 2.636734a73.828554 73.828554 0 0 0-1.715157 6.451039 11.007725 11.007725 0 0 0-0.307193 2.022349c0 0.511987 0.076798 0.921577 0.230395 1.279968s0.460788 0.511987 0.972775 0.511987c0.307192 0 1.254369-0.127997 2.841529-0.38399s3.532712-0.563186 5.785456-0.972776 4.684683-0.844779 7.270218-1.356766 5.094273-0.998375 7.500612-1.510362a343.159421 343.159421 0 0 0 42.955726-12.594885c7.347016-2.687933 14.38684-5.60626 21.068274-8.703783s12.646084-6.39984 17.842754-9.906952c5.503862-3.711907 9.906952-7.398215 13.209269-11.110122s4.940676-7.654209 4.940677-11.852504c0-2.508737-0.332792-4.735882-0.972776-6.681433s-1.382365-3.737507-2.175945-5.324667c-2.995125-4.889478-6.758231-8.754981-11.238119-11.545311s-9.394965-4.889478-14.694033-6.297443-10.854129-2.303942-16.639584-2.687932-11.494113-0.588785-17.100373-0.588786c-1.510362 0-3.763106 0.102397-6.835029 0.307193s-6.246244 0.460788-9.59976 0.742381-6.451039 0.665583-9.292567 1.126372-4.78708 0.972776-5.785456 1.58716c-0.511987 0.307192-0.921577 0.79358-1.279968 1.510362s-0.614385 1.305567-0.819179 1.791956l-3.302318 8.319792c-1.407965 3.532712-2.892728 7.526212-4.505487 11.929301s-3.276718 9.062173-5.017475 13.951652-3.430314 9.676558-5.017474 14.335641l-4.42869 13.055674a167.496613 167.496613 0 0 0-3.071923 9.958151zM807.647009 620.323692c8.39659 3.507112 15.231619 9.241369 20.479488 17.253969s7.884603 15.948401 7.884603 23.858603c0 20.991475-8.114997 38.066248-24.370591 51.224319s-37.323867 19.737107-63.230419 19.737107c-20.197895 0-38.834229-5.043074-55.883403-15.154821s-25.573761-20.709882-25.573761-31.794405c0-3.891103 1.356766-7.398215 4.044699-10.495738s5.862253-4.659084 9.446164-4.659083c6.707032 0 11.110122 2.047949 13.20927 6.143846 11.289318 20.095498 29.951251 30.156046 55.960201 30.156046 18.201145 0 32.280793-4.070298 42.213344-12.236494s14.924427-18.431539 14.924427-30.821629c0-6.39984-1.971151-11.903702-5.913452-16.511588s-8.678183-7.756606-14.182045-9.446163-15.59001-2.559936-30.309643-2.559936c-3.891103 0-7.014225-1.331167-9.369365-3.967901s-3.532712-5.734257-3.532712-9.21577c0-3.19992 1.484763-6.092648 4.428689-8.703782s7.014225-3.891103 12.236494-3.891103c3.9935 0 7.807805 0.102397 11.391715 0.307192l10.649334 0.895978c1.61276 0 6.835029-1.817555 15.666809-5.478263s15.769206-8.447789 20.78668-14.41244 7.500612-12.825279 7.500612-20.633084c0-9.010975-3.865503-16.537187-11.622109-22.578635s-18.021949-9.062173-30.82163-9.062174c-21.98985 0-38.757431 7.654209-50.251543 22.937027a14.182045 14.182045 0 0 1-12.0061 6.451038c-3.788705 0-6.937427-1.151971-9.446164-3.455913s-3.737507-5.350266-3.737506-9.138972c0-8.908577 8.038199-18.226744 24.140196-27.9801s34.354341-14.617235 54.757031-14.617235c19.404315 0 35.634309 5.247869 48.664383 15.743607s19.58351 23.551411 19.583511 39.141421c0 11.903702-4.147096 22.527437-12.441289 31.871203s-20.069898 16.40919-35.275918 21.093873z" fill="#FFFFFF" /></svg>