<?xml version="1.0" standalone="no"?><!DOCTYPE svg PUBLIC "-//W3C//DTD SVG 1.1//EN" "http://www.w3.org/Graphics/SVG/1.1/DTD/svg11.dtd"><svg class="icon" width="14px" height="14.00px" viewBox="0 0 1024 1024" version="1.1" xmlns="http://www.w3.org/2000/svg"><path d="M144.7936 0c-44.8 0-80 36.8128-80 81.6128v860.8c0 44.8 35.2 81.6128 80 81.6128h732.8a81.9712 81.9712 0 0 0 81.6128-81.6128V324.8128L656.7936 0h-512z" fill="#6EBD67" /><path d="M656.768 0v233.6c0 25.6 17.6128 92.8 97.6128 92.8h204.8L656.768 0z" fill="#FFFFFF" /><path d="M448.5376 729.2416c-5.4016 0-9.856-2.7904-13.3376-8.3968-2.9952-4.8128-5.7088-12.8-8.0896-24.0128l-5.4016-25.8048c-4.096-16-10.5984-51.3024-19.5072-105.9072l-30.0032 90.4448-8.8576 28.4928a165.0688 165.0688 0 0 1-11.2384 27.7504c-4.1984 7.6032-9.856 11.392-16.9472 11.392-5.888 0-10.5472-3.2-13.952-9.6a81.8432 81.8432 0 0 1-5.9904-16.0512l-4.352-16.64a1295.3088 1295.3088 0 0 1-26.7008-113.408l-5.4016 26.8544-19.3536 79.2064c-0.7936 9.2928-3.3024 23.04-7.5008 41.2416-2.9952 7.808-7.9616 11.6992-14.848 11.6992a14.3872 14.3872 0 0 1-11.6992-5.248 16.7168 16.7168 0 0 1-3.7376-11.1104c0-16.6912 3.456-37.1968 10.3424-61.4912l16.512-60.4416 8.704-47.2576c4.4032-22.0928 9.0624-36.5568 13.952-43.3408 3.9936-5.8112 8.96-8.704 14.848-8.704 6.5024 0 11.3408 3.712 14.5408 11.1104 3.8912 8.9088 8.0896 27.0592 12.5952 54.4512 5.2992 32.896 13.5424 68.5056 24.7552 106.8032a1113.2672 1113.2672 0 0 0 38.4-120.2944l4.5056-21.888c1.792-8.8064 4.1472-15.8976 7.04-21.2992 3.8912-7.3984 9.2416-11.1104 16.0512-11.1104 8.6016 0 15.1552 8.2944 19.6608 24.9088 1.6128 5.7088 3.5584 17.5104 5.8624 35.4048 5.888 45.2096 13.2608 83.7888 22.0416 115.7888l7.3472 25.8048c3.7888 13.7984 5.7088 22.2976 5.7088 25.4976 0 4.3008-1.6128 7.9104-4.864 10.8032s-6.9632 4.352-11.0848 4.352zM537.9584 628.7616c-2.7904 0-8.9088-0.64-18.304-1.9456-0.7936 15.104-1.2032 41.5488-1.2032 79.36 0 3.9936-1.3056 7.3728-3.8912 10.1376s-5.8624 4.1216-9.7536 4.1216c-3.9936 0-7.296-1.3824-9.9072-4.1216s-3.8912-6.1184-3.8912-10.1376v-44.1088c0-14.6944 0.896-35.4048 2.688-62.1056 1.9968-28.9024 3.0976-49.6128 3.3024-62.1056v-20.7104c0-9.9072 0.5888-17.1008 1.792-21.6064 2.304-8.8064 7.1936-12.5952 14.6944-11.392 3.2-0.9984 7.7568-1.7408 13.6448-2.2528s13.1584-0.7424 21.76-0.7424c18.304 0 35.456 6.2464 51.456 18.7392 17.6128 13.7984 26.3936 30.4128 26.3936 49.792 0 24.8064-9.3952 44.544-28.2112 59.2384-16.768 13.2352-36.9664 19.84-60.5696 19.84z m7.5008-119.1168c-4.4032 0-8.32 0.1024-11.776 0.3072s-6.3744 0.512-8.7808 0.896l-0.3072 27.5968-3.1488 59.6992 16.512 1.9456c16.7936 0 30.9504-4.2496 42.4448-12.7488 12.5952-9.2928 18.8928-21.8624 18.8928-37.6576 0-11.2128-5.9904-20.8384-17.9968-28.9536a63.5904 63.5904 0 0 0-35.84-11.0848zM780.4928 651.2384v55.5008c0 9.2928-4.5568 13.952-13.6448 13.952-10.5984 0-15.8976-7.2448-15.8976-21.76 0-1.792 0.1024-4.352 0.3072-7.6544s0.3072-5.5552 0.3072-6.7584l-0.1536-34.048-66.1504-1.6384c-13.696 0-23.1936-0.4608-28.4928-1.3568-9.088-1.5104-13.6448-5.0432-13.6448-10.6496 0-4.5056 2.7392-10.1888 8.2432-17.1008l12.9024-15.3088 73.8048-107.6992c6.7072-9.2928 15.2064-13.952 25.4976-13.952 11.2896 0 16.9472 4.8896 16.9472 14.6944v124.6464c1.6896-0.1024 3.7376-0.1536 6.144-0.1536 18.4064 0 27.5968 4.9408 27.5968 14.848 0 7.1936-3.7888 11.7504-11.392 13.6448-3.4048 0.9472-10.8544 1.2032-22.3744 0.7936z m-29.0816-126.8992c-26.7008 42.5984-47.5392 74.496-62.5408 95.6928l62.5408 1.5104v-97.2032z" fill="#FFFFFF" /></svg>