<?xml version="1.0" standalone="no"?><!DOCTYPE svg PUBLIC "-//W3C//DTD SVG 1.1//EN" "http://www.w3.org/Graphics/SVG/1.1/DTD/svg11.dtd"><svg class="icon" width="14px" height="14.00px" viewBox="0 0 1024 1024" version="1.1" xmlns="http://www.w3.org/2000/svg"><path d="M901.632346 926.71987a48.950059 48.950059 0 0 1-48.642559 48.642559H170.493962a47.591308 47.591308 0 0 1-34.302541-14.336268 48.457559 48.457559 0 0 1-14.336267-34.306291V48.637559A48.950059 48.950059 0 0 1 170.493962 0h418.818006a49.65881 49.65881 0 0 1 34.815043 14.336267l263.681568 263.681569a48.767559 48.767559 0 0 1 14.337517 34.815042v613.886992z m0 0" fill="#EBECF0" /><path d="M901.632346 926.71987v48.642559a47.587558 47.587558 0 0 1-14.336267 34.301291 48.457559 48.457559 0 0 1-34.306292 14.336267H170.493962a48.617559 48.617559 0 0 1-48.638808-48.637558v-48.642559a48.950059 48.950059 0 0 0 48.638808 48.642559h682.495825a48.618809 48.618809 0 0 0 48.642559-48.642559z m0 0" fill="#C1C7D0" /><path d="M24.062535 536.578148h975.362429V780.288443a48.618809 48.618809 0 0 1-48.642559 48.638809H73.212595a47.570057 47.570057 0 0 1-34.301292-14.336268A48.747559 48.747559 0 0 1 24.575036 779.775942V536.578148z m0 0" fill="#1E1E1E" /><path d="M121.855154 536.578148v-97.793868L24.062535 536.578148z m779.777192 0l1.025001-97.793868 97.280118 97.793868z m0 0"  /><path d="M901.632346 312.832878v6.655008H637.949527a48.617559 48.617559 0 0 1-48.637559-48.637559V0a49.65881 49.65881 0 0 1 34.815043 14.336267l264.194069 263.681569a47.872558 47.872558 0 0 1 13.311266 34.815042z m0 0" fill="#C1C7D0" /><path d="M197.467745 611.353239q70.473835 3.105004 75.133841 74.35884-3.103754 71.272586-75.133841 74.36009-72.035087-2.325003-74.35884-75.135091 3.866255-69.710084 74.35884-73.583839z m0 34.856292q-26.341282 0.780001-27.885034 39.502548 1.543752 40.283799 27.885034 41.052549 27.883784-0.762501 28.658785-41.052549-1.560002-39.502548-28.658785-39.502548zM286.542853 652.405788V615.225743h130.903908v37.178795h-41.827551v105.341378h-47.250057v-105.341378zM483.28434 757.747166H436.813034V615.226993h46.472556V663.250802h44.151304v-48.025059h47.250057v142.521423h-47.250057v-54.993817h-44.150054zM721.852129 757.747166h-119.282645V615.226993h116.960142v33.306291h-69.712584v20.137524h58.867571v33.30754h-58.866321v22.462527h72.033837zM803.183477 708.175856h-13.942517v49.57131h-46.475056V615.226993h67.387581q65.82633-1.543752 62.740076 40.276299-0.780001 27.885034-24.011279 34.856292 26.323782 5.428757 24.78753 37.953796v6.196258q-0.782501 20.915025 4.646256 18.590022v4.647506h-47.248807q-2.322503-4.647506-2.323753-24.78628 3.085004-27.102533-25.560031-24.78628z m-13.942517-59.642572v27.885033h18.590023q23.236278 0.780001 22.462527-13.167515-0.781251-13.943767-19.365024-14.717518z" fill="#FFFFFF" /></svg>