<?xml version="1.0" standalone="no"?><!DOCTYPE svg PUBLIC "-//W3C//DTD SVG 1.1//EN" "http://www.w3.org/Graphics/SVG/1.1/DTD/svg11.dtd"><svg t="1724401353867" class="icon" viewBox="0 0 1024 1024" version="1.1" xmlns="http://www.w3.org/2000/svg" p-id="21597" xmlns:xlink="http://www.w3.org/1999/xlink" width="14" height="14"><path d="M201.142857 65.536H635.611429l258.194285 258.194286v563.712a71.021714 71.021714 0 0 1-70.948571 71.021714H201.142857a70.948571 70.948571 0 0 1-70.948571-70.948571V136.484571a70.948571 70.948571 0 0 1 70.948571-71.021714z" fill="#00B7A0" p-id="21598"></path><path d="M285.988571 463.140571c25.453714 0 45.129143 6.144 59.026286 18.285715 13.897143 12.214857 20.772571 28.964571 20.772572 50.249143 0 21.430857-7.021714 38.180571-21.138286 50.176-14.043429 11.995429-34.523429 17.993143-61.44 17.993142h-46.884572v80.018286c0 3.145143-1.536 5.485714-4.681142 7.168a22.893714 22.893714 0 0 1-10.971429 2.486857 21.942857 21.942857 0 0 1-10.752-2.486857c-3.072-1.682286-4.534857-4.022857-4.534857-7.168V487.862857c0-9.142857 1.828571-15.579429 5.632-19.236571 3.730286-3.657143 10.093714-5.485714 19.017143-5.485715h56.027428z m-2.779428 111.323429c17.334857 0 30.134857-3.657143 38.473143-11.117714 8.338286-7.314286 12.507429-17.92 12.507428-31.670857 0-28.16-16.969143-42.276571-50.980571-42.276572h-46.884572v85.065143h46.884572z m264.265143 88.795429c2.486857 0 4.388571 1.316571 5.851428 3.949714 1.462857 2.56 2.194286 5.632 2.194286 9.216a19.748571 19.748571 0 0 1-1.974857 9.216c-1.389714 2.633143-3.364571 3.876571-6.070857 3.876571H424.886857c-8.996571 0-15.36-1.755429-19.017143-5.412571-3.803429-3.657143-5.705143-10.093714-5.705143-19.236572V487.862857c0-9.142857 1.901714-15.579429 5.632-19.236571 3.730286-3.657143 10.093714-5.485714 19.017143-5.485715h120.466286c2.706286 0 4.754286 1.316571 6.070857 3.949715a19.748571 19.748571 0 0 1 2.048 9.216c0 3.510857-0.731429 6.582857-2.194286 9.216-1.462857 2.633143-3.437714 3.876571-5.924571 3.876571h-114.102857v72.557714H536.137143c2.706286 0 4.754286 1.316571 6.217143 3.949715 1.462857 2.56 2.194286 5.632 2.194285 9.216 0 3.510857-0.731429 6.582857-2.194285 9.216-1.462857 2.633143-3.510857 3.876571-6.217143 3.876571H431.104v75.044572h116.297143z m264.777143 16.603428c0 3.145143-1.462857 5.485714-4.388572 7.168a20.48 20.48 0 0 1-19.748571 0 7.899429 7.899429 0 0 1-4.242286-7.168V505.344l-65.389714 173.568a14.774857 14.774857 0 0 1-5.924572 7.68 17.408 17.408 0 0 1-10.020571 2.925714h-3.145143c-8.338286 0-13.750857-3.510857-16.237714-10.605714L618.057143 505.417143v174.518857c0 3.145143-1.462857 5.485714-4.388572 7.168a21.138286 21.138286 0 0 1-19.968 0 7.899429 7.899429 0 0 1-4.388571-7.168V480.987429c0-5.851429 1.755429-10.24 5.193143-13.312 3.437714-2.998857 8.411429-4.534857 14.848-4.534858h3.730286c11.044571 0 17.92 4.388571 20.699428 13.165715l67.218286 178.249143 66.925714-178.249143c2.706286-8.777143 9.654857-13.165714 20.918857-13.165715h3.437715c6.436571 0 11.410286 1.536 14.848 4.534858 3.437714 3.072 5.12 7.460571 5.12 13.312v198.875428z" fill="#FFFFFF" p-id="21599"></path><path d="M635.684571 65.536l258.194286 258.194286H706.779429a70.948571 70.948571 0 0 1-70.948572-70.948572V65.462857z" fill="#46DBC8" p-id="21600"></path></svg>