<?xml version="1.0" standalone="no"?><!DOCTYPE svg PUBLIC "-//W3C//DTD SVG 1.1//EN" "http://www.w3.org/Graphics/SVG/1.1/DTD/svg11.dtd"><svg t="1724401263887" class="icon" viewBox="0 0 1024 1024" version="1.1" xmlns="http://www.w3.org/2000/svg" p-id="18716" xmlns:xlink="http://www.w3.org/1999/xlink" width="14" height="14"><path d="M145.621959 0c-44.79888 0-79.998 36.81188-79.998 81.61076v860.77848c0 44.79888 35.19912 81.61076 79.998 81.61076h732.781681a81.969151 81.969151 0 0 0 81.61076-81.61076V324.80468L657.60916 0h-511.987201z" fill="#DAA520" p-id="18717"></path><path d="M657.60916 0v233.59416c0 25.59936 17.61236 92.79768 97.61036 92.79768h204.79488L657.60916 0z" fill="#FFFFFF" p-id="18718"></path><path d="M226.208745 728.941776c0.40959-1.791955 0.972776-3.507112 1.715157-5.094272s1.58716-3.404715 2.483138-5.427065 1.843154-4.377491 2.841529-7.116622 1.99675-6.169446 2.995125-10.265343l5.862253-24.0122a2497.98555 2497.98555 0 0 1 9.59976-38.245444c1.61276-6.092648 3.532712-12.466888 5.785456-19.122721l7.039824-20.633085 7.423814-21.887452c2.508737-7.475013 4.761481-15.257219 6.758231-23.244219a3.839904 3.839904 0 0 0 0.153596-1.20317c0-0.79358-0.255994-1.305567-0.742381-1.510362s-1.151971-0.307192-1.945551-0.307193c-2.508737 0-4.582285-0.38399-6.220645-1.126372a10.188545 10.188545 0 0 1-5.913452-7.039824 29.18327 29.18327 0 0 1 0.998375-15.436414c1.049574-2.636734 2.40634-4.710282 4.044699-6.143846s3.455914-2.508737 5.401465-3.148721 3.839904-1.177571 5.708657-1.587161 3.481513-0.81918 4.863878-1.279968 2.40634-1.279968 2.995126-2.483138c0.998375-2.099148 1.919952-4.326292 2.76473-6.681433s1.919952-4.531087 3.22552-6.527836 2.892728-3.660708 4.81268-4.940677 4.40309-1.945551 7.500612-1.945551c2.201545 0 4.147096 0.588785 5.862253 1.791955s3.174321 2.687933 4.42869 4.505487 2.329542 3.737507 3.225519 5.785456l2.40634 5.631859a310.00825 310.00825 0 0 1 43.800505 4.198295c7.500612 1.407965 15.026824 3.507112 22.578635 6.297442s14.361241 6.425439 20.40269 10.879728 11.007725 9.702157 14.847629 15.743607 5.785455 12.978876 5.785456 20.78668c0 3.9935-0.460788 8.140596-1.356767 12.441289l-1.049573 5.247869c-0.79358 4.198295-2.483138 8.089398-5.017475 11.698907s-5.427064 6.860628-8.626984 9.753357c-8.908577 8.191795-18.661933 15.078023-29.260069 20.633084s-21.657059 10.214145-33.151171 14.028449-23.244219 6.988625-35.250319 9.59976-23.858604 5.043074-35.557511 7.347016l-4.198295 0.588786c-2.303942 0.307192-3.660708 1.151971-4.044699 2.559936-1.99675 6.911827-3.58391 12.953276-4.735881 18.149946s-2.227144 10.162946-3.22552 14.924427l-2.995125 14.258843c-0.998375 4.761481-2.252744 10.034949-3.737506 15.820405-0.511987 1.894353-1.407965 4.147096-2.687933 6.758231s-2.841529 5.043074-4.659084 7.347016-3.865503 4.275093-6.220644 5.913452-4.81268 2.483138-7.423814 2.483138c-1.791955 0-3.353516-0.511987-4.659084-1.510362s-2.457539-2.278343-3.302317-3.839904-1.510362-3.225519-1.945552-5.017474-0.665583-3.507112-0.665583-5.094273v-1.715157c0-0.537587 0.076798-1.100772 0.281593-1.587161z m59.544111-110.845228l-0.819179 2.636734a73.828554 73.828554 0 0 0-1.715157 6.451038 11.007725 11.007725 0 0 0-0.307193 2.02235c0 0.511987 0.076798 0.921577 0.230394 1.279968s0.486388 0.537587 0.972776 0.537586c0.307192 0 1.254369-0.127997 2.841529-0.38399s3.532712-0.563186 5.785455-0.972776 4.684683-0.844779 7.270219-1.356766 5.094273-0.998375 7.500612-1.510362a343.159421 343.159421 0 0 0 42.955726-12.594885c7.347016-2.687933 14.38684-5.60626 21.068274-8.703783s12.646084-6.39984 17.842754-9.906952c5.503862-3.711907 9.906952-7.398215 13.209269-11.110122s4.940676-7.654209 4.940677-11.852504c0-2.508737-0.332792-4.735882-0.972776-6.681433s-1.382365-3.737507-2.175946-5.324667c-2.995125-4.889478-6.758231-8.754981-11.238119-11.545311s-9.394965-4.889478-14.694032-6.297443-10.854129-2.303942-16.639584-2.687932-11.494113-0.588785-17.100373-0.588786c-1.510362 0-3.763106 0.102397-6.835029 0.307193s-6.246244 0.460788-9.59976 0.742381-6.451039 0.665583-9.292568 1.126372-4.78708 0.972776-5.785455 1.58716c-0.511987 0.307192-0.921577 0.79358-1.279968 1.510363s-0.614385 1.305567-0.819179 1.791955l-3.302318 8.319792c-1.407965 3.532712-2.892728 7.526212-4.505487 11.929301s-3.276718 9.062173-5.017475 13.951652-3.430314 9.676558-5.017474 14.335641l-4.42869 13.055674a167.59901 167.59901 0 0 0-3.071923 9.932552zM423.759006 731.476113c0-1.100772 0.179196-2.585535 0.537587-4.428689s0.767981-3.737507 1.279968-5.708657 1.023974-3.814305 1.58716-5.63186 0.972776-3.251119 1.279968-4.351891l60.747281-199.342216a10.111747 10.111747 0 0 1 1.638359-1.791956c0.511987-0.511987 1.177571-0.921577 2.02235-1.279968s1.868753-0.537587 3.071923-0.537586h2.559936c2.201545 0 4.044699 0.38399 5.555061 1.126372s2.687933 1.740756 3.60951 2.995125 1.535962 2.687933 1.868753 4.351891 0.537587 3.430314 0.537587 5.324667c0 1.61276-0.127997 3.276718-0.383991 5.017475l-0.819179 5.094272c-0.281593 1.638359-0.614385 3.174321-0.972776 4.582286l-0.819179 3.302317-31.20562 106.493338 14.258843-1.356766c15.897203-3.507112 32.127197-7.116622 48.664384-10.879728s32.767181-7.372616 48.664383-10.879728c1.791955-0.895978 3.404715-2.739132 4.81268-5.555061s2.764731-6.451039 4.121497-10.956527 2.81593-9.778956 4.428689-15.820404 3.558311-12.774081 5.862253-20.172296l3.148722-10.342141c1.305567-4.991875 2.483138-10.137347 3.532711-15.385216s2.329542-10.034949 3.814305-14.335641 3.404715-7.833404 5.708657-10.572536 5.247869-4.121497 8.857379-4.121497c5.094273 0 9.062173 1.61276 11.852503 4.863879s4.198295 7.321417 4.198296 12.236494c0 3.097523-1.177571 8.294193-3.532712 15.59001s-5.273468 16.204395-8.780581 26.700132c-1.305567 3.891103-2.687933 7.910202-4.198295 12.0061s-2.867128 8.0126-4.121497 11.775706-2.278343 7.19342-3.071923 10.342141-1.20317 5.683058-1.20317 7.577411c0 1.791955 0.255994 3.58391 0.742382 5.324667s0.742381 3.635109 0.742381 5.631859c0 4.505487-1.20317 8.242994-3.60951 11.238119s-5.708657 6.041449-9.906952 9.138972c-0.204795 0.79358-0.486388 2.047949-0.819179 3.737506s-0.767981 3.455914-1.279968 5.247869l-1.945552 7.654209c-1.407965 5.503862-2.585535 11.007725-3.532712 16.511587s-1.791955 10.956526-2.559936 16.357991-1.561561 10.80293-2.406339 16.204395-1.919952 10.751731-3.22552 16.050798c-0.511987 1.99675-1.382365 3.763106-2.636734 5.324667s-2.687933 2.867128-4.351891 3.967901-3.379116 1.945551-5.171071 2.559936-3.507112 0.895978-5.094272 0.895978c-2.40634 0-4.351891-0.537587-5.862254-1.638359s-2.662333-2.40634-3.532712-3.891103-1.433564-3.046324-1.715157-4.659084-0.460788-2.943926-0.460788-4.044698c0-1.20317 0.179196-3.174321 0.537586-5.913453s0.81918-5.964651 1.433565-9.676558 1.305567-7.705407 2.099147-12.0061l2.40634-13.055673c1.894353-10.188545 4.095898-21.349866 6.604635-33.458364h-1.049574c-2.611135 0-5.401465 0.281593-8.39659 0.81918s-6.604635 1.331167-10.80293 2.329542c-1.894353 0.588785-4.735882 1.407965-8.473388 2.406339l-12.825279 3.455914-15.513213 4.198295-16.562786 4.505487-40.651783 11.110123c-1.894353 3.891103-3.686308 8.114997-5.324667 12.671683s-3.174321 9.138972-4.582286 13.798055-2.662333 9.21577-3.814304 13.721257l-3.22552 12.748481c-0.307192 1.100772-0.921577 2.303942-1.868753 3.60951a21.938652 21.938652 0 0 1-7.19342 6.297443 8.422189 8.422189 0 0 1-3.814305 1.049573 9.855754 9.855754 0 0 1-9.010974-5.17107c-0.895978-1.535962-1.535962-3.302317-1.868754-5.247869s-0.588785-3.839904-0.588785-5.734257zM652.054099 728.941776c0.40959-1.791955 0.972776-3.507112 1.715157-5.094272l2.483138-5.401465a99.530312 99.530312 0 0 0 5.836654-17.381966l5.862253-24.012199a2497.98555 2497.98555 0 0 1 9.59976-38.245444c1.61276-6.092648 3.532712-12.466888 5.785456-19.122722l7.039824-20.633084 7.423814-21.887453c2.508737-7.475013 4.761481-15.257219 6.758231-23.244219a3.839904 3.839904 0 0 0 0.153596-1.20317c0-0.79358-0.255994-1.305567-0.742381-1.510362s-1.151971-0.307192-1.945552-0.307192c-2.508737 0-4.582285-0.38399-6.220644-1.126372a10.188545 10.188545 0 0 1-5.913452-7.039824 29.18327 29.18327 0 0 1 0.998375-15.436414c1.049574-2.636734 2.40634-4.710282 4.044699-6.143847s3.455914-2.508737 5.401465-3.148721 3.839904-1.177571 5.708657-1.58716 3.481513-0.81918 4.863878-1.279968 2.40634-1.279968 2.995125-2.483138c0.998375-2.099148 1.919952-4.326292 2.764731-6.681433s1.919952-4.531087 3.22552-6.527837 2.892728-3.660708 4.812679-4.940677 4.40309-1.945551 7.500613-1.945551c2.201545 0 4.147096 0.588785 5.862253 1.791955s3.174321 2.687933 4.42869 4.505488 2.329542 3.737507 3.225519 5.785455l2.40634 5.631859a310.00825 310.00825 0 0 1 43.800505 4.198295c7.500612 1.407965 15.026824 3.507112 22.578635 6.297443s14.361241 6.425439 20.40269 10.879728 11.007725 9.702157 14.847629 15.743606 5.785455 12.978876 5.785455 20.786681c0 3.9935-0.460788 8.140596-1.356766 12.441289l-1.049573 5.247868c-0.79358 4.198295-2.483138 8.089398-5.017475 11.698908s-5.427064 6.860628-8.626984 9.753356c-8.908577 8.191795-18.661933 15.078023-29.260069 20.633084s-21.657059 10.214145-33.151171 14.028449-23.244219 6.988625-35.250319 9.59976-23.858604 5.043074-35.557511 7.347017l-4.198295 0.588785c-2.303942 0.307192-3.660708 1.151971-4.044699 2.559936-1.99675 6.911827-3.58391 12.953276-4.735881 18.149946s-2.227144 10.162946-3.22552 14.924427l-2.995125 14.258844c-0.998375 4.761481-2.252744 10.034949-3.737506 15.820404-0.511987 1.894353-1.407965 4.147096-2.687933 6.758231s-2.841529 5.043074-4.659084 7.347017-3.865503 4.275093-6.220644 5.913452-4.81268 2.483138-7.423815 2.483138c-1.791955 0-3.353516-0.511987-4.659083-1.510363s-2.38074-2.278343-3.22552-3.814304-1.510362-3.225519-1.945551-5.017475-0.665583-3.507112-0.665583-5.094272v-1.715158c0-0.537587 0-1.151971 0.204795-1.638359z m59.544111-110.845228l-0.819179 2.636734a73.828554 73.828554 0 0 0-1.715158 6.451038 11.007725 11.007725 0 0 0-0.307192 2.02235c0 0.511987 0.076798 0.921577 0.230394 1.279968s0.486388 0.537587 0.972776 0.537586c0.307192 0 1.254369-0.127997 2.841529-0.38399s3.532712-0.563186 5.785455-0.972776 4.684683-0.844779 7.270219-1.356766 5.094273-0.998375 7.500612-1.510362a343.159421 343.159421 0 0 0 42.955726-12.594885c7.347016-2.687933 14.38684-5.60626 21.068273-8.703783s12.646084-6.39984 17.842754-9.906952c5.503862-3.711907 9.906952-7.398215 13.20927-11.110122s4.940676-7.654209 4.940677-11.852504c0-2.508737-0.332792-4.735882-0.972776-6.681433s-1.382365-3.737507-2.175946-5.324667c-2.995125-4.889478-6.758231-8.754981-11.238119-11.545311s-9.394965-4.889478-14.694032-6.297443-10.854129-2.303942-16.639584-2.687932-11.494113-0.588785-17.100373-0.588786c-1.510362 0-3.763106 0.102397-6.835029 0.307193s-6.246244 0.460788-9.59976 0.742381-6.451039 0.665583-9.292568 1.126372-4.78708 0.972776-5.785455 1.58716c-0.511987 0.307192-0.921577 0.79358-1.279968 1.510363s-0.614385 1.305567-0.81918 1.791955l-3.302317 8.319792c-1.407965 3.532712-2.892728 7.526212-4.505487 11.929301s-3.276718 9.062173-5.017475 13.951652-3.430314 9.676558-5.017474 14.335641l-4.42869 13.055674a167.59901 167.59901 0 0 0-3.071923 9.932552z" fill="#FFFFFF" p-id="18719"></path></svg>