<?xml version="1.0" standalone="no"?><!DOCTYPE svg PUBLIC "-//W3C//DTD SVG 1.1//EN" "http://www.w3.org/Graphics/SVG/1.1/DTD/svg11.dtd"><svg class="icon" width="14px" height="14.00px" viewBox="0 0 1024 1024" version="1.1" xmlns="http://www.w3.org/2000/svg"><path d="M901.851653 926.484607a48.255937 48.255937 0 0 1-14.274541 34.442195 48.844737 48.844737 0 0 1-34.457555 14.279661H170.419644a48.220097 48.220097 0 0 1-34.457555-14.279661 48.844737 48.844737 0 0 1-14.279662-34.442195V48.846068a48.317377 48.317377 0 0 1 14.279662-34.467795A48.844737 48.844737 0 0 1 170.419644 0.001331h418.800096a48.742337 48.742337 0 0 1 34.662355 14.131182l263.858857 263.910057a48.844737 48.844737 0 0 1 14.110701 34.667475z" fill="#EBECF0" /><path d="M901.851653 926.484607v48.767936a48.317377 48.317377 0 0 1-14.274541 34.467796 48.844737 48.844737 0 0 1-34.457555 14.279661H170.419644a48.844737 48.844737 0 0 1-48.788417-48.844737v-48.721856a48.204737 48.204737 0 0 0 14.279662 34.442195 48.844737 48.844737 0 0 0 34.457555 14.279661h682.648713a48.844737 48.844737 0 0 0 48.773056-48.783296z" fill="#C1C7D0" /><path d="M24.167034 536.423034h975.153932v243.849923a48.921536 48.921536 0 0 1-48.721856 48.844736H73.011771a48.342977 48.342977 0 0 1-34.467796-14.274541 48.844737 48.844737 0 0 1-14.376941-34.570195z" fill="#88C057" /><path d="M121.733627 536.412794V438.856441L24.167034 536.412794z m780.118026 0l0.926719-97.556353 97.039234 97.556353z" fill="#497F16" /><path d="M901.851653 312.628125v6.860791h-263.833257a48.844737 48.844737 0 0 1-48.844736-48.844737V0.001331a48.732097 48.732097 0 0 1 34.662355 14.115822l264.268456 263.751337a49.459136 49.459136 0 0 1 13.701102 34.754515z" fill="#C1C7D0" /><path d="M285.711654 773.954885h-59.033523v-181.027605h86.579087q75.750302 0.988159 77.726619 60.999601-0.993279 62.970798-75.760541 63.948717h-29.511642z m0-98.385792h24.596448q23.608289 0 23.61341-21.642212 0-18.687976-31.48796-18.698216h-16.721898zM465.75622 592.92728l64.936876 98.380672-1.966078-41.318346v-57.062326h57.067446v181.027605H529.715177l-64.941996-98.385792 2.954237 41.318346v57.067446H410.665092v-181.027605zM795.355792 674.586054v99.368831h-38.37435l-1.966078-17.710057q-17.710057 20.664293-55.091128 20.659173-84.63349-3.937275-87.567246-91.494281 4.910074-93.460359 94.448517-97.402753 72.796065 1.976317 86.579087 66.897833h-57.062326q-5.903352-22.620131-30.4998-22.625251-33.459157 0.993279-34.437075 53.125051 0.967679 49.213376 38.36923 49.198016 23.618529-2.949116 30.4998-20.664293h-26.562525v-39.352269z" fill="#FFFFFF" /></svg>