<?xml version="1.0" standalone="no"?><!DOCTYPE svg PUBLIC "-//W3C//DTD SVG 1.1//EN" "http://www.w3.org/Graphics/SVG/1.1/DTD/svg11.dtd"><svg class="icon" width="14px" height="14.00px" viewBox="0 0 1024 1024" version="1.1" xmlns="http://www.w3.org/2000/svg"><path d="M901.851653 926.484607a48.255937 48.255937 0 0 1-14.274541 34.442195 48.844737 48.844737 0 0 1-34.457555 14.279661H170.419644a48.220097 48.220097 0 0 1-34.457555-14.279661 48.844737 48.844737 0 0 1-14.279662-34.442195V48.846068a48.317377 48.317377 0 0 1 14.279662-34.467795A48.844737 48.844737 0 0 1 170.419644 0.001331h418.800096a48.742337 48.742337 0 0 1 34.662355 14.131182l263.858857 263.910057a48.844737 48.844737 0 0 1 14.110701 34.667475z" fill="#EBECF0" /><path d="M901.851653 926.484607v48.767936a48.317377 48.317377 0 0 1-14.274541 34.467796 48.844737 48.844737 0 0 1-34.457555 14.279661H170.419644a48.844737 48.844737 0 0 1-48.788417-48.844737v-48.721856a48.204737 48.204737 0 0 0 14.279662 34.442195 48.844737 48.844737 0 0 0 34.457555 14.279661h682.648713a48.844737 48.844737 0 0 0 48.773056-48.783296z" fill="#C1C7D0" /><path d="M24.167034 536.423034h975.153932v243.849923a48.921536 48.921536 0 0 1-48.721856 48.844736H73.011771a48.342977 48.342977 0 0 1-34.467796-14.274541 48.844737 48.844737 0 0 1-14.376941-34.570195z" fill="#1B8ADD" /><path d="M121.733627 536.412794V438.856441L24.167034 536.412794z m780.118026 0l0.926719-97.556353 97.039234 97.556353z" fill="#425AE8" /><path d="M901.851653 312.628125v6.860791h-263.833257a48.844737 48.844737 0 0 1-48.844736-48.844737V0.001331a48.732097 48.732097 0 0 1 34.662355 14.115822l264.268456 263.751337a49.459136 49.459136 0 0 1 13.701102 34.754515z" fill="#C1C7D0" /><path d="M314.240257 780.119357h-59.033523V599.091752h86.579087q75.755422 0.988159 77.731739 60.999601-0.993279 62.970798-75.760541 63.948717h-29.516762z m0-98.385792h24.601568q23.608289 0 23.608289-21.642212 0-18.687976-31.482839-18.698216h-16.727018zM495.278102 780.119357h-59.033524V599.091752h86.584208q75.750302 0.988159 77.721499 60.999601-0.988159 62.970798-75.760542 63.948717h-29.511641z m0-98.385792h24.591328q23.623649 0 23.618529-21.642212 0-18.687976-31.487959-18.698216h-16.721898zM610.390912 646.313451v-47.221699h166.266664v47.221699h-53.130171v133.805906h-60.006322v-133.805906z" fill="#FFFFFF" /></svg>