<?xml version="1.0" standalone="no"?><!DOCTYPE svg PUBLIC "-//W3C//DTD SVG 1.1//EN" "http://www.w3.org/Graphics/SVG/1.1/DTD/svg11.dtd"><svg class="icon" width="14px" height="14.00px" viewBox="0 0 1024 1024" version="1.1" xmlns="http://www.w3.org/2000/svg"><path d="M901.632 926.72c0 12.8-5.12 25.088-14.336 34.304-9.216 9.216-21.504 14.336-34.304 14.336H170.496c-12.8 0-25.6-5.12-34.304-14.336-9.216-9.216-14.336-21.504-14.336-34.304V48.64c0-12.8 5.12-25.6 14.336-34.304C144.896 5.12 157.696 0 170.496 0h418.816c12.8 0 25.6 5.12 34.816 14.336l263.68 263.68c9.216 9.216 14.336 21.504 14.336 34.816V926.72z" fill="#EBECF0" /><path d="M901.632 926.72v48.64c0 12.8-5.12 25.6-14.336 34.304-9.216 9.216-21.504 14.336-34.304 14.336H170.496c-27.136 0-48.64-22.016-48.64-48.64V926.72c0 12.8 5.12 25.088 14.336 34.304 9.216 9.216 21.504 14.336 34.304 14.336h682.496c27.136 0 48.64-22.016 48.64-48.64z" fill="#C1C7D0" /><path d="M24.064 536.576h975.36v243.712c0 27.136-22.016 48.64-48.64 48.64H73.216c-12.8 0-25.6-5.12-34.304-14.336-9.216-9.216-14.336-21.504-14.336-34.816v-243.2z" fill="#1B8ADD" /><path d="M121.856 536.576V438.784L24.064 536.576h97.792z m779.776 0l1.024-97.792 97.28 97.792h-98.304z" fill="#425AE8" /><path d="M901.632 312.832v6.656h-263.68c-27.136 0-48.64-22.016-48.64-48.64V0c12.8 0 25.6 5.12 34.816 14.336l264.192 263.68c8.704 9.216 13.824 21.504 13.312 34.816z" fill="#C1C7D0" /><path d="M203.264 769.536h-61.44v-188.928h90.624c52.736 0.512 79.872 22.016 81.408 63.488-0.512 44.032-27.136 66.048-79.36 66.56h-30.72v58.88z m0-102.912h25.6c16.384 0 24.576-7.68 24.576-22.528 0-12.8-10.752-19.456-32.768-19.456h-17.408v41.984zM392.192 769.536h-61.44v-188.928h90.624c52.736 0.512 79.872 22.016 81.408 63.488-0.512 44.032-27.136 66.048-79.36 66.56h-30.72v58.88z m0-102.912h25.6c16.384 0 24.576-7.68 24.576-22.528 0-12.8-10.752-19.456-32.768-19.456h-17.408v41.984zM512.512 629.76v-49.152H686.08v49.152h-55.296v139.776H568.32V629.76h-55.808zM796.16 715.776l-30.72 53.248h-69.632l66.56-98.816-60.928-90.112h70.144l26.624 48.128 27.648-48.128H896L830.976 670.72l64.512 98.816h-69.632l-29.696-53.76z" fill="#FFFFFF" /></svg>