<?xml version="1.0" standalone="no"?><!DOCTYPE svg PUBLIC "-//W3C//DTD SVG 1.1//EN" "http://www.w3.org/Graphics/SVG/1.1/DTD/svg11.dtd"><svg class="icon" width="14px" height="14.00px" viewBox="0 0 1024 1024" version="1.1" xmlns="http://www.w3.org/2000/svg"><path d="M847.872 240.128v688c0 26.56-21.408 48-48 48h-576c-26.56 0-48-21.44-48-48v-832c0-26.592 21.44-48 48-48h432z" fill="#E9EDED" /><path d="M160 768.128v160c0 35.456 28.544 64 64 64h576c35.456 0 64-28.544 64-64v-160H160z" fill="#2B4255" /><path d="M847.872 240.128h-144c-26.56 0-48-21.44-48-48v-144" fill="#2B4255" /><path d="M580.064 261.76a43.2 43.2 0 0 0-31.552 13.6 16 16 0 0 0-0.896 0.96s-79.392 96.928-165.664 208.256c-13.44 0.896-27.424 1.472-37.12 10.688a51.648 51.648 0 0 0-14.784 46.56l0.128-0.192a16 16 0 0 1 1.024-1.696c-1.824 2.624-1.28 2.432-1.088 2.176 0.16 0.768 0.032 1.504 0.192 2.24l-0.32-2.048 0.128-0.192-0.064-0.32c-6.304 12.096-17.024 21.152-29.76 25.344a16 16 0 0 0-9.152 7.808l-0.512 0.96a16 16 0 0 0-0.512 13.728 81.408 81.408 0 0 0 94.144 46.688 84.064 84.064 0 0 0 63.488-80.576l-1.056 2.496 1.248-6.88c0.064 1.504-0.16 2.912-0.192 4.384l4.704-11.104 162.752-212.8a42.24 42.24 0 0 0 8.32-32.576 45.184 45.184 0 0 0-15.072-26.24 44.32 44.32 0 0 0-28.384-11.264z m-0.576 31.936v0.064c2.432 0 5.472 1.216 7.936 3.36 2.496 2.176 4.16 5.12 4.576 7.552 0.416 2.464 0.256 4.384-2.176 7.584l-153.088 200.192c-0.96-1.824-1.472-3.84-2.624-5.568a60.544 60.544 0 0 0-16.16-16.32A11667.2 11667.2 0 0 1 571.616 297.6c3.328-3.36 5.504-3.904 7.872-3.872z m-189.056 218.688a16 16 0 0 0 0.704 0.064 16 16 0 0 0 0.192 0.064c8.064 2.88 12.384 6.432 16.032 12 3.68 5.536 6.4 13.696 8.064 24.96a16 16 0 0 0 0.512 2.272 16 16 0 0 0 0 0.832 52.16 52.16 0 0 1-39.36 52.608c-20.32 5.024-38.912-4.736-50.4-21.184 11.968-7.744 25.024-14.368 31.84-27.2a25.12 25.12 0 0 0 3.616-10.368 28.32 28.32 0 0 0 0.256-6.624 16 16 0 0 0-0.32-2.368c-1.76-7.904 0.192-14.144 5.248-18.944 5.056-4.8 13.6-7.616 23.616-6.112z" fill="#2B4255" /><path d="M303.744 800c-24.96 0-45.504 19.584-47.552 44.064a16 16 0 0 0-0.448 3.744v96a16 16 0 1 0 32 0v-50.816c5.024 1.824 10.4 3.008 16 3.008 26.336 0 48-21.664 48-48s-21.664-48-48-48z m126.4 0a16 16 0 0 0-2.016 0.384c-24.64 1.92-44.384 22.528-44.384 47.616 0 25.28 20.096 46.08 44.992 47.68a16 16 0 0 0 3.008 0.32h32c9.152 0 16 6.848 16 16 0 9.152-6.848 16-16 16h-64a16 16 0 1 0 0 32h64a16 16 0 0 0 3.328-0.384 48.096 48.096 0 0 0 44.672-47.616c0-25.152-19.84-45.856-44.544-47.68a16 16 0 0 0-3.456-0.32h-30.88a16 16 0 0 0-1.12 0 15.616 15.616 0 0 1-16-16c0-9.152 6.88-16 16-16h64a16 16 0 1 0 0-32h-62.88a16 16 0 0 0-1.12 0 16 16 0 0 0-1.6 0z m129.184 0a16 16 0 0 0-15.776 16.256v126.88a16 16 0 0 0 8.448 15.424 16 16 0 0 0 0.256 0.128 16 16 0 0 0 3.232 1.248 16 16 0 0 0 1.152 0.256 16 16 0 0 0 3.104 0.32h32a16 16 0 0 0 4.768-0.704C638.368 956.32 672 922.56 672 880.512c0-41.952-33.472-75.712-75.2-79.328a16 16 0 0 0-4.8-0.672h-28.448A16 16 0 0 0 559.36 800z m-255.584 32c9.024 0 16 6.976 16 16 0 9.024-6.976 16-16 16a15.776 15.776 0 0 1-16-16v-0.192a15.776 15.776 0 0 1 16-15.808z m271.808 0.512h14.016c28.544 0 50.432 21.44 50.432 48 0 26.528-21.888 48-50.432 48h-14.016v-96z" fill="#E9EDED" /></svg>