<?xml version="1.0" standalone="no"?><!DOCTYPE svg PUBLIC "-//W3C//DTD SVG 1.1//EN" "http://www.w3.org/Graphics/SVG/1.1/DTD/svg11.dtd"><svg class="icon" width="14px" height="14.00px" viewBox="0 0 1024 1024" version="1.1" xmlns="http://www.w3.org/2000/svg"><path d="M144.7936 0c-44.8 0-80 36.8128-80 81.6128v860.8c0 44.8 35.2 81.6128 80 81.6128h732.8a81.9712 81.9712 0 0 0 81.6128-81.6128V324.8128L656.7936 0h-512z" fill="#6EC097" /><path d="M656.768 0v233.6c0 25.6 17.6128 92.8 97.6128 92.8h204.8L656.768 0z" fill="#FFFFFF" /><path d="M394.752 628.7616c-2.7904 0-8.9088-0.64-18.304-1.9456-0.7936 15.104-1.2032 41.5488-1.2032 79.36 0 3.9936-1.3056 7.3728-3.8912 10.1376s-5.8624 4.1216-9.7536 4.1216c-3.9936 0-7.296-1.3824-9.9072-4.1216s-3.8912-6.1184-3.8912-10.1376v-44.1088c0-14.6944 0.896-35.4048 2.688-62.1056 1.9968-28.9024 3.0976-49.6128 3.3024-62.1056v-20.7104c0-9.9072 0.5888-17.1008 1.792-21.6064 2.304-8.8064 7.1936-12.5952 14.6944-11.392 3.2-0.9984 7.7568-1.7408 13.6448-2.2528s13.1584-0.7424 21.76-0.7424c18.304 0 35.456 6.2464 51.456 18.7392 17.6128 13.7984 26.3936 30.4128 26.3936 49.792 0 24.8064-9.3952 44.544-28.2112 59.2384-16.768 13.2352-36.9664 19.84-60.5696 19.84z m7.5008-119.1168c-4.4032 0-8.32 0.1024-11.776 0.3072s-6.3744 0.512-8.7808 0.896l-0.3072 27.5968-3.1488 59.6992 16.512 1.9456c16.7936 0 30.9504-4.2496 42.4448-12.7488 12.5952-9.2928 18.8928-21.8624 18.8928-37.6576 0-11.2128-5.9904-20.8384-17.9968-28.9536a63.5392 63.5392 0 0 0-35.84-11.0848zM668.4928 524.9536a222.4896 222.4896 0 0 0-9.6 17.5616l-25.8048 63.744c-10.0096 23.9104-19.4048 44.8-28.2112 62.6944l-18.7392 33.4592-7.9616 16.2048c-3.3024 5.8112-7.7568 8.704-13.3376 8.704-3.8912 0-7.4496-1.4592-10.6496-4.352s-4.8128-6.5024-4.8128-10.8032c0-3.4048 4.7104-14.0544 14.1056-31.9488l18.4576-33.7408c-17.8944-23.0912-29.4912-41.2928-34.7904-54.6048-4.5056-11.2896-12.0064-24.8576-22.5024-40.6528-14.4128-21.6064-22.8608-34.6624-25.344-39.1424a16.384 16.384 0 0 1-2.2528-8.0896c0-4.3008 1.5872-7.936 4.736-10.88s6.7328-4.4288 10.7264-4.4288c4.8896 0 9.0112 2.3552 12.288 7.04l12.0064 18.6112c10.5984 15.6928 17.6128 26.3936 20.992 32.1024 7.5008 12.288 13.3376 23.7056 17.5616 34.2016 3.3024 8.2944 10.3424 19.6608 21.1456 34.048l34.3552-83.712c3.8912-6.912 9.2928-17.5616 16.2048-31.9488 2.7904-6.8096 7.4496-10.1888 13.952-10.1888 3.9936 0 7.5776 1.408 10.7264 4.1984s4.736 6.4 4.736 10.8032c-0.0256 4.5568-2.688 11.6224-7.9872 21.12z" fill="#FFFFFF" /></svg>