<?xml version="1.0" standalone="no"?><!DOCTYPE svg PUBLIC "-//W3C//DTD SVG 1.1//EN" "http://www.w3.org/Graphics/SVG/1.1/DTD/svg11.dtd"><svg class="icon" width="14px" height="14.00px" viewBox="0 0 1024 1024" version="1.1" xmlns="http://www.w3.org/2000/svg"><path d="M144.7936 0c-44.8 0-80 36.8128-80 81.6128v860.8c0 44.8 35.2 81.6128 80 81.6128h732.8a81.9712 81.9712 0 0 0 81.6128-81.6128V324.8128L656.7936 0h-512z" fill="#7C4899" /><path d="M656.768 0v233.6c0 25.6 17.6128 92.8 97.6128 92.8h204.8L656.768 0z" fill="#FFFFFF" /><path d="M373.7088 718.4384a15.1552 15.1552 0 0 1-10.6496-4.8128c-33.1008-32.6912-69.888-54.7072-110.4128-65.9968l1.2032 29.3888 0.7424 29.5424c0 4.4032-1.4336 8.064-4.2752 11.0336s-6.4256 4.4288-10.7264 4.4288-7.8848-1.4848-10.7264-4.4288-4.2752-6.6304-4.2752-11.0336c0-7.9104-0.384-19.6864-1.1264-35.328s-1.1264-27.4176-1.1264-35.328c0-9.1904 0.9984-22.912 2.9952-41.088s2.9952-31.8464 2.9952-40.96c0-5.0944-0.4864-12.6464-1.4336-22.656s-1.4336-17.5616-1.4336-22.656c0-5.7088 1.6128-10.7008 4.8128-15.0016A16.768 16.768 0 0 1 246.0416 486.4l36.1472 2.8416c13.696 1.6896 25.2416 5.0432 34.6624 10.0608 40.4992 21.504 60.7488 47.744 60.7488 78.7456 0 15.2064-6.912 28.6464-20.7104 40.3456-11.1104 9.3952-24.96 16.5376-41.5488 21.4528 31.104 16.6912 54.3488 34.304 69.76 52.8128a15.872 15.872 0 0 1 3.8912 10.1888c0 4.1984-1.536 7.8592-4.5824 10.9568s-6.6048 4.6336-10.7008 4.6336z m-95.5648-198.2976l-22.1952-1.792 1.5104 18.1504c0.6912 7.3984 1.0496 13.44 1.0496 18.1504 0 8.0128-0.64 17.9456-1.9456 29.8496l-3.1488 29.8496c1.408 0 3.584 0.0512 6.528 0.1536s5.1712 0.1536 6.6816 0.1536c25.4976 0 44.5952-3.4048 57.2928-10.1888 5.6064-3.0976 10.8032-7.1424 15.5904-12.16 5.2992-5.6064 7.9616-10.3424 7.9616-14.2592 0-13.9008-7.9104-26.8544-23.7056-38.8608-14.5152-10.9824-29.7216-17.3312-45.6192-19.0464zM585.344 721.3056c-9.1904 0-17.2032-11.8016-24.0128-35.4048-2.6112-9.0112-5.8624-24.7552-9.7536-47.2576-10.1888 1.408-23.552 3.8912-40.0384 7.5008l-39.9104 8.2432c-4.992 13.1072-13.5424 32.256-25.6512 57.4464-3.2 5.6064-7.552 8.3968-13.056 8.3968-3.9936 0-7.5776-1.4592-10.7264-4.352s-4.736-6.5024-4.736-10.8032c0-4.8128 7.552-23.04 22.656-54.7584a16.2048 16.2048 0 0 1-2.56-9.0112c0-8.0896 4.8896-13.312 14.6944-15.5904a1238.656 1238.656 0 0 1 43.2128-73.8048c23.7056-37.888 38.4512-56.8576 44.2624-56.8576 7.9104 0 13.312 5.504 16.2048 16.512l9.4464 50.4064 22.3488 104.2432 8.5504 23.7056c2.8928 8.0896 4.352 13.4912 4.352 16.2048 0 4.3008-1.5616 7.9104-4.6592 10.8032s-6.6304 4.3776-10.624 4.3776z m-52.9408-171.4432l-42.9056 69.1456a821.504 821.504 0 0 1 55.04-11.2384l-12.1344-57.9072zM791.4496 718.4384a15.1552 15.1552 0 0 1-10.6496-4.8128c-33.1008-32.6912-69.888-54.7072-110.4128-65.9968l1.2032 29.3888 0.7424 29.5424c0 4.4032-1.4336 8.064-4.2752 11.0336s-6.4256 4.4288-10.7264 4.4288-7.8848-1.4848-10.7264-4.4288-4.2752-6.6304-4.2752-11.0336c0-7.9104-0.384-19.6864-1.1264-35.328s-1.1264-27.4176-1.1264-35.328c0-9.1904 0.9984-22.912 2.9952-41.088s2.9952-31.8464 2.9952-40.96c0-5.0944-0.4864-12.6464-1.4336-22.656s-1.4336-17.5616-1.4336-22.656c0-5.7088 1.6128-10.7008 4.8128-15.0016a16.6144 16.6144 0 0 1 15.744-7.1936l36.1472 2.8416c13.696 1.6896 25.2416 5.0432 34.6624 10.0608 40.4992 21.504 60.7488 47.744 60.7488 78.7456 0 15.2064-6.912 28.6464-20.7104 40.3456-11.1104 9.3952-24.96 16.5376-41.5488 21.4528 31.104 16.6912 54.3488 34.304 69.76 52.8128a15.872 15.872 0 0 1 3.8912 10.1888c0 4.1984-1.536 7.8592-4.5824 10.9568s-6.5792 4.6848-10.6752 4.6848z m-95.5392-198.2976l-22.1952-1.792 1.5104 18.1504c0.6912 7.3984 1.0496 13.44 1.0496 18.1504 0 8.0128-0.64 17.9456-1.9456 29.8496l-3.1488 29.8496c1.408 0 3.584 0.0512 6.528 0.1536s5.1712 0.1536 6.6816 0.1536c25.4976 0 44.5952-3.4048 57.2928-10.1888 5.6064-3.0976 10.8032-7.1424 15.5904-12.16 5.2992-5.6064 7.9616-10.3424 7.9616-14.2592 0-13.9008-7.9104-26.8544-23.7056-38.8608-14.5408-10.9824-29.7216-17.3312-45.6192-19.0464z" fill="#FFFFFF" /></svg>