<?xml version="1.0" standalone="no"?><!DOCTYPE svg PUBLIC "-//W3C//DTD SVG 1.1//EN" "http://www.w3.org/Graphics/SVG/1.1/DTD/svg11.dtd"><svg class="icon" width="14px" height="14.00px" viewBox="0 0 1024 1024" version="1.1" xmlns="http://www.w3.org/2000/svg"><path d="M901.625 926.725c0 12.8-5.125 25.0875-14.3375 34.3-9.225 9.2125-21.5 14.3375-34.3125 14.3375H170.4875c-12.8 0-25.6-5.125-34.3-14.3375-9.2125-9.225-14.3375-21.5-14.3375-34.3V48.6375c0-12.8 5.1125-25.6 14.3375-34.3C144.8875 5.125 157.7 0 170.4875 0H589.3125c12.8 0 25.6 5.125 34.8125 14.3375l263.675 263.6875c9.2125 9.2125 14.3375 21.5 14.3375 34.8125v613.8875h-0.5125z" fill="#EBECF0" /><path d="M901.625 926.725v48.6375c0 12.8-5.125 25.6-14.3375 34.3-9.225 9.225-21.5 14.3375-34.3125 14.3375H170.4875c-27.1375 0-48.6375-22.0125-48.6375-48.6375v-48.6375c0 12.8 5.1125 25.0875 14.3375 34.3 9.2125 9.2125 21.5 14.3375 34.3 14.3375h682.5c27.1375 0 48.6375-22.0125 48.6375-48.6375z" fill="#C1C7D0" /><path d="M24.0625 536.575h975.3625v243.7125c0 27.1375-22.0125 48.6375-48.6375 48.6375H73.2125c-12.8 0-25.6-5.1125-34.3-14.3375C29.6875 805.375 24.575 793.0875 24.575 779.775V536.575H24.0625z" fill="#6E83FF" /><path d="M121.85 536.575v-97.8L24.0625 536.575h97.7875z m779.775 0l1.025-97.8 97.275 97.8h-98.3z" fill="#3F61EF" /><path d="M901.625 312.8375v6.65H637.9375c-27.1375 0-48.6375-22.0125-48.6375-48.6375V0c12.8 0 25.6 5.125 34.8125 14.3375L888.3125 278.025c8.7 9.2125 13.825 21.5 13.3125 34.8125z" fill="#C1C7D0" /><path d="M235.4625 791.1V586.4625h101.5125c13.9625 0 26.7875 2.2 38.475 6.575 11.6875 4.3875 21.0625 11.075 28.125 20.075 7.075 9 10.6125 20.475 10.6125 34.4375 0 11.6375-2.8625 21.6375-8.6 30.0125-5.725 8.375-13.9625 14.975-24.7125 19.8v0.8c5.55 2.0625 10.225 4.7 14.0375 7.925 3.8 3.225 6.8875 6.9875 9.2625 11.275 2.375 4.3 4.1375 9.175 5.3 14.6375 1.3375 6.0875 2.1875 12.3125 2.55 18.6625 0.3625 6.3625 0.625 12.2625 0.8 17.725 0.175 5.4625 0.575 9.9625 1.2125 13.5 0.625 3.5375 1.875 5.575 3.7625 6.1125v3.0875h-58.95c-1.875-1.425-3.1125-4.7625-3.6875-10-0.5875-5.2375-1.05-11.275-1.4125-18.125-0.3625-6.85-1.3-13.3125-2.825-19.4-2.0625-8.95-5.2875-15.125-9.6625-18.525-4.3875-3.4-10.425-5.1-18.125-5.1h-27.8v71.1625h-59.8875z m59.8875-113.8625h31.9625c8.6875 0 15.3125-1.8375 19.875-5.5 4.5625-3.675 6.85-9.0875 6.85-16.25 0-6.7125-2.15-12.0625-6.45-16.05-4.3-3.9875-10.7875-5.975-19.475-5.975h-32.7625v43.775zM491.125 791.1V637.625h-57.7375v-51.1625h176.0375v51.1625h-58.55v153.475h-59.75zM632.65 791.1V586.4625h157.5125v50.35h-97.625v33.575h80.8375v46.4625h-80.8375v74.25h-59.8875z" fill="#FFFFFF" /></svg>