<?xml version="1.0" standalone="no"?><!DOCTYPE svg PUBLIC "-//W3C//DTD SVG 1.1//EN" "http://www.w3.org/Graphics/SVG/1.1/DTD/svg11.dtd"><svg class="icon" width="14px" height="14.00px" viewBox="0 0 1024 1024" version="1.1" xmlns="http://www.w3.org/2000/svg"><path d="M901.63125 926.725c0 12.8-5.125 25.0875-14.3375 34.3-9.225 9.2125-21.5 14.3375-34.3125 14.3375H170.49375c-12.8 0-25.6-5.125-34.3-14.3375-9.2125-9.225-14.3375-21.5-14.3375-34.3V48.6375c0-12.8 5.1125-25.6 14.3375-34.3C144.89375 5.125 157.70625 0 170.49375 0H589.31875c12.8 0 25.6 5.125 34.8125 14.3375l263.675 263.6875c9.2125 9.2125 14.3375 21.5 14.3375 34.8125v613.8875h-0.5125z" fill="#EBECF0" /><path d="M901.63125 926.725v48.6375c0 12.8-5.125 25.6-14.3375 34.3-9.225 9.225-21.5 14.3375-34.3125 14.3375H170.49375c-27.1375 0-48.6375-22.0125-48.6375-48.6375v-48.6375c0 12.8 5.1125 25.0875 14.3375 34.3 9.2125 9.2125 21.5 14.3375 34.3 14.3375h682.5c27.1375 0 48.6375-22.0125 48.6375-48.6375z" fill="#C1C7D0" /><path d="M121.85625 536.575v-97.8L24.06875 536.575h97.7875z m779.775 0l1.025-97.8 97.275 97.8h-98.3z" fill="#C626BE" /><path d="M901.63125 312.8375v6.65H637.94375c-27.1375 0-48.6375-22.0125-48.6375-48.6375V0c12.8 0 25.6 5.125 34.8125 14.3375L888.31875 278.025c8.7 9.2125 13.825 21.5 13.3125 34.8125z" fill="#C1C7D0" /><path d="M717.44375 619.5125c-5.55-4.475-14.425-6.7125-26.625-6.7125h-24.725v56.3h26.85c21.875 0 32.8125-9.3125 32.8125-27.925 0-9.9625-2.775-17.1875-8.3125-21.6625z" fill="#FF55EF" /><path d="M24.58125 536.575v243.2c0 13.3125 5.1125 25.6 14.3375 34.8125 8.7 9.225 21.5 14.3375 34.3 14.3375h877.575c26.625 0 48.6375-21.5 48.6375-48.6375V536.575H24.58125z m354.2625 226.2125c-6.25 9.3625-15.05 16.5875-26.4 21.6625-11.35 5.0875-24.2375 7.625-38.675 7.625-22.8875 0-45.9875-5.9-69.275-17.7v-48.2125c21.3625 17.0875 42.1625 25.6375 62.4125 25.6375 8.95 0 15.7625-1.85 20.45-5.575 4.675-3.7125 7.025-8.3125 7.025-13.8125 0-3.9625-0.8625-7.4-2.6-10.3-1.725-2.9-5.3125-6.275-10.7625-10.15-5.4375-3.8625-13.8125-8.4875-25.1-13.8875-10.375-5.3875-19.2-10.65-26.475-15.7875-7.275-5.1375-13.525-11.85-18.7625-20.1375-5.2375-8.2875-7.8625-18.175-7.8625-29.675s2.825-21.1125 8.4625-30.0625c5.65-8.95 13.8875-16.025 24.725-21.2125s23.825-7.7875 38.9875-7.7875c11.9 0 23.475 1.5 34.7125 4.5 11.2375 3 21.1375 7.1 29.675 12.2875v45.625c-20.1375-15.7625-39.825-23.65-59.05-23.65-8.3375 0-14.65 1.7-18.925 5.1125-4.275 3.4125-6.4125 7.9625-6.4125 13.6625 0 5.1875 2.1875 9.8625 6.5625 14.0375 4.375 4.175 12.9125 9.4625 25.6375 15.875 14.2375 7.325 25.45 13.8625 33.65 19.6125 8.1875 5.75 14.8 12.6125 19.8375 20.6s7.55 17.725 7.55 29.225c0 12.3125-3.125 23.1375-9.3875 32.5z m194.325 26.55H424.85625V576.175h145.875v38.15H478.56875v46.85h88.0375v38.15H478.56875v51.875h94.6v38.15z m199.125-115.5125c-5.6 9.6625-14.0625 17.375-25.4 23.1125-11.35 5.75-25.3625 8.625-42.0375 8.625h-38.7625v83.775h-53.7125V576.175h89.875c24.6125 0 43.8375 5.675 57.675 17.0125 13.8375 11.35 20.75 27.3375 20.75 47.9875 0 12.1125-2.8 22.9875-8.3875 32.65z" fill="#FF55EF" /><path d="M360.84375 680.4625c-8.1875-5.75-19.4-12.2875-33.65-19.6125-12.7125-6.4125-21.2625-11.7-25.6375-15.875s-6.5625-8.85-6.5625-14.0375c0-5.7 2.1375-10.25 6.4125-13.6625 4.275-3.4125 10.575-5.1125 18.925-5.1125 19.225 0 38.9125 7.8875 59.05 23.65v-45.625c-8.55-5.1875-18.4375-9.2875-29.675-12.2875-11.2375-3-22.8125-4.5-34.7125-4.5-15.1625 0-28.15 2.6-38.9875 7.7875s-19.075 12.2625-24.725 21.2125c-5.65 8.95-8.4625 18.975-8.4625 30.0625s2.6125 21.3875 7.8625 29.675c5.2375 8.2875 11.5 15 18.7625 20.1375 7.275 5.1375 16.1 10.4 26.475 15.7875 11.2875 5.3875 19.6625 10.025 25.1 13.8875 5.4375 3.8625 9.025 7.25 10.7625 10.15 1.725 2.9 2.6 6.3375 2.6 10.3 0 5.4875-2.3375 10.1-7.025 13.8125-4.675 3.7125-11.5 5.575-20.45 5.575-20.25 0-41.05-8.55-62.4125-25.6375v48.2125c23.2875 11.8 46.3875 17.7 69.275 17.7 14.4375 0 27.3375-2.55 38.675-7.625 11.3375-5.0875 20.1375-12.3125 26.4-21.6625 6.25-9.3625 9.3875-20.1875 9.3875-32.5 0-11.5-2.5125-21.2375-7.55-29.225s-11.65-14.85-19.8375-20.6zM478.56875 699.3125h88.0375v-38.15H478.56875v-46.8375h92.1625v-38.15h-145.875v213.1625h148.3125v-38.15H478.56875v-51.875zM759.93125 593.1875c-13.8375-11.3375-33.0625-17.0125-57.675-17.0125h-89.875v213.1625h53.7125v-83.775h38.7625c16.6875 0 30.7-2.875 42.0375-8.625 11.3375-5.75 19.8125-13.45 25.4-23.1125 5.5875-9.6625 8.3875-20.55 8.3875-32.65 0-20.65-6.925-36.65-20.75-47.9875z m-66.9875 75.9125h-26.85v-56.3h24.725c12.2125 0 21.0875 2.2375 26.625 6.7125 5.55 4.475 8.3125 11.7 8.3125 21.6625 0 18.6125-10.9375 27.925-32.8125 27.925z" fill="#FFFFFF" /></svg>