<?xml version="1.0" standalone="no"?><!DOCTYPE svg PUBLIC "-//W3C//DTD SVG 1.1//EN" "http://www.w3.org/Graphics/SVG/1.1/DTD/svg11.dtd"><svg class="icon" width="14px" height="14.00px" viewBox="0 0 1024 1024" version="1.1" xmlns="http://www.w3.org/2000/svg"><path d="M145.621959 0c-44.79888 0-79.998 36.81188-79.998 81.61076v860.77848c0 44.79888 35.19912 81.61076 79.998 81.61076h732.781681a81.969151 81.969151 0 0 0 81.61076-81.61076V324.80468L657.60916 0h-511.987201z" fill="#A4D3EE" /><path d="M657.60916 0v233.59416c0 25.59936 17.61236 92.79768 97.61036 92.79768h204.79488L657.60916 0z" fill="#FFFFFF" /><path d="M243.565111 696.532987c3.404715 1.20317 6.886228 2.611135 10.418939 4.198295s7.21902 3.123122 11.033325 4.582285 7.782205 2.662333 11.929301 3.686308 8.575786 1.510362 13.286068 1.510362c5.503862 0 11.058924-0.639984 16.639584-1.945551s11.084523-3.225519 16.434789-5.785455 10.470138-5.657459 15.385216-9.292568 9.394965-7.884603 13.490862-12.671683c4.505487-5.094273 8.242994-9.727757 11.238119-13.874854s5.427064-7.859004 7.270219-11.110122 3.174321-6.041449 3.967901-8.39659 1.20317-4.377491 1.203169-6.067048c0-2.508737-0.844779-4.684683-2.559936-6.527837s-3.967901-3.379116-6.835029-4.582285-6.067048-2.073548-9.676558-2.636734-7.347016-0.81918-11.238119-0.81918c-2.303942 0-4.991875 0.076798-8.089398 0.230394l-9.446163 0.460789-9.292568 0.38399a150.39624 150.39624 0 0 1-7.807805 0.153596c-3.302317 0-6.732632-0.38399-10.265343-1.126372s-7.014225-1.971151-10.41894-3.686307-6.553436-3.9935-9.446164-6.911828a35.403915 35.403915 0 0 1-8.831779-15.743606 24.626584 24.626584 0 0 1-0.742381-6.143846c0-2.40634 0.179196-4.684683 0.537586-6.83503s0.767981-4.223894 1.279968-6.220644c1.407965-4.991875 3.737507-10.086148 6.963026-15.231619s7.142221-10.162946 11.698908-15.078023 9.497363-9.650959 14.847629-14.258844 10.854129-8.934177 16.511587-12.978875 11.21252-7.705407 16.639584-10.956526 10.521337-6.01585 15.231619-8.319792c6.604635-3.19992 13.337267-5.529462 20.172296-6.963026s13.61886-2.175946 20.325891-2.175946c3.9935 0 7.807805 0.537587 11.391716 1.58716s6.78383 2.585535 9.522962 4.582286 4.915077 4.479888 6.527836 7.423814 2.40634 6.323042 2.40634 10.137347c0 2.201545-0.255994 4.044699-0.742381 5.555061s-1.151971 2.713532-1.945552 3.686308-1.663958 1.61276-2.636734 2.022349-1.919952 0.588785-2.918327 0.588785c-2.687933 0-5.171071-0.307192-7.423814-0.895977s-4.428689-1.279968-6.527837-2.02235-4.198295-1.459164-6.297442-2.099147-4.40309-0.972776-6.911828-0.972776c-7.398215 0-14.924427 1.484763-22.578635 4.428689s-15.103622 6.707032-22.348241 11.23812-14.105247 9.625359-20.556287 15.231619-12.236494 11.058924-17.330766 16.357991c-2.687933 2.79033-4.684683 5.60626-5.913452 8.39659s-1.868753 5.452664-1.868754 7.961401c0 3.711907 1.61276 6.604635 4.81268 8.703782s7.091023 3.148721 11.698907 3.148722c2.687933 0 5.759856-0.051199 9.138972-0.153597a796.140096 796.140096 0 0 0 20.761081-0.844779c3.353516-0.153596 6.323042-0.230394 8.934177-0.230394 6.195045 0 12.159696 0.870378 17.842754 2.636734s10.751731 4.326292 15.154821 7.731007 7.935802 7.628609 10.572535 12.671683 3.967901 10.828529 3.967901 17.330767c0 3.9935-0.588785 8.038199-1.791955 12.159696s-2.841529 8.217395-4.940677 12.364491-4.505487 8.242994-7.19342 12.287693-5.555061 8.0126-8.550186 11.929301c-5.401465 6.988625-11.417315 13.59326-18.073148 19.788306s-13.721257 11.59651-21.22187 16.204395-15.436414 8.242994-23.781805 10.956526-16.921177 4.044699-25.727357 4.044699a74.724532 74.724532 0 0 1-23.551411-4.121497c-3.891103-1.356766-7.577411-3.046324-11.033324-5.094273s-6.476638-4.377491-9.062174-6.963026-4.684683-5.478263-6.220644-8.626984-2.40634-6.655834-2.40634-10.342142c0-1.791955 0.281593-3.532712 0.81918-5.17107s1.945551-2.483138 4.147096-2.483138zM577.150371 752.621184c0.79358 0.79358 1.382365 1.740756 1.715157 2.841529s0.537587 2.201545 0.537587 3.302318c0 2.508737-0.81918 4.761481-2.483138 6.758231s-3.60951 3.686308-5.862253 5.017474-4.582285 2.38074-6.963026 3.071924-4.351891 1.049574-5.862254 1.049573c-1.61276 0-3.148721-0.40959-4.659083-1.203169s-2.841529-1.740756-4.044699-2.841529-2.252744-2.201545-3.148721-3.302318l-1.945552-2.40634a122.211345 122.211345 0 0 1-13.030074-22.809029c-1.791955-4.095898-3.532712-8.39659-5.171071-12.902078s-3.276718-9.292568-4.863878-14.41244c-1.510362 0.204795-3.251119 0.40959-5.247869 0.588786s-4.044699 0.38399-6.143846 0.537586l-6.143847 0.383991s-3.711907 0.153596-5.094272 0.153596c-10.905327 0-20.377091-1.740756-28.41529-5.247869s-14.924427-9.292568-20.633084-17.407565c-3.711907-5.19667-6.527837-11.135722-8.473388-17.765956s-2.918327-13.977251-2.918327-21.964251c0-7.500612 1.100772-15.257219 3.302317-23.244218s5.222269-15.9996 9.062173-24.0122 8.447789-15.846004 13.798055-23.551411 11.161321-15.026824 17.407565-21.964251 12.850879-13.362866 19.788306-19.276318 14.028449-10.982125 21.221869-15.23162 14.361241-7.577411 21.452264-9.98375 13.951651-3.60951 20.556286-3.60951c2.687933 0 4.863878 0.332792 6.527837 0.972776l5.478263 2.175946 4.940676 2.099147c2.79033 0.511987 5.375866 1.023974 7.731007 1.58716s4.633484 1.20317 6.835029 1.945552 4.428689 1.663958 6.681433 2.764731 4.684683 2.457539 7.270218 4.044698c4.198295 2.611135 7.833404 6.195045 10.879728 10.80293s5.555061 9.702157 7.500613 15.308418 3.404715 11.519712 4.351891 17.765956 1.433564 12.313292 1.433564 18.226744c0 11.59651-2.201545 22.78343-6.604635 33.535162s-10.316542 20.940276-17.765956 30.591235-16.127597 18.661933-26.034549 27.007325a258.911927 258.911927 0 0 1-33.381565 23.935401 2.047949 2.047949 0 0 0-0.665584 1.638359c1.407965 5.299068 2.892728 9.958151 4.505488 13.951651s3.455914 7.705407 5.555061 11.110123 4.531087 6.681433 7.270218 9.830154 5.939052 6.553436 9.753356 10.137346z m-112.201995-111.894802c-0.691183 2.79033-1.254369 5.555061-1.638359 8.242994s-0.588785 5.299068-0.588785 7.807805c0 4.505487 0.639984 8.729382 1.945551 12.671683s3.276718 7.372616 5.913452 10.265343 6.01585 5.171071 10.137347 6.835029 9.010975 2.483138 14.694033 2.483138a101.706257 101.706257 0 0 0 10.77733-0.537586c1.484763-0.153596 2.969526-0.38399 4.42869-0.665584l4.428689-0.895977-1.126372-6.527837a311.032224 311.032224 0 0 1-2.252744-15.154821c-0.255994-2.252744-0.38399-3.967901-0.38399-5.171071s0.102397-2.662333 0.307192-4.351891 0.767981-3.327917 1.715157-4.863879 2.38074-2.867128 4.275093-3.9679 4.556686-1.638359 7.961401-1.638359c3.788705 0 6.655834 1.177571 8.550187 3.532711s3.379116 5.273468 4.428689 8.780581 1.868753 7.270218 2.483138 11.314917 1.510362 7.833404 2.687933 11.314917c6.707032-3.9935 13.362866-8.626984 20.018699-13.874853s12.876478-11.135722 18.661934-17.61236 10.982125-13.721257 15.513212-21.682658 8.063798-16.716382 10.572536-26.316142c0.588785-2.508737 1.075173-4.991875 1.433564-7.500612s0.537587-4.991875 0.537586-7.500613c0-5.094273-0.691183-10.214145-2.099147-15.385215s-3.58391-9.778956-6.527837-13.874853-6.758231-7.449414-11.391715-10.060549-10.162946-3.891103-16.562786-3.891103c-4.505487 0-8.831779 0.332792-12.978876 0.972776s-8.319792 1.715157-12.518087 3.22552-8.575786 3.481513-13.132471 5.913452-9.420564 5.478263-14.617235 9.062173c-6.39984 4.40309-12.543686 9.625359-18.457139 15.666808s-11.263718 12.543686-16.127596 19.506713-9.087773 14.182045-12.748482 21.682658-6.425439 14.898828-8.319792 22.194645zM663.394615 653.782055c4.505487-13.798055 8.80618-27.058524 12.902078-39.755806s7.731007-24.447389 10.879728-35.250318 5.657459-20.351491 7.500612-28.645684 2.867128-14.898828 3.071923-19.788306c1.20317-4.710282 3.327917-8.447789 6.374241-11.238119s6.579036-4.198295 10.572536-4.198295c2.40634 0 4.454289 0.537587 6.143846 1.638359s3.071923 2.559936 4.121497 4.351892 1.817555 3.814305 2.329542 6.067048 0.742381 4.531087 0.742381 6.835029c0 1.689558-0.102397 3.251119-0.307192 4.659084s-0.460788 2.739132-0.742382 4.044698c-2.303942 9.19017-5.043074 18.687533-8.242994 28.492088s-6.476638 19.737107-9.830154 29.772056-6.681433 20.121097-9.98375 30.232844-6.246244 19.9931-8.857379 29.695258l-2.687933 10.188545c-1.407965 5.19667-2.611135 10.137347-3.609509 14.847629s-1.510362 8.498988-1.510363 11.391715c0 1.61276 0.307192 2.867128 0.895978 3.814305s1.740756 1.433564 3.455914 1.433564c4.095898 0 8.908577-0.665583 14.412439-2.02235s11.21252-2.995125 17.100373-4.940676 11.775706-4.095898 17.61236-6.451039 11.21252-4.582285 16.127596-6.681433l6.681433-2.841529 6.911828-2.918327 11.033324-4.582285 19.045924-7.961401 3.686307-1.279968a9.087773 9.087773 0 0 1 7.039824 0.358391c1.151971 0.588785 2.047949 1.407965 2.687933 2.40634s1.126372 2.150346 1.433564 3.455913 0.460788 2.611135 0.460789 3.891103a27.647309 27.647309 0 0 1-1.663959 9.906952c-1.20317 1.894353-2.739132 3.635109-4.659083 5.171071s-3.891103 2.892728-5.99025 4.044699-4.147096 2.124747-6.143847 2.918327-3.660708 1.407965-4.940676 1.791955l-6.374241 2.40634-8.626984 3.302317a1375.556011 1375.556011 0 0 1-18.892328 7.21902l-7.731007 2.918327c-2.252744 0.844779-3.814305 1.433564-4.735881 1.715157l-14.335642 5.401465c-5.273468 1.99675-10.470138 3.891103-15.666808 5.708657s-10.137347 3.327917-14.770831 4.582286-8.524587 1.868753-11.622109 1.868753c-3.788705 0-6.78383-0.307192-8.934177-0.895978s-4.070298-1.433564-5.785455-2.483137-3.430314-2.329542-5.171071-3.814305-4.070298-3.148721-6.963026-4.940677c-2.611135-1.61276-4.454289-3.788705-5.555061-6.604634s-1.638359-5.811055-1.638359-9.010975c0-1.61276 0.127997-3.455914 0.38399-5.555061a121.59696 121.59696 0 0 1 2.329542-13.362866 60.158496 60.158496 0 0 1 1.638359-5.862254l8.39659-25.445764z" fill="#FFFFFF" /></svg>