<?xml version="1.0" standalone="no"?><!DOCTYPE svg PUBLIC "-//W3C//DTD SVG 1.1//EN" "http://www.w3.org/Graphics/SVG/1.1/DTD/svg11.dtd"><svg class="icon" width="14px" height="14.00px" viewBox="0 0 1024 1024" version="1.1" xmlns="http://www.w3.org/2000/svg"><path d="M901.851653 926.484607a48.255937 48.255937 0 0 1-14.274541 34.442195 48.844737 48.844737 0 0 1-34.457555 14.279661H170.419644a48.220097 48.220097 0 0 1-34.457555-14.279661 48.844737 48.844737 0 0 1-14.279662-34.442195V48.846068a48.317377 48.317377 0 0 1 14.279662-34.467795A48.844737 48.844737 0 0 1 170.419644 0.001331h418.800096a48.742337 48.742337 0 0 1 34.662355 14.131182l263.858857 263.910057a48.844737 48.844737 0 0 1 14.110701 34.667475z" fill="#EBECF0" /><path d="M901.851653 926.484607v48.767936a48.317377 48.317377 0 0 1-14.274541 34.467796 48.844737 48.844737 0 0 1-34.457555 14.279661H170.419644a48.844737 48.844737 0 0 1-48.788417-48.844737v-48.721856a48.204737 48.204737 0 0 0 14.279662 34.442195 48.844737 48.844737 0 0 0 34.457555 14.279661h682.648713a48.844737 48.844737 0 0 0 48.773056-48.783296z" fill="#C1C7D0" /><path d="M24.167034 536.423034h975.153932v243.849923a48.921536 48.921536 0 0 1-48.721856 48.844736H73.011771a48.342977 48.342977 0 0 1-34.467796-14.274541 48.844737 48.844737 0 0 1-14.376941-34.570195z" fill="#454B59" /><path d="M121.733627 536.412794V438.856441L24.167034 536.412794z m780.118026 0l0.926719-97.556353 97.039234 97.556353z" fill="#262D3A" /><path d="M901.851653 312.628125v6.860791h-263.833257a48.844737 48.844737 0 0 1-48.844736-48.844737V0.001331a48.732097 48.732097 0 0 1 34.662355 14.115822l264.268456 263.751337a49.459136 49.459136 0 0 1 13.701102 34.754515z" fill="#C1C7D0" /><path d="M297.026839 644.111854v-47.226819h166.271784v47.226819H410.168452v133.805906H350.15701v-133.805906zM548.899792 777.91776H488.87811v-181.032725h60.021682zM645.314387 777.91776h-59.033524v-181.032725h140.697418v42.306505h-81.663894v32.460758h64.936875v42.311625h-64.936875z" fill="#FFFFFF" /></svg>