<?xml version="1.0" standalone="no"?><!DOCTYPE svg PUBLIC "-//W3C//DTD SVG 1.1//EN" "http://www.w3.org/Graphics/SVG/1.1/DTD/svg11.dtd"><svg class="icon" width="14px" height="14.00px" viewBox="0 0 1024 1024" version="1.1" xmlns="http://www.w3.org/2000/svg"><path d="M847.872 240.128v688c0 26.56-21.408 48-48 48h-576c-26.56 0-48-21.44-48-48v-832c0-26.592 21.44-48 48-48h432z" fill="#E9EDED" /><path d="M160 768.128v160c0 35.456 28.544 64 64 64h576c35.456 0 64-28.544 64-64v-160H160z" fill="#4BBFEB" /><path d="M847.872 240.128h-144c-26.56 0-48-21.44-48-48v-144" fill="#4BBFEB" /><path d="M400.384 416.064a16 16 0 0 0-14.432 8.8l-95.84 191.68a16 16 0 1 0 28.64 14.336l19.36-38.752a16 16 0 0 0 0.128 0h124.192l19.392 38.72a16 16 0 1 0 28.608-14.272l-95.872-191.68a16 16 0 0 0-14.176-8.832z m-0.128 51.744l46.176 92.32h-92.32l46.144-92.32z m191.808 7.328c-26.624 0-48 22.528-48 49.184a16 16 0 1 0 32 0c0-10.08 7.168-17.184 16-17.184s16 7.104 16 17.184c0 9.952-7.296 17.12-16 17.12a16 16 0 0 0-5.376 0.8 47.904 47.904 0 0 0-39.008 29.696 49.92 49.92 0 0 0 10.24 53.184c13.632 14.08 34.688 18.56 52.704 10.816a47.36 47.36 0 0 0 13.44-8.992c8.48 7.808 19.552 12.8 31.872 12.8a16 16 0 1 0 0-32c-8.48 0-15.52-6.912-15.872-16.48v-65.888a16 16 0 0 0 0-1.056 16 16 0 0 0-0.384-3.744c-1.92-24.96-22.272-45.44-47.616-45.44z m16 95.232v18.208a16 16 0 0 0-0.128 1.984l0.064 0.32a17.184 17.184 0 0 1-10.016 15.616 14.912 14.912 0 0 1-17.056-3.552 18.208 18.208 0 0 1-3.552-19.136 15.808 15.808 0 0 1 14.688-10.368 16 16 0 0 0 3.52-0.384c4.352-0.32 8.512-1.216 12.48-2.688z" fill="#4BBFEB" /><path d="M270.4 800a16 16 0 0 0 1.6 32h15.808v111.872a16 16 0 1 0 32 0V832h15.808a16 16 0 1 0 0-32H272a16 16 0 0 0-1.6 0z m128.032 0a16 16 0 0 0 1.632 32h15.808v111.872a16 16 0 1 0 32 0V832h15.744a16 16 0 1 0 0-32h-63.552a16 16 0 0 0-1.6 0z m163.744 0a50.56 50.56 0 0 0-50.304 50.368v28.256a16 16 0 0 0 0 2.368V944a16 16 0 1 0 32 0V896h32a16 16 0 1 0 0-32h-32v-13.632c0-10.432 7.872-18.368 18.304-18.368h29.696a16 16 0 1 0 0-32h-29.696z" fill="#E9EDED" /></svg>