<?xml version="1.0" standalone="no"?><!DOCTYPE svg PUBLIC "-//W3C//DTD SVG 1.1//EN" "http://www.w3.org/Graphics/SVG/1.1/DTD/svg11.dtd"><svg class="icon" width="14px" height="14.00px" viewBox="0 0 1024 1024" version="1.1" xmlns="http://www.w3.org/2000/svg"><path d="M847.872 240.128v688c0 26.56-21.408 48-48 48h-576c-26.56 0-48-21.44-48-48v-832c0-26.592 21.44-48 48-48h432z" fill="#E9EDED" /><path d="M160 768.128v160c0 35.456 28.544 64 64 64h576c35.456 0 64-28.544 64-64v-160H160z" fill="#CED4DA" /><path d="M847.872 240.128h-144c-26.56 0-48-21.44-48-48v-144" fill="#CED4DA" /><path d="M239.2 128a16 16 0 1 0 1.632 32h159.744a16 16 0 1 0 0-32H240.832a16 16 0 0 0-1.6 0z m0 64a16 16 0 1 0 1.632 32h288a16 16 0 1 0 0-32h-288a16 16 0 0 0-1.6 0z m0 96a16 16 0 1 0 1.632 32h128a16 16 0 1 0 0-32h-128a16 16 0 0 0-1.6 0z m192 0a16 16 0 1 0 1.632 32h32a16 16 0 1 0 0-32h-32a16 16 0 0 0-1.6 0z m96 0a16 16 0 1 0 1.632 32h255.744a16 16 0 1 0 0-32h-255.744a16 16 0 0 0-1.6 0z m-288 64a16 16 0 1 0 1.632 32h192a16 16 0 1 0 0-32h-192a16 16 0 0 0-1.6 0z m256 0a16 16 0 1 0 1.632 32h32a16 16 0 1 0 0-32h-32a16 16 0 0 0-1.6 0z m96 0a16 16 0 1 0 1.632 32h191.744a16 16 0 1 0 0-32h-191.744a16 16 0 0 0-1.6 0z m-352 64a16 16 0 1 0 1.632 32h256a16 16 0 1 0 0-32h-256a16 16 0 0 0-1.6 0z m320 0a16 16 0 1 0 1.632 32h32a16 16 0 1 0 0-32h-32a16 16 0 0 0-1.6 0z m96 0a16 16 0 1 0 1.632 32h127.744a16 16 0 1 0 0-32h-127.744a16 16 0 0 0-1.6 0z m-416 64a16 16 0 1 0 1.632 32h128a16 16 0 1 0 0-32h-128a16 16 0 0 0-1.6 0z m192 0a16 16 0 1 0 1.632 32h32a16 16 0 1 0 0-32h-32a16 16 0 0 0-1.6 0z m96 0a16 16 0 1 0 1.632 32H784.576a16 16 0 0 0 0-32h-255.744a16 16 0 0 0-1.6 0z" fill="#CED4DA" /><path d="M400.64 799.648a16 16 0 0 0-1.632 0 16 16 0 0 0-11.744 25.728l40.736 54.432-40.736 54.4a16 16 0 0 0 25.6 19.2L448 906.464l35.136 46.88a16 16 0 0 0 25.6-19.2l-40.736-54.368 40.736-54.4a16 16 0 0 0-13.856-25.76 16 16 0 0 0-11.744 6.56L448 853.088l-35.136-46.88a16 16 0 0 0-12.224-6.624z m-96.64 0a16 16 0 0 0-3.36 0.384h-28.384a16 16 0 1 0 0 32h16v111.68a16 16 0 1 0 32 0V832h16a16 16 0 1 0 0-32h-28.576a16 16 0 0 0-3.68-0.384z m287.744 0a16 16 0 0 0-3.36 0.384h-28.64a16 16 0 1 0 0 32H576v111.68a16 16 0 1 0 32 0V832h15.744a16 16 0 1 0 0-32h-28.32a16 16 0 0 0-3.68-0.384z" fill="#E9EDED" /></svg>