<?xml version="1.0" standalone="no"?><!DOCTYPE svg PUBLIC "-//W3C//DTD SVG 1.1//EN" "http://www.w3.org/Graphics/SVG/1.1/DTD/svg11.dtd"><svg class="icon" width="14px" height="14.00px" viewBox="0 0 1024 1024" version="1.1" xmlns="http://www.w3.org/2000/svg"><path d="M145.621959 0c-44.79888 0-79.998 36.81188-79.998 81.61076v860.77848c0 44.79888 35.19912 81.61076 79.998 81.61076h732.781681a81.969151 81.969151 0 0 0 81.61076-81.61076V324.80468L657.60916 0h-511.987201z" fill="#F05542" /><path d="M657.60916 0v233.59416c0 25.59936 17.61236 92.79768 97.61036 92.79768h204.79488L657.60916 0z" fill="#FFFFFF" /><path d="M219.962501 741.971851l-1.279968 0.230394a11.238119 11.238119 0 0 1-6.681433-1.279968 15.359616 15.359616 0 0 1-6.758231-7.731007 11.9805 11.9805 0 0 1-0.895978-4.428689l-2.099147-9.010975-3.071923-13.20927a1342.481638 1342.481638 0 0 1-10.598135-49.483562 602.78813 602.78813 0 0 1-2.559936-14.847629c-0.511987-3.19992-1.049574-6.195045-1.638359-9.010975s-1.151971-5.478263-1.63836-8.0126-0.921577-5.043074-1.279968-7.500612a51.19872 51.19872 0 0 1-0.537586-7.423815c0-2.79033 0.307192-5.478263 0.895978-8.012599s1.484763-4.81268 2.636734-6.758231 2.559936-3.532712 4.198295-4.735882 3.481513-1.791955 5.478263-1.791955c3.9935 0 7.167821 0.972776 9.522962 2.918327s4.198295 4.582285 5.503862 7.833404 2.227144 7.014225 2.764731 11.314917 0.972776 8.754981 1.279968 13.337267c0.40959 5.811055 1.049574 12.082898 1.945551 18.815529s1.894353 13.490863 2.995125 20.249094 2.227144 13.260468 3.379116 19.506713l3.071923 16.562785c2.995125-3.097523 8.242994-10.00935 15.743607-20.709882l10.265343-14.41244c3.148721-4.40309 6.118247-8.626984 8.934177-12.671683s5.452664-8.063798 7.9614-12.082898 4.915077-8.140596 7.270219-12.441289 4.659084-8.882978 6.911827-13.721257 4.531087-10.214145 6.835029-16.127596c0.691183-1.20317 1.561561-2.483138 2.559936-3.814305a18.841129 18.841129 0 0 1 8.191795-6.246244 15.61561 15.61561 0 0 1 5.913452-1.049574c4.607885 0 7.731007 1.151971 9.369366 3.455914s2.483138 5.19667 2.483138 8.703782c0 4.710282-0.81918 9.266968-2.483138 13.721257s-4.275093 9.21577-7.884603 14.335642L236.294893 725.793055c-1.407965 2.995125-2.841529 5.503862-4.351892 7.500613s-2.969526 3.60951-4.428689 4.812679-2.81593 2.099148-4.121497 2.687933-2.431939 0.998375-3.430314 1.177571zM321.796755 708.539087c1.510362-5.811055 3.302317-12.543686 5.401465-20.249094l6.681433-24.447389c2.355141-8.601385 4.735882-17.407565 7.116622-26.39294s4.659084-17.740356 6.758231-26.239344a12.825279 12.825279 0 0 1 3.60951-4.863879 15.359616 15.359616 0 0 1 10.188545-3.532711c1.689558 0 3.353516 0.179196 4.940677 0.537586s3.020724 0.870378 4.275093 1.587161 2.252744 1.61276 2.995125 2.76473 1.126372 2.483138 1.126372 3.967901v0.972776a2.969526 2.969526 0 0 1-0.153596 0.972776l-4.198295 15.897202c-4.710282 17.791555-9.471763 35.659909-14.335642 53.553861s-9.574161 35.839104-14.182046 53.861054c-0.204795 0.588785-0.511987 1.356766-0.895977 2.252743s-0.947176 1.791955-1.638359 2.687933-1.561561 1.638359-2.559936 2.252744-2.201545 0.895978-3.60951 0.895978c-2.611135 0-4.889478-0.537587-6.911827-1.587161a17.151571 17.151571 0 0 1-9.292568-14.617234v-1.356766c0-0.40959 0.102397-0.844779 0.307193-1.356767l4.37749-17.56116z m39.167021-155.260119c0.511987-2.099148 1.407965-4.659084 2.687933-7.654209s3.60951-5.708657 6.911827-8.089397a34.78953 34.78953 0 0 1 10.80293-3.60951c0.998375 0 2.022349 0.358391 3.071923 1.049574s1.971151 1.459164 2.764731 2.252743c0.998375 0.998375 1.945551 2.099148 2.841529 3.302318 2.508737 0.204795 4.121497 1.100772 4.863878 2.687933s1.126372 3.507112 1.126372 5.708657c0 1.61276-0.153596 3.046324-0.460788 4.351891l-0.742382 3.148721c-0.588785 2.099148-1.740756 4.0191-3.455913 5.785456s-3.660708 3.251119-5.862254 4.505487-4.505487 2.227144-6.911827 2.918327-4.505487 1.049574-6.297443 1.049574c-2.303942 0-4.070298-0.40959-5.324666-1.20317s-2.81593-2.508737-4.735882-5.094273c-1.100772-1.510362-1.715157-2.662333-1.868753-3.532711a12.850879 12.850879 0 0 1 0-5.094273c0.153596-0.844779 0.38399-1.663958 0.588785-2.483138zM398.159646 684.526887c1.305567-5.401465 3.020724-10.80293 5.171071-16.204395a109.078873 109.078873 0 0 1 34.866328-46.027649c3.9935-3.19992 8.217395-6.220644 12.671683-9.062174s8.985375-5.324667 13.567661-7.423814 9.21577-3.763106 13.874853-5.017475 9.21577-1.868753 13.721257-1.868753a37.682258 37.682258 0 0 1 16.050799 3.148721l8.0126-28.210495c4.326292-15.308417 9.676558-36.607085 15.974-63.896002 1.100772-2.687933 2.662333-4.940676 4.659084-6.758231s4.40309-2.687933 7.19342-2.687933c1.99675 0 3.942301 0.179196 5.862253 0.537587s3.60951 1.049574 5.094273 2.099147 2.687933 2.483138 3.60951 4.275093 1.356766 4.147096 1.356766 7.039824l-30.156046 120.444989c-0.895978 3.404715-1.740756 7.987-2.559936 13.721257s-1.561561 11.826904-2.252744 18.226744-1.254369 12.722882-1.638359 18.969126-0.588785 11.622109-0.588785 16.127597c0 5.60626-0.639984 11.161321-1.945552 16.639584-0.588785 2.40634-1.228769 4.428689-1.868753 6.067048s-1.535962 2.995125-2.636734 4.044699-2.483138 1.791955-4.121497 2.252744-3.737507 0.665583-6.220644 0.665583c-2.892728 0-5.145471-0.307192-6.758231-0.895977s-2.79033-1.433564-3.60951-2.483138-1.279968-2.252744-1.433564-3.60951-0.255994-2.79033-0.307193-4.351891-0.153596-3.148721-0.307192-4.81268-0.563186-3.225519-1.279968-4.735882c-1.20317 0.79358-2.841529 1.843154-4.940676 3.148722l-6.374241 3.967901c-2.150346 1.331167-4.172696 2.611135-6.067048 3.737506l-4.198296 2.483138c-2.303942 1.305567-4.889478 2.662333-7.807804 4.121497s-6.01585 2.79033-9.369366 4.044699-6.860628 2.278343-10.495738 3.071923-7.321417 1.20317-11.033324 1.20317c-4.505487 0-8.882978-0.742381-13.132472-2.252744a32.434389 32.434389 0 0 1-19.404314-18.687532 42.930127 42.930127 0 0 1-2.995126-16.716383 55.883403 55.883403 0 0 1 1.817555-14.335641z m25.932152-1.20317c-0.79358 2.995125-1.20317 5.887853-1.20317 8.703782 0 2.892728 0.255994 5.631859 0.742381 8.166196s1.433564 4.78708 2.764731 6.681433 3.148721 3.430314 5.401465 4.582286 5.171071 1.715157 8.780581 1.715157c1.99675 0 4.147096-0.358391 6.451038-1.049574s4.582285-1.58716 6.835029-2.636734 4.351891-2.150346 6.297443-3.302318a151.394615 151.394615 0 0 0 15.59001-10.418939c3.251119-2.40634 6.169446-4.991875 8.780581-7.807805s4.863878-5.913452 6.835029-9.369366 3.532712-7.423814 4.735881-11.929301c0.998375-3.9935 1.868753-7.654209 2.636735-10.956527s1.433564-6.527837 2.022349-9.676558 1.151971-6.374241 1.638359-9.676558 0.998375-6.937427 1.510362-10.956526c-0.511987-0.588785-1.177571-1.177571-2.022349-1.715157s-2.124747-0.81918-3.814305-0.819179c-3.9935 0-8.39659 0.665583-13.20927 2.022349s-9.727757 3.276718-14.77083 5.785455-10.00935 5.555061-14.847629 9.138972-9.343766 7.628609-13.490863 12.082898-7.782205 9.318167-10.879728 14.617234-5.375866 10.930927-6.78383 16.81878zM565.400265 678.075848c0-4.300692 1.151971-7.961401 3.455914-10.956526s5.350266-4.991875 9.138971-5.99025a138.287743 138.287743 0 0 1 13.644459-21.170671c3.404715-4.40309 7.270218-8.831779 11.622109-13.286068s9.138972-8.498988 14.41244-12.159696 10.905327-6.630234 16.946776-8.934176 12.466888-3.455914 19.276319-3.455914c5.811055 0 10.854129 0.691183 15.154821 2.099147s7.859004 3.353516 10.649333 5.862254 4.889478 5.478263 6.297443 8.934177 2.099148 7.167821 2.099148 11.18692c0 3.404715-0.460788 6.655834-1.356767 9.753356-1.407965 5.60626-3.9935 10.495738-7.807804 14.694033s-8.268593 7.884603-13.414065 11.033324-10.751731 5.785455-16.79318 7.884603-12.108497 3.839904-18.149946 5.247869-11.878103 2.483138-17.484363 3.225519-10.444539 1.331167-14.540437 1.715157c-0.895978 1.791955-1.663958 4.070298-2.329542 6.835029s-0.972776 5.427064-0.972775 8.0126c0 5.811055 2.303942 10.290943 6.911827 13.490863s10.956526 4.81268 19.045924 4.812679c4.710282 0 9.19017-0.537587 13.490863-1.58716s8.370991-2.40634 12.236494-4.044699 7.475013-3.455914 10.879728-5.401465 6.502237-3.865503 9.292567-5.785455c3.60951-2.40634 7.014225-4.428689 10.265344-6.067049s6.118247-2.483138 8.626984-2.483138 4.095898 0.614385 4.81268 1.868754 1.049574 2.585535 1.049573 3.967901a34.251944 34.251944 0 0 1-0.307192 4.198295 25.804155 25.804155 0 0 1-8.703782 14.566035c-10.39334 8.191795-21.068273 14.054049-32.0248 17.561161s-22.629834 5.247869-35.019924 5.247869c-2.40634 0-5.222269-0.153596-8.473388-0.460788s-6.630234-0.895978-10.137347-1.791955-6.937427-2.201545-10.342141-3.891103a31.538412 31.538412 0 0 1-15.513212-17.100373 40.037399 40.037399 0 0 1-2.483138-14.847628c0-4.710282 0.639984-9.958151 1.945551-15.743607-1.305567-0.204795-2.534337-0.870378-3.686308-2.022349s-1.715157-2.81593-1.715157-5.017475z m93.898453-41.547761c0.204795-0.511987 0.307192-0.947176 0.307192-1.356766v-1.356766c0-2.687933-0.998375-4.735882-2.995125-6.067049s-4.40309-2.022349-7.19342-2.022349c-4.40309 0-8.729382 1.151971-12.978876 3.455913s-8.242994 5.171071-12.0061 8.626985-7.065423 7.142221-9.98375 11.110122-5.145471 7.526212-6.758231 10.726132c7.19342-0.588785 13.798055-1.58716 19.788305-2.918327s11.21252-3.046324 15.666808-5.094273 8.038199-4.351891 10.80293-6.911827 4.556686-5.273468 5.350267-8.191795zM720.78838 678.536637c1.510362-6.092648 3.814305-12.569286 6.963026-19.429915s7.270218-13.772456 12.364491-20.78668 11.21252-13.849254 18.380341-20.556286 15.436414-12.953276 24.831379-18.738732c1.510362-0.895978 3.788705-1.868753 6.911827-2.918327s6.297443-1.663958 9.59976-1.868753c3.891103-4.198295 9.138972-6.297443 15.743606-6.297443 7.807805 0 14.38684 1.971151 19.737107 5.913453s9.778956 9.318167 13.286068 16.127596c1.100772 2.201545 2.124747 4.351891 3.071923 6.451039s1.740756 4.326292 2.40634 6.681433 1.177571 4.863878 1.58716 7.577411 0.588785 5.759856 0.588785 9.138971c0 7.910202-1.254369 15.948401-3.737506 24.140197s-6.041449 16.204395-10.649334 24.012199-10.162946 15.282818-16.716382 22.42504-13.823654 13.567661-21.836254 19.276318c-5.401465 3.891103-11.366116 6.937427-17.919552 9.062173s-13.874853 3.225519-21.964251 3.22552c-7.705407 0-14.38684-1.023974-20.018699-3.071923s-10.342141-4.966276-14.105248-8.780581-6.553436-8.345391-8.39659-13.644459-2.764731-11.21252-2.764731-17.689158c-0.051199-6.297443 0.844779-13.055674 2.636734-20.249093z m24.908178 1.945551a53.169871 53.169871 0 0 0-1.663959 12.441289c0 3.302317 0.435189 6.374241 1.279968 9.21577a18.38034 18.38034 0 0 0 11.238119 12.159696c2.841529 1.151971 6.323042 1.715157 10.41894 1.715157 7.60301 0 14.668433-1.919952 21.221869-5.785456s12.364491-8.678183 17.484363-14.463638 9.369366-12.031699 12.825279-18.661934 5.862253-12.774081 7.270219-18.38034c0.895978-3.507112 1.663958-6.80943 2.329541-9.906952s0.972776-5.939052 0.972776-8.550187-0.486388-5.017475-1.433564-7.270218-2.175946-4.78708-3.686308-7.57741c-0.895978-1.689558-1.791955-3.481513-2.687933-5.324667s-1.689558-3.686308-2.406339-5.478263c-0.79358 1.407965-1.638359 2.636734-2.559936 3.686307s-2.252744 1.99675-4.044699 2.841529-4.249494 1.61276-7.347017 2.329542-7.142221 1.305567-12.159696 1.791955c-3.302317 1.100772-6.655834 2.79033-10.060548 5.094273s-6.732632 4.991875-9.983751 8.089398a109.20687 109.20687 0 0 0-17.253968 21.093872c-2.355141 3.763106-4.40309 7.423814-6.143847 11.033325s-2.918327 6.911827-3.609509 9.906952z" fill="#FFFFFF" /></svg>