<?xml version="1.0" standalone="no"?><!DOCTYPE svg PUBLIC "-//W3C//DTD SVG 1.1//EN" "http://www.w3.org/Graphics/SVG/1.1/DTD/svg11.dtd"><svg class="icon" width="14px" height="14.00px" viewBox="0 0 1024 1024" version="1.1" xmlns="http://www.w3.org/2000/svg"><path d="M145.621959 0c-44.79888 0-79.998 36.81188-79.998 81.61076v860.77848c0 44.79888 35.19912 81.61076 79.998 81.61076h732.781681a81.969151 81.969151 0 0 0 81.61076-81.61076V324.80468L657.60916 0h-511.987201z" fill="#41B883" /><path d="M657.60916 0v233.59416c0 25.59936 17.61236 92.79768 97.61036 92.79768h204.79488L657.60916 0z" fill="#FFFFFF" /><path d="M256.364791 566.181045c0-2.40634-0.127997-4.531087-0.383991-6.37424s-0.537587-3.60951-0.819179-5.247869l-0.81918-4.863878a39.781405 39.781405 0 0 1 0.281593-12.518087c0.435189-2.355141 1.20317-4.454289 2.252744-6.297443s2.483138-3.353516 4.275093-4.505487 4.095898-1.715157 6.911827-1.715157c3.9935 0 7.19342 0.844779 9.59976 2.559936s4.249494 3.865503 5.555062 6.527836 2.175946 5.657459 2.636734 9.010975 0.665583 6.681433 0.665583 9.98375c0 2.892728-0.281593 7.398215-0.81918 13.490863s-1.126372 13.695658-1.715157 22.80903-1.177571 19.660308-1.715157 31.640809-0.81918 25.240969-0.819179 39.755806c0 4.607885 0.204795 9.727757 0.588785 15.385215s1.20317 11.033324 2.40634 16.127597 2.892728 9.574161 5.094272 13.414065 5.145471 6.323042 8.857379 7.423814c9.19017-8.601385 17.61236-17.893953 25.266568-27.903302s14.566036-20.095498 20.786681-30.309642 11.801305-20.197895 16.79318-30.00245 9.497363-18.738732 13.490863-26.853729c3.788705-7.910202 7.21902-15.078023 10.265343-21.529062s5.811055-12.41569 8.242994-17.919552 4.607885-10.623734 6.451039-15.385215 3.532712-9.318167 5.017474-13.721257c0.40959-0.998375 1.049574-2.457539 1.945552-4.351891s2.355141-3.558311 4.351891-4.940677c2.611135-1.894353 6.758231-2.841529 12.441289-2.841529 3.507112 0 6.041449 0.767981 7.654208 2.329542s2.40634 3.737507 2.40634 6.527837l-0.076798 3.532711a9.98375 9.98375 0 0 1-0.819179 3.686308c-2.303942 6.092648-5.350266 13.081273-9.138972 20.914677s-7.756606 16.178796-11.852504 24.984976c-3.891103 8.294193-7.961401 16.767581-12.159696 25.420164s-8.498988 17.151571-12.902077 25.496963-8.831779 16.357991-13.286068 24.0122-8.831779 14.668433-13.132472 21.068273a524.991675 524.991675 0 0 1-41.829354 54.142646c-1.689558 1.894353-3.404715 3.737507-5.094273 5.478263s-3.507112 3.327917-5.401464 4.735882-3.942301 2.534337-6.143847 3.379116-4.607885 1.279968-7.19342 1.279968c-3.9935 0-7.500612-0.844779-10.495738-2.559936s-5.683058-3.814305-8.012599-6.374241-4.377491-5.375866-6.067049-8.473388-3.251119-6.092648-4.659083-9.010975c-1.791955-3.60951-3.327917-7.551811-4.582286-11.852504s-2.278343-8.78058-3.071923-13.414064-1.407965-9.394965-1.791955-14.258844a181.883453 181.883453 0 0 1-0.511987-19.660308l0.230394-11.391716a3415.108222 3415.108222 0 0 0 0.614385-34.354341 2396.202495 2396.202495 0 0 0 0.307192-39.218219v-7.270219zM444.750481 663.842604c2.201545-10.111747 4.582285-19.122722 7.116622-27.084123s5.068673-15.359616 7.577411-22.194645 4.863878-13.388465 7.116622-19.660309 4.223894-12.722882 5.913452-19.429914l1.791955-7.19342c0.40959-1.791955 0.742381-4.044699 1.049574-6.758231l0.972776-8.473388c0.358391-2.943926 0.81918-5.862253 1.433564-8.780581s1.484763-5.503862 2.636734-7.807805 2.636734-4.172696 4.428689-5.631859 4.095898-2.175946 6.911828-2.175945c3.097523 0 5.734257 0.537587 7.884602 1.638359s3.865503 2.559936 5.171071 4.351891 2.252744 3.865503 2.841529 6.220644 0.895978 4.78708 0.895978 7.270219c0 2.099148-0.127997 4.198295-0.383991 6.297442s-0.614385 4.044699-1.126372 5.862254c-1.100772 4.505487-2.892728 9.753356-5.401465 15.743606l-8.242993 19.865103c-2.995125 7.244619-6.041449 15.103622-9.138972 23.551412s-5.862253 17.381965-8.242994 26.77693c-1.407965 5.299068-2.636734 11.110122-3.686308 17.407565s-1.58716 12.0061-1.58716 17.100373c0 4.095898 0.358391 7.987 1.049574 11.622109s1.945551 6.860628 3.737506 9.59976 4.223894 4.915077 7.270219 6.527837 6.937427 2.40634 11.622109 2.40634c3.60951 0 7.321417-0.307192 11.18692-0.895978s8.422189-2.047949 13.721257-4.351891c7.807805-3.507112 15.18042-8.0126 22.117847-13.567661s13.388465-11.878103 19.353116-18.969126 11.442914-14.745231 16.511588-22.937026 9.625359-16.690783 13.721257-25.496963 7.731007-17.689158 10.879728-26.700132 5.836654-17.842754 8.012599-26.546537a121.161771 121.161771 0 0 0 3.22552-20.40269c0.255994-3.404715 0.460788-7.039824 0.588785-10.956526s0.435189-8.345391 0.81918-13.337266c0.307192-3.9935 1.433564-7.475013 3.379115-10.41894s4.915077-4.428689 8.934177-4.428689c2.508737 0 4.684683 0.998375 6.527836 2.995125s3.379116 4.479888 4.582286 7.423814 2.099148 6.067048 2.687933 9.369366 0.895978 6.246244 0.895977 8.857379c0 4.991875-0.511987 10.39334-1.510362 16.204395s-2.201545 11.340516-3.60951 16.639584c-2.892728 11.494113-6.374241 23.039424-10.418939 34.661533s-8.882978 22.937027-14.463639 34.047149-12.134097 21.861853-19.58351 32.331992-16.025199 20.223494-25.727357 29.336866c-4.81268 4.505487-10.00935 8.934177-15.59001 13.286068s-11.442914 8.268593-17.561161 11.775706-12.338892 6.323042-18.738732 8.473388-12.748481 3.225519-19.045923 3.225519c-9.087773 0-16.997975-1.279968-23.705008-3.814304s-12.262093-6.118247-16.716382-10.726132-7.782205-10.086148-9.98375-16.434789-3.302317-13.337267-3.302318-20.914678c0-3.60951 0.307192-7.577411 0.895978-11.929301s1.407965-8.652584 2.303942-12.850879zM645.449464 724.871478c0-3.507112 0.511987-7.19342 1.510362-11.110122 3.404715-13.59326 7.372616-26.930527 11.929302-39.9862s8.678183-26.034549 12.364491-38.936627 6.78383-23.781805 9.215769-32.613585 4.633484-16.460388 6.527837-22.809029 3.660708-11.826904 5.247869-16.43479 3.353516-9.138972 5.247869-13.644458c1.20317-2.687933 2.534337-5.503862 3.9679-8.396591s3.020724-5.58066 4.735882-8.012599 3.481513-4.454289 5.324667-5.99025 3.763106-2.329542 5.785455-2.329542c4.095898 0 7.21902 0.665583 9.369366 2.022349s3.481513 2.585535 3.967901 3.686308l1.356766 6.143846c1.510362-0.102397 3.455914-0.38399 5.862253-0.819179s4.81268-0.921577 7.270219-1.433564 4.735882-0.998375 6.835029-1.510362 3.711907-0.947176 4.812679-1.356767c6.604635-1.791955 12.697283-3.353516 18.303543-4.659083s10.930927-2.38074 15.974001-3.225519 9.881353-1.484763 14.463638-1.868754 9.241369-0.588785 13.951651-0.588785c4.607885 0 8.345391 0.255994 11.238119 0.742381s5.19667 1.177571 6.911827 2.02235 2.867128 1.843154 3.532712 2.995125 0.972776 2.38074 0.972776 3.686308c0 1.20317-0.332792 2.483138-0.972776 3.814305s-1.715157 2.636734-3.225519 3.814304-3.455914 2.252744-5.862254 3.148721-5.401465 1.510362-9.010974 1.791956c-0.895978 0.204795-2.969526 0.563186-6.220645 1.126372l-10.572536 1.791955-10.80293 1.868753a129.60956 129.60956 0 0 0-7.039824 1.356766h0.153597c-0.588785 0.102397-2.022349 0.486388-4.275094 1.126372s-4.966276 1.407965-8.166195 2.252744-6.681433 1.817555-10.41894 2.918327l-11.110122 3.225519a687.163621 687.163621 0 0 0-17.637959 5.324667c-6.092648 2.40634-10.879728 5.58066-14.335642 9.522962s-6.169446 8.370991-8.166196 13.286068c-0.40959 0.895978-0.998375 2.431939-1.791955 4.582285l-2.636734 7.347016-3.071923 8.780581-3.148721 8.857378c-0.998375 2.81593-1.868753 5.350266-2.636734 7.654209s-1.279968 3.9935-1.587161 5.094273c-0.307192 0.998375-0.511987 1.894353-0.588785 2.687933s-0.153596 1.407965-0.153596 1.791955c0 0.588785 0.153596 0.895978 0.460788 0.895977 1.510362 0 4.633484-0.665583 9.369366-2.022349s10.290943-3.020724 16.639584-5.017475l20.40269-6.451038c7.244619-2.303942 14.207645-4.454289 20.837879-6.451039s12.569286-3.686308 17.765956-5.017475 8.959776-2.022349 11.238119-2.022349c3.507112 0 5.862253 0.563186 7.039824 1.715157s1.791955 2.431939 1.791955 3.814305c0 3.60951-1.279968 6.758231-3.814305 9.446164s-5.734257 5.043074-9.522961 7.039824c-1.20317 0.588785-3.430314 1.484763-6.681433 2.636734s-6.758231 2.329542-10.495738 3.532711l-10.726132 3.455914-7.347016 2.40634c-9.804555 3.788705-17.765956 6.937427-23.935402 9.369365s-11.135722 4.454289-14.924427 5.990251l-8.78058 3.532711c-2.047949 0.81918-3.942301 1.484763-5.708657 2.02235s-3.686308 1.075173-5.785456 1.58716l-8.703782 2.099148c-0.895978 2.099148-1.945551 5.273468-3.148722 9.522962s-2.355141 8.652584-3.455913 13.209269-2.022349 8.78058-2.764731 12.671684-1.126372 6.604635-1.126372 8.089397c0 1.791955 0.255994 3.123122 0.742382 3.967901s1.100772 1.433564 1.791955 1.715157 1.407965 0.460788 2.099147 0.460789h1.638359c4.81268 0 10.572536-0.691183 17.330767-2.099148s13.414065-3.251119 20.0187-5.555061c6.297443-2.201545 11.801305-4.607885 16.511587-7.19342s9.113372-5.017475 13.286068-7.270218 8.191795-4.147096 12.159696-5.708658 8.268593-2.38074 12.978875-2.483137c0.998375 0 2.175946 0.102397 3.532712 0.307192s2.636734 0.563186 3.814305 1.126372 2.175946 1.279968 2.918327 2.175945 1.023974 2.047949 0.819179 3.455914c-0.40959 2.892728-1.843154 5.759856-4.351891 8.550186s-5.657459 5.503862-9.446164 8.089398-7.987 5.171071-12.671683 7.57741-9.497363 4.684683-14.41244 6.83503-9.702157 4.095898-14.41244 5.862253-8.908577 3.276718-12.594885 4.582285c-9.19017 3.19992-18.149946 5.555061-26.853728 7.039824s-16.511587 2.252744-23.397815 2.252744c-7.60301 0-13.414065-1.433564-17.484363-4.275093s-6.041449-7.60301-6.041449-14.207645z" fill="#FFFFFF" /></svg>