<?xml version="1.0" standalone="no"?><!DOCTYPE svg PUBLIC "-//W3C//DTD SVG 1.1//EN" "http://www.w3.org/Graphics/SVG/1.1/DTD/svg11.dtd"><svg class="icon" width="14px" height="14.00px" viewBox="0 0 1024 1024" version="1.1" xmlns="http://www.w3.org/2000/svg"><path d="M144.7936 0c-44.8 0-80 36.8128-80 81.6128v860.8c0 44.8 35.2 81.6128 80 81.6128h732.8a81.9712 81.9712 0 0 0 81.6128-81.6128V324.8128L656.7936 0h-512z" fill="#7CBD27" /><path d="M656.768 0v233.6c0 25.6 17.6128 92.8 97.6128 92.8h204.8L656.768 0z" fill="#FFFFFF" /><path d="M341.4528 731.2128a19.9424 19.9424 0 0 1-12.16-3.8912 13.4656 13.4656 0 0 1-5.9904-11.1104c-4.608-12.1088-7.5008-21.9392-8.704-29.5424s-5.1456-29.1584-11.8528-64.64c-5.0944-26.9056-8.4992-48.512-10.1888-64.7936-8.9088 32.9984-18.4576 60.9536-28.6464 83.84-11.8016 26.496-19.456 47.2576-22.9376 62.2592 1.2032 2.304 1.792 4.5568 1.792 6.7584 0 4.5056-1.9968 8.192-5.9904 11.1104a20.0704 20.0704 0 0 1-12.288 4.0448c-13.4912 0-20.2496-6.0416-20.2496-18.1504l-4.6592-19.0464-16.3584-73.4976c-6.5024-24.8064-17.6128-60.3392-33.3056-106.6496a20.224 20.224 0 0 1-1.0496-5.9904c0-9.2928 5.248-13.952 15.744-13.952 6.5024 0 11.4944 3.5584 15.0016 10.6496 1.792 3.6096 5.4528 13.952 10.9568 31.0528 5.888 18.0992 11.8016 39.9104 17.6896 65.408l14.5408 66.304c10.7008-24.8064 21.3504-54.9888 31.9488-90.5984 6.5024-21.7088 11.4432-36.7616 14.848-45.1584 9.0112-22.0928 17.7408-33.152 26.24-33.152 6.9888 0 11.9552 3.5584 14.848 10.6496 3.6096 8.6016 7.2448 29.1072 10.9568 61.4912 1.9968 16.4096 5.4016 36.096 10.1888 59.1104l12.9024 58.9568c13.3888-32.2048 30.1568-75.7504 50.2528-130.6624 1.1008-2.9952 3.6096-12.4416 7.5008-28.3392 2.8928-11.6992 6.4512-20.8128 10.6496-27.2896 3.6096-5.504 8.2944-8.2432 14.1056-8.2432 10.112 0 15.1552 4.992 15.1552 15.0016 0 1.6896-1.6128 6.7072-4.8128 15.0016l-5.9904 16.2048-8.2432 26.7008-44.544 108.288c-4.096 11.904-11.1616 29.2096-21.1456 51.8912-3.6096 6.6304-9.0112 9.984-16.2048 9.984zM634.8544 721.3056c-9.1904 0-17.2032-11.8016-24.0128-35.4048-2.6112-9.0112-5.8624-24.7552-9.7536-47.2576-10.1888 1.408-23.552 3.8912-40.0384 7.5008l-39.9104 8.2432c-4.992 13.1072-13.5424 32.256-25.6512 57.4464-3.2 5.6064-7.552 8.3968-13.056 8.3968-3.9936 0-7.5776-1.4592-10.7264-4.352s-4.736-6.5024-4.736-10.8032c0-4.8128 7.552-23.04 22.656-54.7584a16.2048 16.2048 0 0 1-2.56-9.0112c0-8.0896 4.8896-13.312 14.6944-15.5904a1238.656 1238.656 0 0 1 43.2128-73.8048c23.7056-37.888 38.4512-56.8576 44.2624-56.8576 7.9104 0 13.312 5.504 16.2048 16.512l9.4464 50.4064 22.3488 104.2432 8.5504 23.7056c2.8928 8.0896 4.352 13.4912 4.352 16.2048 0 4.3008-1.5616 7.9104-4.6592 10.8032s-6.6304 4.3776-10.624 4.3776z m-52.9664-171.4432l-42.9056 69.1456a821.504 821.504 0 0 1 55.04-11.2384l-12.1344-57.9072zM867.9424 511.1552a148.3776 148.3776 0 0 0-15.1552 29.2608l-11.392 32.8448-40.3456 109.056c-4.7104 12.8-10.1888 25.2928-16.512 37.504-3.2 5.9904-7.7056 9.0112-13.4912 9.0112-7.7056 0-13.1072-3.8912-16.2048-11.6992-12.1088-30.4128-25.5488-74.1376-40.3456-131.2512l-11.8528-41.2416c-5.888-20.8128-8.8576-34.4064-8.8576-40.8064 0-4.5056 1.6128-8.192 4.8128-11.1104a14.8992 14.8992 0 0 1 10.496-4.0448c7.6032 0 12.4928 4.096 14.6944 12.288l5.5552 26.112 14.4128 50.9952c9.6 37.1968 18.944 69.248 28.0576 96.1536l0.896-2.4064 40.192-108.9024 12.7488-36.7616c5.7088-14.7968 11.7504-26.0096 18.1504-33.6128a14.7712 14.7712 0 0 1 11.6992-5.9904c3.9936 0 7.5776 1.536 10.7264 4.5824s4.736 6.7328 4.736 11.0336a16.4096 16.4096 0 0 1-3.0208 8.9856z" fill="#FFFFFF" /></svg>