<?xml version="1.0" standalone="no"?><!DOCTYPE svg PUBLIC "-//W3C//DTD SVG 1.1//EN" "http://www.w3.org/Graphics/SVG/1.1/DTD/svg11.dtd"><svg class="icon" width="14px" height="14.00px" viewBox="0 0 1024 1024" version="1.1" xmlns="http://www.w3.org/2000/svg"><path d="M901.632 926.72c0 12.8-5.12 25.088-14.336 34.304-9.216 9.216-21.504 14.336-34.304 14.336H170.496c-12.8 0-25.6-5.12-34.304-14.336-9.216-9.216-14.336-21.504-14.336-34.304V48.64c0-12.8 5.12-25.6 14.336-34.304C144.896 5.12 157.696 0 170.496 0h418.816c12.8 0 25.6 5.12 34.816 14.336l263.68 263.68c9.216 9.216 14.336 21.504 14.336 34.816V926.72z" fill="#EBECF0" /><path d="M901.632 926.72v48.64c0 12.8-5.12 25.6-14.336 34.304-9.216 9.216-21.504 14.336-34.304 14.336H170.496c-27.136 0-48.64-22.016-48.64-48.64V926.72c0 12.8 5.12 25.088 14.336 34.304 9.216 9.216 21.504 14.336 34.304 14.336h682.496c27.136 0 48.64-22.016 48.64-48.64z" fill="#C1C7D0" /><path d="M24.064 536.576h975.36v243.712c0 27.136-22.016 48.64-48.64 48.64H73.216c-12.8 0-25.6-5.12-34.304-14.336-9.216-9.216-14.336-21.504-14.336-34.816v-243.2z" fill="#2B74E5" /><path d="M121.856 536.576V438.784L24.064 536.576h97.792z m779.776 0l1.024-97.792 97.28 97.792h-98.304z" fill="#0047AF" /><path d="M901.632 312.832v6.656h-263.68c-27.136 0-48.64-22.016-48.64-48.64V0c12.8 0 25.6 5.12 34.816 14.336l264.192 263.68c8.704 9.216 13.824 21.504 13.312 34.816z" fill="#C1C7D0" /><path d="M348.672 580.096l22.528 117.248 21.504-117.248h59.392l-46.08 188.928h-61.44l-21.504-110.08h-1.024l-21.504 110.08H239.616l-47.104-188.928h60.416l20.48 117.248h1.024l22.528-117.248h51.712zM531.456 769.536h-61.44v-188.928h90.624c52.736 0.512 79.872 22.016 81.408 63.488-0.512 44.032-27.136 66.048-79.36 66.56h-30.72v58.88z m0-102.912h25.6c16.384 0 24.576-7.68 24.576-22.528 0-12.8-10.752-19.456-32.768-19.456h-17.408v41.984zM819.2 634.88h-58.368c-0.512-6.144-3.584-10.24-9.216-12.288-3.584-2.56-8.704-4.096-15.36-4.096-13.824 0-20.48 3.584-20.48 11.264 0 6.656 12.288 13.312 36.864 19.456 48.128 11.776 72.192 31.744 72.192 59.392-1.536 41.984-30.72 62.976-88.576 63.488-50.176-2.048-78.336-22.528-84.48-61.44h59.392c2.048 6.656 5.632 11.776 10.24 15.36 4.608 2.56 10.752 4.096 17.408 4.096 17.92 0 26.624-4.608 26.624-13.312 0-7.68-11.776-13.824-35.84-19.456-48.64-11.776-73.216-32.256-73.216-61.44 1.536-38.912 28.672-59.392 81.408-60.416 48.128 0.512 75.264 19.968 81.408 59.392z" fill="#FFFFFF" /></svg>