<?xml version="1.0" standalone="no"?><!DOCTYPE svg PUBLIC "-//W3C//DTD SVG 1.1//EN" "http://www.w3.org/Graphics/SVG/1.1/DTD/svg11.dtd"><svg class="icon" width="14px" height="14.00px" viewBox="0 0 1024 1024" version="1.1" xmlns="http://www.w3.org/2000/svg"><path d="M901.632 926.72c0 12.8-5.12 25.088-14.336 34.304-9.216 9.216-21.504 14.336-34.304 14.336H170.496c-12.8 0-25.6-5.12-34.304-14.336-9.216-9.216-14.336-21.504-14.336-34.304V48.64c0-12.8 5.12-25.6 14.336-34.304C144.896 5.12 157.696 0 170.496 0h418.816c12.8 0 25.6 5.12 34.816 14.336l263.68 263.68c9.216 9.216 14.336 21.504 14.336 34.816V926.72z" fill="#EBECF0" /><path d="M901.632 926.72v48.64c0 12.8-5.12 25.6-14.336 34.304-9.216 9.216-21.504 14.336-34.304 14.336H170.496c-27.136 0-48.64-22.016-48.64-48.64V926.72c0 12.8 5.12 25.088 14.336 34.304 9.216 9.216 21.504 14.336 34.304 14.336h682.496c27.136 0 48.64-22.016 48.64-48.64z" fill="#C1C7D0" /><path d="M24.064 536.576h975.36v243.712c0 27.136-22.016 48.64-48.64 48.64H73.216c-12.8 0-25.6-5.12-34.304-14.336-9.216-9.216-14.336-21.504-14.336-34.816v-243.2z" fill="#47B347" /><path d="M121.856 536.576V438.784L24.064 536.576h97.792z m779.776 0l1.024-97.792 97.28 97.792h-98.304z" fill="#2A932A" /><path d="M901.632 312.832v6.656h-263.68c-27.136 0-48.64-22.016-48.64-48.64V0c12.8 0 25.6 5.12 34.816 14.336l264.192 263.68c8.704 9.216 13.824 21.504 13.312 34.816z" fill="#C1C7D0" /><path d="M330.752 715.776l-30.72 53.248H229.888l66.56-98.816-60.416-90.624h69.632l26.624 48.128 27.648-48.128H430.08L365.568 670.72 430.08 769.536H360.448l-29.696-53.76zM600.064 769.536H452.096v-188.928h62.464v144.896h85.504v44.032zM782.848 634.88h-58.368c-0.512-6.144-3.584-10.24-9.216-12.288-3.584-2.56-8.704-4.096-15.36-4.096-13.824 0-20.48 3.584-20.48 11.264 0 6.656 12.288 13.312 36.864 19.456 48.128 11.776 72.192 31.744 72.192 59.392-1.536 41.984-30.72 62.976-88.576 63.488-50.176-2.048-78.336-22.528-84.48-61.44h59.392c2.048 6.656 5.632 11.776 10.24 15.36 4.608 2.56 10.752 4.096 17.408 4.096 17.92 0 26.624-4.608 26.624-13.312 0-7.68-11.776-13.824-35.84-19.456-48.64-11.776-73.216-32.256-73.216-61.44 1.536-38.912 28.672-59.392 81.408-60.416 48.128 0.512 75.264 19.968 81.408 59.392z" fill="#FFFFFF" /></svg>