<?xml version="1.0" standalone="no"?><!DOCTYPE svg PUBLIC "-//W3C//DTD SVG 1.1//EN" "http://www.w3.org/Graphics/SVG/1.1/DTD/svg11.dtd"><svg class="icon" width="14px" height="14.00px" viewBox="0 0 1024 1024" version="1.1" xmlns="http://www.w3.org/2000/svg"><path d="M901.625 926.725c0 12.8-5.125 25.0875-14.3375 34.3-9.225 9.2125-21.5 14.3375-34.3125 14.3375H170.4875c-12.8 0-25.6-5.125-34.3-14.3375-9.2125-9.225-14.3375-21.5-14.3375-34.3V48.6375c0-12.8 5.1125-25.6 14.3375-34.3C144.8875 5.125 157.7 0 170.4875 0H589.3125c12.8 0 25.6 5.125 34.8125 14.3375l263.675 263.6875c9.2125 9.2125 14.3375 21.5 14.3375 34.8125v613.8875h-0.5125z" fill="#EBECF0" /><path d="M901.625 926.725v48.6375c0 12.8-5.125 25.6-14.3375 34.3-9.225 9.225-21.5 14.3375-34.3125 14.3375H170.4875c-27.1375 0-48.6375-22.0125-48.6375-48.6375v-48.6375c0 12.8 5.1125 25.0875 14.3375 34.3 9.2125 9.2125 21.5 14.3375 34.3 14.3375h682.5c27.1375 0 48.6375-22.0125 48.6375-48.6375z" fill="#C1C7D0" /><path d="M24.0625 536.575h975.3625v243.7125c0 27.1375-22.0125 48.6375-48.6375 48.6375H73.2125c-12.8 0-25.6-5.1125-34.3-14.3375C29.6875 805.375 24.575 793.0875 24.575 779.775V536.575H24.0625z" fill="#FF7171" /><path d="M121.85 536.575v-97.8L24.0625 536.575h97.7875z m779.775 0l1.025-97.8 97.275 97.8h-98.3z" fill="#EF3333" /><path d="M901.625 312.8375v6.65H637.9375c-27.1375 0-48.6375-22.0125-48.6375-48.6375V0c12.8 0 25.6 5.125 34.8125 14.3375L888.3125 278.025c8.7 9.2125 13.825 21.5 13.3125 34.8125z" fill="#C1C7D0" /><path d="M223.775 791.1l69.0125-107.55-63.25-97.0875h69.2875l13.7 23.9c1.9625 3.4 3.9875 6.9375 6.0375 10.6125 2.0625 3.675 3.9875 7.1125 5.775 10.3375 1.7875 3.225 3.8 6.8 6.0375 10.7375h0.5375c2.2375-3.9375 4.275-7.475 6.1125-10.6125 1.8375-3.1375 3.825-6.5375 5.975-10.2 2.15-3.675 4.2125-7.1625 6.175-10.475l14.2375-24.3h65.525l-62.175 96.8125 68.4875 107.825h-71.575l-18.125-33.0375c-1.875-3.4875-3.85-7.1125-5.9125-10.875-2.0625-3.7625-3.9375-7.275-5.6375-10.5375-1.7-3.2625-3.625-6.9125-5.775-10.9375h-0.2625c-2.2375 4.1125-4.275 7.85-6.1125 11.2125-1.8375 3.3625-3.825 6.9625-5.975 10.8125-2.15 3.85-4.25 7.5625-6.3125 11.15l-18.8 32.225h-67zM532.0875 795.1375c-17.725 0-33.6625-2.525-47.8-7.5875-14.15-5.05-25.375-12.7125-33.7-22.9625-8.325-10.25-12.625-23.1125-12.8875-38.6h61.1c0.7125 5.1875 2.55 9.4875 5.5 12.8875 2.95 3.4 6.875 5.9375 11.75 7.5875 4.875 1.6625 10.5875 2.4875 17.125 2.4875 3.9375 0 7.925-0.4875 11.95-1.475 4.025-0.9875 7.3875-2.6375 10.075-4.9625 2.6875-2.325 4.025-5.4625 4.025-9.4s-1.5-7.3875-4.5-9.8c-3-2.4125-7.3875-4.5-13.1625-6.25s-12.875-3.65-21.2875-5.7125c-8.5-2.15-17.1875-4.65-26.05-7.525-8.8625-2.8625-17.05-6.6-24.575-11.2125-7.525-4.6125-13.5875-10.5625-18.2-17.8625-4.6125-7.3-6.9125-16.3625-6.9125-27.1875 0-15.6625 3.825-28.225 11.475-37.6625 7.65-9.4375 17.875-16.2875 30.6875-20.55 12.8-4.25 26.9-6.375 42.3-6.375 10.5625 0 20.7 1.1625 30.4125 3.4875 9.7125 2.325 18.4 5.975 26.05 10.9375s13.7625 11.4125 18.325 19.3375 6.9375 17.475 7.1125 28.6625H551.8125c-0.8-5.6375-3.2875-10.1375-7.45-13.5s-10.3625-5.0375-18.6-5.0375c-6.625 0-12 1.3375-16.1125 4.025-4.1125 2.6875-6.175 6.1375-6.175 10.3375s1.875 7.1125 5.6375 9.2625 9.2375 4.05 16.45 5.7125c7.2 1.6625 15.8625 3.7375 25.9875 6.25 8.6 2.0625 16.9625 4.5875 25.1125 7.5875 8.15 3 15.4875 6.9125 22.025 11.75s11.725 10.9375 15.575 18.325 5.775 16.5375 5.775 27.4625c0 14.6875-3.9625 27.0375-11.8875 37.0625s-18.55 17.6125-31.8875 22.7625c-13.3375 5.15-28.0625 7.725-44.175 7.725zM645.275 791.1V586.4625h94.2625c14.775 0 28.2625 2.3 40.4875 6.9125 12.225 4.6125 22.7625 11.35 31.625 20.2125s15.7125 19.65 20.55 32.3625c4.8375 12.7125 7.25 27.175 7.25 43.375s-2.35 30.75-7.05 43.375-11.475 23.275-20.3375 31.9625c-8.8625 8.6875-19.6 15.2625-32.225 19.7375-12.625 4.475-26.85 6.7125-42.7 6.7125h-91.85z m59.8875-49.55h26.9875c9.225 0 17.325-1.95 24.3-5.8375s12.4625-9.7125 16.45-17.45c3.9875-7.7375 5.975-17.3875 5.975-28.9375s-1.9-20.9-5.7125-28.875c-3.8-7.9625-9.2-14.0375-16.175-18.2s-15.2625-6.25-24.8375-6.25h-26.9875v105.5375z" fill="#FFFFFF" /></svg>