<?xml version="1.0" standalone="no"?><!DOCTYPE svg PUBLIC "-//W3C//DTD SVG 1.1//EN" "http://www.w3.org/Graphics/SVG/1.1/DTD/svg11.dtd"><svg class="icon" width="14px" height="14.00px" viewBox="0 0 1024 1024" version="1.1" xmlns="http://www.w3.org/2000/svg"><path d="M144.7936 0c-44.8 0-80 36.8128-80 81.6128v860.8c0 44.8 35.2 81.6128 80 81.6128h732.8a81.9712 81.9712 0 0 0 81.6128-81.6128V324.8128L656.7936 0h-512z" fill="#A25DA2" /><path d="M656.768 0v233.6c0 25.6 17.6128 92.8 97.6128 92.8h204.8L656.768 0z" fill="#FFFFFF" /><path d="M420.3008 529.152l-20.2496 13.7984c-18.2016 14.1056-38.8096 36.6592-61.7984 67.6608l-52.6592 76.6464a215.4496 215.4496 0 0 1-7.3472 10.496l58.3424-2.2528c25.4976-1.2032 45.0048-1.792 58.496-1.792 13.2096 0 22.9376 0.5888 29.2608 1.792 8.0896 1.6128 12.288 5.7088 12.5952 12.288a13.7728 13.7728 0 0 1-4.8128 11.6992 16.9216 16.9216 0 0 1-11.2384 3.7376c-2.8928 0-7.2448-0.1792-13.056-0.5376s-10.1376-0.5376-13.056-0.5376c-15.2064 0-38.016 0.384-68.48 1.1264s-53.2736 1.1264-68.48 1.1264c-11.4944 0-17.2544-5.0432-17.2544-15.1552 0-6.6048 3.0976-14.8992 9.2928-24.9088l16.0512-22.3488 54.144-75.2896c22.2976-29.4912 43.0592-52.4032 62.2592-68.7104l-52.5056 2.9952h-60.5952c-1.1008 0-2.7136 0.0768-4.864 0.2304s-3.7376 0.2304-4.736 0.2304c-10.5984 0-15.8976-5.1456-15.8976-15.4624 0-6.8096 2.688-11.2896 8.0896-13.4912 3.3024-1.408 8.7552-2.0992 16.3584-2.0992 6.912 0 17.1776 0.7168 30.8224 2.176s23.936 2.176 30.8224 2.176c7.7056 0 19.2256-0.512 34.5856-1.5104s26.9312-1.5104 34.7136-1.5104c25.7024 0 38.5536 4.8384 38.5536 14.5408 0.0512 6.6816-5.76 14.2848-17.3568 22.8864zM586.9568 529.8944c-6.4 0-14.4384-0.64-24.1408-1.9456l-24.1664-3.1488a1058.5088 1058.5088 0 0 0-3.456 83.4048c0 6.9888 0.2048 15.6416 0.5888 25.9584s0.5888 18.944 0.5888 25.9584c0 9.3952-0.3584 17.9456-1.0496 25.6512l47.2576-0.5888c4.1984 0 7.7312 1.4848 10.5728 4.4288s4.2752 6.5792 4.2752 10.88c0 4.4032-1.4336 8.064-4.2752 11.0336s-6.3744 4.4288-10.5728 4.4288c-5.6064 0-14.0032 0.128-25.1904 0.384s-19.6096 0.384-25.1904 0.384c-6.6048 0-16.4864 0.9216-29.6192 2.7648s-23.0656 2.7648-29.7728 2.7648c-4.1984 0-7.7312-1.4848-10.5728-4.4288s-4.2752-6.5792-4.2752-10.88 1.4336-7.9616 4.2752-10.9568 6.3744-4.5056 10.5728-4.5056c6.5024 0 17.2544-1.0496 32.256-3.1488 0.9984-8.0896 1.5104-17.3568 1.5104-27.7504 0-6.912-0.3328-15.3344-0.9728-25.2672s-0.9728-18.3296-0.9728-25.1136c0-23.0912 1.408-51.9424 4.1984-86.5536l-19.5072 0.5888-19.5072 0.4608c-4.3008 0-7.9104-1.4592-10.8032-4.352s-4.352-6.6048-4.352-11.1104c0-9.2928 4.7104-14.4128 14.1056-15.3088 8.0896-0.7936 23.2448-1.2032 45.44-1.2032 19.8912 0 44.8512 2.1504 74.8544 6.4512 8.9088 1.3056 13.3376 6.656 13.3376 16.0512 0 4.7104-1.6896 8.448-5.0944 11.2384a16.64 16.64 0 0 1-10.3424 3.4304zM673.2032 628.7616c-2.7904 0-8.9088-0.64-18.304-1.9456-0.7936 15.104-1.2032 41.5488-1.2032 79.36 0 3.9936-1.3056 7.3728-3.8912 10.1376s-5.8624 4.1216-9.7536 4.1216c-3.9936 0-7.296-1.3824-9.9072-4.1216s-3.8912-6.1184-3.8912-10.1376v-44.1088c0-14.6944 0.896-35.4048 2.688-62.1056 1.9968-28.9024 3.0976-49.6128 3.3024-62.1056v-20.7104c0-9.9072 0.5888-17.1008 1.792-21.6064 2.304-8.8064 7.1936-12.5952 14.6944-11.392 3.2-0.9984 7.7568-1.7408 13.6448-2.2528s13.1584-0.7424 21.76-0.7424c18.304 0 35.456 6.2464 51.456 18.7392 17.6128 13.7984 26.3936 30.4128 26.3936 49.792 0 24.8064-9.3952 44.544-28.2112 59.2384-16.768 13.2352-36.9664 19.84-60.5696 19.84z m7.5008-119.1168c-4.4032 0-8.32 0.1024-11.776 0.3072s-6.3744 0.512-8.7808 0.896l-0.3072 27.5968-3.1488 59.6992 16.512 1.9456c16.7936 0 30.9504-4.2496 42.4448-12.7488 12.5952-9.2928 18.8928-21.8624 18.8928-37.6576 0-11.2128-5.9904-20.8384-17.9968-28.9536a63.5392 63.5392 0 0 0-35.84-11.0848z" fill="#FFFFFF" /></svg>